<?xml version="1.0" encoding="UTF-8" standalone="no"?>
<!-- Created with Inkscape (http://www.inkscape.org/) -->

<svg
   width="220.43256mm"
   height="241.4231mm"
   viewBox="0 0 220.43256 241.4231"
   version="1.1"
   id="svg5"
   inkscape:version="1.2.2 (b0a8486541, 2022-12-01)"
   sodipodi:docname="diagram1.svg"
   xmlns:inkscape="http://www.inkscape.org/namespaces/inkscape"
   xmlns:sodipodi="http://sodipodi.sourceforge.net/DTD/sodipodi-0.dtd"
   xmlns="http://www.w3.org/2000/svg"
   xmlns:svg="http://www.w3.org/2000/svg">
  <sodipodi:namedview
     id="namedview7"
     pagecolor="#ffffff"
     bordercolor="#666666"
     borderopacity="1.0"
     inkscape:showpageshadow="2"
     inkscape:pageopacity="0.0"
     inkscape:pagecheckerboard="0"
     inkscape:deskcolor="#d1d1d1"
     inkscape:document-units="mm"
     showgrid="false"
     inkscape:zoom="0.4204826"
     inkscape:cx="403.10824"
     inkscape:cy="722.97879"
     inkscape:window-width="1086"
     inkscape:window-height="720"
     inkscape:window-x="0"
     inkscape:window-y="0"
     inkscape:window-maximized="1"
     inkscape:current-layer="g7686" />
  <defs
     id="defs2">
    <marker
       style="overflow:visible"
       id="marker1237"
       refX="0"
       refY="0"
       orient="auto"
       inkscape:stockid="Stop"
       markerWidth="1"
       markerHeight="8"
       viewBox="0 0 1 8"
       inkscape:isstock="true"
       inkscape:collect="always"
       preserveAspectRatio="xMidYMid">
      <path
         style="fill:none;stroke:context-stroke;stroke-width:1"
         d="M 0,4 V -4"
         id="path1235" />
    </marker>
    <marker
       style="overflow:visible"
       id="Stop"
       refX="0"
       refY="0"
       orient="auto"
       inkscape:stockid="Stop"
       markerWidth="1"
       markerHeight="8"
       viewBox="0 0 1 8"
       inkscape:isstock="true"
       inkscape:collect="always"
       preserveAspectRatio="xMidYMid">
      <path
         style="fill:none;stroke:context-stroke;stroke-width:1"
         d="M 0,4 V -4"
         id="path171" />
    </marker>
    <marker
       style="overflow:visible"
       id="Stop-2"
       refX="0"
       refY="0"
       orient="auto"
       inkscape:stockid="Stop"
       markerWidth="1"
       markerHeight="8"
       viewBox="0 0 1 8"
       inkscape:isstock="true"
       inkscape:collect="always"
       preserveAspectRatio="xMidYMid">
      <path
         style="fill:none;stroke:context-stroke;stroke-width:1"
         d="M 0,4 V -4"
         id="path171-0" />
    </marker>
    <marker
       style="overflow:visible"
       id="Stop-5"
       refX="0"
       refY="0"
       orient="auto"
       inkscape:stockid="Stop"
       markerWidth="1"
       markerHeight="8"
       viewBox="0 0 1 8"
       inkscape:isstock="true"
       inkscape:collect="always"
       preserveAspectRatio="xMidYMid">
      <path
         style="fill:none;stroke:context-stroke;stroke-width:1"
         d="M 0,4 V -4"
         id="path171-9" />
    </marker>
    <marker
       style="overflow:visible"
       id="marker1237-2"
       refX="0"
       refY="0"
       orient="auto"
       inkscape:stockid="Stop"
       markerWidth="1"
       markerHeight="8"
       viewBox="0 0 1 8"
       inkscape:isstock="true"
       inkscape:collect="always"
       preserveAspectRatio="xMidYMid">
      <path
         style="fill:none;stroke:context-stroke;stroke-width:1"
         d="M 0,4 V -4"
         id="path1235-2" />
    </marker>
    <marker
       style="overflow:visible"
       id="Stop-9"
       refX="0"
       refY="0"
       orient="auto"
       inkscape:stockid="Stop"
       markerWidth="1"
       markerHeight="8"
       viewBox="0 0 1 8"
       inkscape:isstock="true"
       inkscape:collect="always"
       preserveAspectRatio="xMidYMid">
      <path
         style="fill:none;stroke:context-stroke;stroke-width:1"
         d="M 0,4 V -4"
         id="path171-7" />
    </marker>
  </defs>
  <g
     inkscape:label="Layer 1"
     inkscape:groupmode="layer"
     id="layer1"
     transform="translate(7.5721493,3.3305333)">
    <g
       aria-label="separation"
       id="text6254"
       style="font-size:10.5833px;line-height:1.25;letter-spacing:0px;stroke-width:0.264583" />
    <g
       id="g7877">
      <path
         id="rect7718"
         style="fill:#ffffff;stroke-width:0.999997;stroke-linecap:round;stroke-dasharray:0.999997, 0.999997;stop-color:#000000"
         d="M -7.5721493,-3.3305333 H 212.86041 V 238.09256 H -7.5721493 Z" />
      <g
         id="g7686">
        <path
           id="rect234"
           style="fill:#ff0000;stroke-linecap:round;stroke-dasharray:1, 3;stop-color:#000000"
           d="m 84.601692,105.84213 h 11.745353 v 11.54503 H 84.601692 Z" />
        <path
           id="rect234-3"
           style="stroke-linecap:round;stop-color:#000000"
           d="m 109.32814,41.15728 h 11.74535 v 11.54503 h -11.74535 z" />
        <path
           style="font-variation-settings:normal;opacity:1;fill:none;fill-opacity:1;stroke:#000000;stroke-width:1;stroke-linecap:butt;stroke-linejoin:miter;stroke-miterlimit:4;stroke-dasharray:none;stroke-dashoffset:0;stroke-opacity:1;marker-start:url(#Stop);marker-end:url(#marker1237);stop-color:#000000;stop-opacity:1"
           d="M 109.32814,52.702309 70.395004,91.635444"
           id="path438" />
        <path
           style="font-variation-settings:normal;fill:none;fill-opacity:1;stroke:#000000;stroke-width:1;stroke-linecap:butt;stroke-linejoin:miter;stroke-miterlimit:4;stroke-dasharray:none;stroke-dashoffset:0;stroke-opacity:1;marker-start:url(#Stop-5);marker-end:url(#marker1237-2);stop-color:#000000"
           d="M 117.94975,61.319367 99.016166,80.154299"
           id="path438-8" />
        <path
           style="font-variation-settings:normal;opacity:1;fill:none;fill-opacity:1;stroke:#000000;stroke-width:1;stroke-linecap:butt;stroke-linejoin:miter;stroke-miterlimit:4;stroke-dasharray:1, 1;stroke-dashoffset:0;stroke-opacity:1;stop-color:#000000;stop-opacity:1"
           d="M 96.347046,105.84213 160.93665,41.252525"
           id="path1333" />
        <path
           style="font-variation-settings:normal;fill:none;fill-opacity:1;stroke:#000000;stroke-width:1;stroke-linecap:butt;stroke-linejoin:miter;stroke-miterlimit:4;stroke-dasharray:1, 1;stroke-dashoffset:0;stroke-opacity:1;stop-color:#000000"
           d="M 20.012086,181.97677 84.601692,117.38716"
           id="path1333-6" />
        <path
           style="font-variation-settings:normal;fill:none;fill-opacity:1;stroke:#000000;stroke-width:1;stroke-linecap:butt;stroke-linejoin:miter;stroke-miterlimit:4;stroke-dasharray:1, 1;stroke-dashoffset:0;stroke-opacity:1;stop-color:#000000"
           d="m 96.347043,117.38716 56.702387,56.70239"
           id="path1333-6-7" />
        <path
           style="font-variation-settings:normal;fill:none;fill-opacity:1;stroke:#000000;stroke-width:1;stroke-linecap:butt;stroke-linejoin:miter;stroke-miterlimit:4;stroke-dasharray:1, 1;stroke-dashoffset:0;stroke-opacity:1;stop-color:#000000"
           d="m 40.061653,61.30209 44.540036,44.54004"
           id="path1333-6-7-5" />
        <g
           aria-label="lane axis"
           transform="rotate(-45)"
           id="text1420"
           style="font-size:10.5833px;line-height:1.25;letter-spacing:0px;stroke-width:0.264583">
          <path
             d="m 89.582444,146.991 h -0.93133 v -8.04331 h 0.93133 z"
             id="path7237" />
          <path
             d="m 93.530009,141.2231 q 1.037163,0 1.534578,0.45508 0.497416,0.45508 0.497416,1.44991 v 3.86291 h -0.677332 l -0.179916,-0.80433 h -0.04233 q -0.370415,0.46566 -0.783164,0.68791 -0.402165,0.22225 -1.12183,0.22225 -0.772581,0 -1.280579,-0.40217 -0.507999,-0.41274 -0.507999,-1.28057 0,-0.84667 0.666748,-1.30175 0.666748,-0.46567 2.05316,-0.508 l 0.963081,-0.0318 v -0.33866 q 0,-0.70909 -0.306916,-0.98425 -0.306916,-0.27517 -0.86783,-0.27517 -0.444499,0 -0.846664,0.13759 -0.402166,0.127 -0.751415,0.29633 l -0.285749,-0.6985 q 0.370416,-0.20108 0.878414,-0.33866 0.507998,-0.14817 1.05833,-0.14817 z m 0.275166,3.02682 q -1.05833,0.0423 -1.471079,0.33867 -0.402165,0.29633 -0.402165,0.83608 0,0.47625 0.285749,0.6985 0.296332,0.22225 0.751414,0.22225 0.719664,0 1.195913,-0.39159 0.476248,-0.40216 0.476248,-1.22766 v -0.508 z"
             id="path7239" />
          <path
             d="m 100.04933,141.21252 q 1.016,0 1.53458,0.49741 0.51858,0.48683 0.51858,1.5875 v 3.69357 h -0.92075 v -3.63007 q 0,-1.36525 -1.269993,-1.36525 -0.941914,0 -1.301746,0.52916 -0.359832,0.52917 -0.359832,1.524 v 2.94216 h -0.93133 v -5.67265 h 0.751414 l 0.137583,0.77258 h 0.05292 q 0.275166,-0.4445 0.761998,-0.65616 0.486832,-0.22225 1.026576,-0.22225 z"
             id="path7241" />
          <path
             d="m 106.05006,141.21252 q 0.73025,0 1.24883,0.31749 0.52917,0.3175 0.80433,0.89959 0.28575,0.57149 0.28575,1.34407 v 0.56092 h -3.88407 q 0.0212,0.96308 0.48683,1.47108 0.47625,0.49741 1.32291,0.49741 0.53975,0 0.9525,-0.0952 0.42333,-0.10583 0.86783,-0.29633 v 0.81491 q -0.43391,0.1905 -0.85725,0.27517 -0.42333,0.0953 -1.00541,0.0953 -0.80433,0 -1.42874,-0.32808 -0.61384,-0.32808 -0.96309,-0.97367 -0.33866,-0.65616 -0.33866,-1.59807 0,-0.93133 0.30691,-1.59808 0.3175,-0.66675 0.87842,-1.02658 0.5715,-0.35983 1.32291,-0.35983 z m -0.0106,0.76199 q -0.66675,0 -1.05833,0.43392 -0.381,0.42333 -0.45508,1.18533 h 2.88924 q -0.0106,-0.71967 -0.33867,-1.16416 -0.32808,-0.45509 -1.03716,-0.45509 z"
             id="path7243" />
          <path
             d="m 114.72836,141.2231 q 1.03716,0 1.53458,0.45508 0.49741,0.45508 0.49741,1.44991 v 3.86291 h -0.67733 l -0.17991,-0.80433 h -0.0423 q -0.37041,0.46566 -0.78316,0.68791 -0.40217,0.22225 -1.12183,0.22225 -0.77258,0 -1.28058,-0.40217 -0.508,-0.41274 -0.508,-1.28057 0,-0.84667 0.66675,-1.30175 0.66675,-0.46567 2.05316,-0.508 l 0.96308,-0.0318 v -0.33866 q 0,-0.70909 -0.30692,-0.98425 -0.30691,-0.27517 -0.86783,-0.27517 -0.44449,0 -0.84666,0.13759 -0.40217,0.127 -0.75141,0.29633 l -0.28575,-0.6985 q 0.37041,-0.20108 0.87841,-0.33866 0.508,-0.14817 1.05833,-0.14817 z m 0.27517,3.02682 q -1.05833,0.0423 -1.47108,0.33867 -0.40217,0.29633 -0.40217,0.83608 0,0.47625 0.28575,0.6985 0.29633,0.22225 0.75142,0.22225 0.71966,0 1.19591,-0.39159 0.47625,-0.40216 0.47625,-1.22766 v -0.508 z"
             id="path7245" />
          <path
             d="m 119.86127,144.09117 -1.95791,-2.77282 h 1.05833 l 1.4605,2.13783 1.44991,-2.13783 h 1.04774 l -1.95791,2.77282 2.06375,2.89983 h -1.05833 l -1.54516,-2.26483 -1.56633,2.26483 h -1.04775 z"
             id="path7247" />
          <path
             d="m 124.592,139.19111 q 0.21166,0 0.37041,0.14816 0.16933,0.13758 0.16933,0.4445 0,0.29633 -0.16933,0.4445 -0.15875,0.14817 -0.37041,0.14817 -0.23284,0 -0.39159,-0.14817 -0.15875,-0.14817 -0.15875,-0.4445 0,-0.30692 0.15875,-0.4445 0.15875,-0.14816 0.39159,-0.14816 z m 0.45508,2.12724 v 5.67265 h -0.93133 v -5.67265 z"
             id="path7249" />
          <path
             d="m 130.53981,145.42467 q 0,0.8255 -0.61383,1.24883 -0.61384,0.42333 -1.651,0.42333 -0.59266,0 -1.02658,-0.0953 -0.42333,-0.0952 -0.75141,-0.26458 v -0.84667 q 0.33866,0.16934 0.81491,0.3175 0.48683,0.13759 0.98425,0.13759 0.70908,0 1.02658,-0.22225 0.3175,-0.23284 0.3175,-0.61383 0,-0.21167 -0.11642,-0.381 -0.11642,-0.16934 -0.42333,-0.33867 -0.29633,-0.16933 -0.85725,-0.381 -0.55033,-0.21166 -0.94191,-0.42333 -0.39158,-0.21167 -0.60325,-0.508 -0.21167,-0.29633 -0.21167,-0.762 0,-0.71966 0.58209,-1.11124 0.59266,-0.39158 1.54516,-0.39158 0.51858,0 0.96308,0.10583 0.45508,0.0952 0.84666,0.27516 l -0.3175,0.74084 q -0.35983,-0.14817 -0.75141,-0.254 -0.39158,-0.10584 -0.80433,-0.10584 -0.5715,0 -0.87842,0.1905 -0.29633,0.17992 -0.29633,0.49742 0,0.23283 0.13758,0.40216 0.13759,0.15875 0.45509,0.3175 0.32808,0.14817 0.86783,0.35983 0.53974,0.20109 0.92074,0.41275 0.381,0.21167 0.58208,0.51858 0.20109,0.29634 0.20109,0.75142 z"
             id="path7251" />
        </g>
        <g
           aria-label="depth axis"
           transform="rotate(45)"
           id="text1420-3"
           style="font-size:10.5833px;line-height:1.25;letter-spacing:0px;stroke-width:0.264583">
          <path
             d="m 20.684667,17.961414 q -1.05833,0 -1.693328,-0.730247 -0.634998,-0.740831 -0.634998,-2.201327 0,-1.460495 0.634998,-2.201326 0.645581,-0.751414 1.703911,-0.751414 0.656165,0 1.068914,0.243416 0.423332,0.243415 0.687914,0.592664 h 0.0635 q -0.01058,-0.137583 -0.04233,-0.402165 -0.02117,-0.275166 -0.02117,-0.433915 V 9.8122736 h 0.93133 v 8.0433074 h -0.751414 l -0.137583,-0.761997 h -0.04233 q -0.253999,0.359832 -0.677331,0.613831 -0.423332,0.253999 -1.09008,0.253999 z m 0.148166,-0.772581 q 0.899581,0 1.259413,-0.486831 0.370415,-0.497415 0.370415,-1.492246 v -0.169332 q 0,-1.05833 -0.349249,-1.619245 -0.349248,-0.571498 -1.291162,-0.571498 -0.751414,0 -1.132413,0.603248 -0.370416,0.592664 -0.370416,1.598078 0,1.015997 0.370416,1.576912 0.380999,0.560914 1.142996,0.560914 z"
             id="path7214" />
          <path
             d="m 27.37331,12.0771 q 0.730248,0 1.248829,0.317499 0.529165,0.317499 0.804331,0.89958 0.285749,0.571498 0.285749,1.344079 v 0.560915 h -3.884071 q 0.02117,0.96308 0.486832,1.471079 0.476249,0.497415 1.322913,0.497415 0.539748,0 0.952497,-0.09525 0.423332,-0.105833 0.86783,-0.296332 v 0.814914 q -0.433915,0.190499 -0.857247,0.275166 -0.423332,0.09525 -1.005414,0.09525 -0.80433,0 -1.428745,-0.328082 -0.613831,-0.328082 -0.96308,-0.973664 -0.338666,-0.656164 -0.338666,-1.598078 0,-0.93133 0.306916,-1.598078 0.317499,-0.666748 0.878414,-1.02658 Q 26.621896,12.0771 27.37331,12.0771 Z m -0.01058,0.761997 q -0.666748,0 -1.05833,0.433916 -0.380999,0.423332 -0.455082,1.185329 h 2.889241 q -0.01058,-0.719664 -0.338666,-1.164163 -0.328082,-0.455082 -1.037163,-0.455082 z"
             id="path7216" />
          <path
             d="m 33.850281,12.0771 q 1.047746,0 1.682744,0.730247 0.645582,0.730248 0.645582,2.201327 0,1.449912 -0.645582,2.201326 -0.634998,0.751414 -1.693328,0.751414 -0.656164,0 -1.090079,-0.243416 -0.423332,-0.253999 -0.666748,-0.582081 h -0.0635 q 0.02117,0.179916 0.04233,0.455082 0.02117,0.275166 0.02117,0.476248 v 2.328326 h -0.931331 v -8.21264 h 0.761998 l 0.126999,0.772581 h 0.04233 q 0.253999,-0.370416 0.666748,-0.624415 0.412748,-0.253999 1.100663,-0.253999 z m -0.169333,0.783164 q -0.867831,0 -1.227663,0.486832 -0.349249,0.486831 -0.370415,1.481662 v 0.179916 q 0,1.047746 0.338665,1.619245 0.349249,0.560914 1.28058,0.560914 0.518581,0 0.846663,-0.285749 0.338666,-0.285749 0.497416,-0.772581 0.169332,-0.497415 0.169332,-1.132413 0,-0.973663 -0.380998,-1.555745 -0.370416,-0.582081 -1.15358,-0.582081 z"
             id="path7218" />
          <path
             d="m 39.554678,17.199417 q 0.211666,0 0.433915,-0.03175 0.22225,-0.04233 0.359832,-0.08467 v 0.709081 q -0.148166,0.07408 -0.423332,0.116417 -0.275165,0.05292 -0.529165,0.05292 -0.444498,0 -0.825497,-0.148166 Q 38.200016,17.654499 37.967183,17.2735 37.73435,16.892501 37.73435,16.204587 v -3.30199 h -0.80433 v -0.444499 l 0.814914,-0.370415 0.370415,-1.206496 h 0.550332 v 1.301746 h 1.640411 v 0.719664 h -1.640411 v 3.280823 q 0,0.518582 0.243416,0.772581 0.253999,0.243416 0.645581,0.243416 z"
             id="path7220" />
          <path
             d="m 42.41217,12.172349 q 0,0.423332 -0.05292,0.793748 h 0.0635 q 0.275166,-0.433915 0.740831,-0.656165 0.476248,-0.222249 1.02658,-0.222249 1.037163,0 1.555745,0.497415 0.518582,0.486832 0.518582,1.576912 v 3.693571 H 45.343744 V 14.22551 q 0,-1.365246 -1.269996,-1.365246 -0.952497,0 -1.31233,0.539748 -0.349248,0.529165 -0.349248,1.523995 v 2.931574 H 41.480839 V 9.8122736 h 0.931331 z"
             id="path7222" />
          <path
             d="m 52.921386,12.087683 q 1.037164,0 1.534579,0.455082 0.497415,0.455082 0.497415,1.449912 v 3.862904 h -0.677331 l -0.179917,-0.80433 h -0.04233 q -0.370415,0.465665 -0.783164,0.687914 -0.402165,0.222249 -1.12183,0.222249 -0.772581,0 -1.280579,-0.402165 -0.507998,-0.412749 -0.507998,-1.280579 0,-0.846664 0.666748,-1.301746 0.666747,-0.465665 2.05316,-0.507999 l 0.96308,-0.03175 V 14.09851 q 0,-0.709081 -0.306916,-0.984247 -0.306915,-0.275166 -0.86783,-0.275166 -0.444499,0 -0.846664,0.137583 -0.402166,0.127 -0.751415,0.296333 l -0.285749,-0.698498 q 0.370416,-0.201083 0.878414,-0.338666 0.507999,-0.148166 1.05833,-0.148166 z m 0.275166,3.026824 q -1.05833,0.04233 -1.471079,0.338665 -0.402165,0.296333 -0.402165,0.836081 0,0.476248 0.285749,0.698498 0.296332,0.222249 0.751414,0.222249 0.719665,0 1.195913,-0.391582 0.476249,-0.402165 0.476249,-1.227663 v -0.507998 z"
             id="path7224" />
          <path
             d="m 58.054296,14.955757 -1.95791,-2.772824 h 1.05833 l 1.460495,2.137826 1.449912,-2.137826 h 1.047747 l -1.957911,2.772824 2.063744,2.899824 h -1.05833 l -1.545162,-2.264826 -1.566328,2.264826 h -1.047747 z"
             id="path7226" />
          <path
             d="m 62.785026,10.055689 q 0.211666,0 0.370415,0.148167 0.169333,0.137583 0.169333,0.444498 0,0.296333 -0.169333,0.444499 -0.158749,0.148166 -0.370415,0.148166 -0.232833,0 -0.391582,-0.148166 -0.15875,-0.148166 -0.15875,-0.444499 0,-0.306915 0.15875,-0.444498 0.158749,-0.148167 0.391582,-0.148167 z m 0.455082,2.127244 v 5.672648 h -0.931331 v -5.672648 z"
             id="path7228" />
          <path
             d="m 68.732833,16.289253 q 0,0.825497 -0.613831,1.248829 -0.613832,0.423332 -1.650995,0.423332 -0.592665,0 -1.02658,-0.09525 -0.423332,-0.09525 -0.751415,-0.264583 v -0.846664 q 0.338666,0.169333 0.814915,0.317499 0.486831,0.137583 0.984246,0.137583 0.709081,0 1.02658,-0.222249 0.317499,-0.232833 0.317499,-0.613832 0,-0.211666 -0.116416,-0.380998 -0.116416,-0.169333 -0.423332,-0.338666 -0.296332,-0.169333 -0.857247,-0.380999 -0.550332,-0.211666 -0.941914,-0.423332 -0.391582,-0.211666 -0.603248,-0.507998 -0.211666,-0.296333 -0.211666,-0.761998 0,-0.719664 0.582082,-1.111246 0.592664,-0.391582 1.545161,-0.391582 0.518582,0 0.963081,0.105833 0.455082,0.09525 0.846664,0.275165 l -0.317499,0.740831 q -0.359833,-0.148166 -0.751415,-0.253999 -0.391582,-0.105833 -0.80433,-0.105833 -0.571499,0 -0.878414,0.1905 -0.296333,0.179916 -0.296333,0.497415 0,0.232832 0.137583,0.402165 0.137583,0.15875 0.455082,0.317499 0.328082,0.148166 0.867831,0.359832 0.539748,0.201083 0.920747,0.412749 0.380999,0.211666 0.582081,0.518582 0.201083,0.296332 0.201083,0.751414 z"
             id="path7230" />
        </g>
        <path
           id="rect5597-9"
           style="fill:none;stroke:#0000ff;stroke-width:1;stroke-linecap:round;stroke-dasharray:1, 3;stop-color:#000000"
           d="M 51.389627,111.14196 90.03999,72.491506 139.65585,122.10737 101.00541,160.75774 Z" />
        <path
           style="font-variation-settings:normal;fill:none;fill-opacity:1;stroke:#0000ff;stroke-width:1;stroke-linecap:butt;stroke-linejoin:miter;stroke-miterlimit:4;stroke-dasharray:none;stroke-dashoffset:0;stroke-opacity:1;stop-color:#000000"
           d="m 69.789013,115.60185 c -4.411764,-4.13996 -8.010479,-10.80529 -5.860286,-13.9103 1.583218,-1.33127 7.650223,3.63106 7.656118,0.0748 -1.514948,-3.328061 -3.458224,-7.372211 -1.525749,-9.234341 1.459914,-2.17212 5.579536,-0.45879 8.510533,0.7222 3.468906,-2.14714 0.371654,-9.60105 4.461768,-11.21546 2.128069,-0.88609 5.963011,0.0351 8.223186,3.61876 1.690173,2.11891 4.550334,7.8318 5.051027,3.96672 2.142482,-2.80076 8.46445,-2.50325 13.01141,2.56054 2.10346,1.86122 1.93841,4.33329 2.56415,5.76834 1.83338,-1.82348 6.10715,2.197251 8.28784,4.840011 2.53229,3.24332 5.03296,7.01082 5.52449,10.23754 -0.36134,2.94561 -4.65699,1.38249 -7.22667,1.49796 -3.39901,0.58478 3.27506,5.41686 3.69584,8.16592 2.42039,5.04885 2.86096,9.72347 2.89876,14.0073 -3.25435,0.90099 -7.67352,-3.9679 -11.36037,-6.09422 -4.27152,-2.94433 -4.29865,1.2977 -5.11569,3.22125 -1.88231,2.77244 -6.17839,3.88614 -11.173041,0.96162 1.301357,4.55639 -0.56488,8.23447 -4.983284,7.72932 -2.941577,-0.0687 -6.588092,-1.41627 -9.601264,-4.56343 -2.989676,-2.89933 -6.40766,-5.92839 -9.819604,-6.68345 -4.112225,-2.08078 -8.832899,-6.61858 -9.858981,-10.77382 -0.542461,-3.44523 3.46842,-2.47958 5.847764,-2.71137 0.857353,-0.19109 1.233577,-1.0453 0.792053,-2.18591 z"
           id="path5512-1" />
        <g
           aria-label="starting elbow location"
           id="text5657"
           style="font-size:5.83703px;line-height:1.25;text-align:center;letter-spacing:0px;text-anchor:middle;fill:#ff0000;stroke-width:0.264583"
           transform="translate(-54.597385,-19.687172)">
          <path
             d="m 70.657213,126.52234 q 0,0.45529 -0.338548,0.68877 -0.338547,0.23348 -0.910576,0.23348 -0.326874,0 -0.566192,-0.0525 -0.233482,-0.0525 -0.414429,-0.14593 v -0.46696 q 0.186785,0.0934 0.449451,0.17511 0.268503,0.0759 0.542844,0.0759 0.391081,0 0.566192,-0.12257 0.17511,-0.12842 0.17511,-0.33855 0,-0.11674 -0.06421,-0.21013 -0.06421,-0.0934 -0.233481,-0.18679 -0.163437,-0.0934 -0.472799,-0.21013 -0.303526,-0.11674 -0.519496,-0.23348 -0.21597,-0.11674 -0.332711,-0.28018 -0.11674,-0.16344 -0.11674,-0.42027 0,-0.39692 0.321036,-0.61289 0.326874,-0.21597 0.852207,-0.21597 0.286014,0 0.531169,0.0584 0.250993,0.0525 0.466963,0.15177 l -0.175111,0.40859 q -0.198459,-0.0817 -0.414429,-0.14009 -0.21597,-0.0584 -0.443615,-0.0584 -0.315199,0 -0.484473,0.10507 -0.163437,0.0992 -0.163437,0.27434 0,0.12841 0.07588,0.2218 0.07588,0.0876 0.250993,0.17512 0.180948,0.0817 0.478636,0.19845 0.297689,0.11091 0.507822,0.22765 0.210133,0.11674 0.321036,0.28601 0.110904,0.16344 0.110904,0.41443 z"
             id="path7157" />
          <path
             d="m 72.460856,127.02433 q 0.11674,0 0.239318,-0.0175 0.122578,-0.0234 0.198459,-0.0467 v 0.39108 q -0.08172,0.0409 -0.233481,0.0642 -0.151763,0.0292 -0.291852,0.0292 -0.245155,0 -0.455288,-0.0817 -0.204296,-0.0876 -0.332711,-0.29768 -0.128414,-0.21014 -0.128414,-0.58954 v -1.82116 h -0.443615 v -0.24515 l 0.449452,-0.2043 0.204296,-0.66542 h 0.303525 v 0.71795 h 0.90474 v 0.39692 h -0.90474 v 1.80948 q 0,0.28602 0.134252,0.42611 0.140089,0.13425 0.356059,0.13425 z"
             id="path7159" />
          <path
             d="m 74.708112,124.20504 q 0.572029,0 0.84637,0.25099 0.27434,0.251 0.27434,0.79968 v 2.13051 h -0.37357 l -0.09923,-0.44361 h -0.02335 q -0.204296,0.25683 -0.431941,0.37941 -0.221807,0.12257 -0.618725,0.12257 -0.426103,0 -0.70628,-0.2218 -0.280178,-0.22765 -0.280178,-0.70628 0,-0.46697 0.367733,-0.71796 0.367733,-0.25683 1.132384,-0.28018 l 0.53117,-0.0175 v -0.18678 q 0,-0.39108 -0.169274,-0.54285 -0.169274,-0.15176 -0.478637,-0.15176 -0.245155,0 -0.466962,0.0759 -0.221807,0.07 -0.414429,0.16344 l -0.1576,-0.38525 q 0.204296,-0.1109 0.484473,-0.18678 0.280178,-0.0817 0.583703,-0.0817 z m 0.151763,1.66939 q -0.583703,0.0233 -0.811347,0.18679 -0.221807,0.16343 -0.221807,0.46112 0,0.26267 0.1576,0.38525 0.163436,0.12257 0.414429,0.12257 0.396918,0 0.659584,-0.21597 0.262667,-0.2218 0.262667,-0.67709 v -0.28018 z"
             id="path7161" />
          <path
             d="m 78.257032,124.1992 q 0.08756,0 0.186785,0.0117 0.105066,0.006 0.180948,0.0233 l -0.06421,0.4728 q -0.07588,-0.0175 -0.169273,-0.0292 -0.08756,-0.0117 -0.169274,-0.0117 -0.239319,0 -0.449452,0.13425 -0.210133,0.12841 -0.338547,0.36773 -0.122578,0.23348 -0.122578,0.54868 v 1.66939 h -0.513659 v -3.12865 h 0.420266 l 0.05837,0.57203 h 0.02335 q 0.151763,-0.25683 0.391081,-0.44361 0.239318,-0.18679 0.566192,-0.18679 z"
             id="path7163" />
          <path
             d="m 80.253297,127.02433 q 0.11674,0 0.239318,-0.0175 0.122578,-0.0234 0.198459,-0.0467 v 0.39108 q -0.08172,0.0409 -0.233481,0.0642 -0.151763,0.0292 -0.291852,0.0292 -0.245155,0 -0.455288,-0.0817 -0.204296,-0.0876 -0.332711,-0.29768 -0.128414,-0.21014 -0.128414,-0.58954 v -1.82116 h -0.443615 v -0.24515 l 0.449452,-0.2043 0.204296,-0.66542 h 0.303525 v 0.71795 h 0.90474 v 0.39692 h -0.90474 v 1.80948 q 0,0.28602 0.134252,0.42611 0.140089,0.13425 0.356059,0.13425 z"
             id="path7165" />
          <path
             d="m 81.578303,123.08433 q 0.116741,0 0.204296,0.0817 0.09339,0.0759 0.09339,0.24516 0,0.16343 -0.09339,0.24515 -0.08756,0.0817 -0.204296,0.0817 -0.128415,0 -0.21597,-0.0817 -0.08756,-0.0817 -0.08756,-0.24515 0,-0.16928 0.08756,-0.24516 0.08755,-0.0817 0.21597,-0.0817 z m 0.250992,1.17324 v 3.12865 h -0.513658 v -3.12865 z"
             id="path7167" />
          <path
             d="m 84.32754,124.1992 q 0.560355,0 0.84637,0.27434 0.286014,0.26851 0.286014,0.87556 v 2.03712 h -0.507821 v -2.0021 q 0,-0.75298 -0.700444,-0.75298 -0.519496,0 -0.717955,0.29186 -0.198459,0.29185 -0.198459,0.84053 v 1.62269 h -0.513658 v -3.12865 h 0.414429 l 0.07588,0.42611 h 0.02918 q 0.151763,-0.24516 0.420266,-0.3619 0.268504,-0.12258 0.566192,-0.12258 z"
             id="path7169" />
          <path
             d="m 87.537908,124.1992 q 0.309362,0 0.554518,0.11675 0.250992,0.11674 0.426103,0.35605 h 0.02918 l 0.07004,-0.41443 h 0.408592 v 3.18119 q 0,0.67125 -0.344384,1.0098 -0.338548,0.33855 -1.056503,0.33855 -0.688769,0 -1.126547,-0.19846 v -0.4728 q 0.461126,0.24516 1.155732,0.24516 0.402755,0 0.6304,-0.23932 0.233481,-0.23348 0.233481,-0.64207 v -0.12258 q 0,-0.07 0.0058,-0.19846 0.0058,-0.13425 0.01167,-0.18679 h -0.02335 q -0.3152,0.4728 -0.968947,0.4728 -0.607051,0 -0.951436,-0.4261 -0.338548,-0.4261 -0.338548,-1.19075 0,-0.74714 0.338548,-1.18492 0.344385,-0.44362 0.945599,-0.44362 z m 0.07004,0.43194 q -0.391081,0 -0.607051,0.3152 -0.21597,0.30937 -0.21597,0.88723 0,0.57787 0.210133,0.88723 0.21597,0.30353 0.624562,0.30353 0.4728,0 0.68877,-0.251 0.21597,-0.25682 0.21597,-0.82302 v -0.12257 q 0,-0.64208 -0.221807,-0.91642 -0.221807,-0.28018 -0.694607,-0.28018 z"
             id="path7171" />
          <path
             d="m 92.744538,124.1992 q 0.402755,0 0.68877,0.17512 0.291851,0.17511 0.443614,0.49614 0.1576,0.3152 0.1576,0.74131 v 0.30936 h -2.14219 q 0.01167,0.53117 0.268503,0.81135 0.262667,0.27434 0.729629,0.27434 0.297688,0 0.525333,-0.0525 0.233481,-0.0584 0.478636,-0.16343 v 0.44945 q -0.239318,0.10506 -0.472799,0.15176 -0.233482,0.0525 -0.554518,0.0525 -0.443614,0 -0.787999,-0.18094 -0.338548,-0.18095 -0.53117,-0.53701 -0.186785,-0.3619 -0.186785,-0.88139 0,-0.51366 0.169274,-0.88139 0.175111,-0.36774 0.484473,-0.5662 0.3152,-0.19846 0.729629,-0.19846 z m -0.0058,0.42027 q -0.367733,0 -0.583703,0.23932 -0.210133,0.23348 -0.250992,0.65375 h 1.593509 q -0.0058,-0.39692 -0.186785,-0.64208 -0.180948,-0.25099 -0.572029,-0.25099 z"
             id="path7173" />
          <path
             d="m 95.342012,127.38622 h -0.513659 v -4.43614 h 0.513659 z"
             id="path7175" />
          <path
             d="m 96.847963,124.02993 q 0,0.19846 -0.01167,0.37357 -0.0058,0.16927 -0.01751,0.2685 h 0.02919 q 0.134251,-0.19846 0.367732,-0.33271 0.233482,-0.13425 0.601214,-0.13425 0.583703,0 0.933925,0.40859 0.356059,0.40276 0.356059,1.20827 0,0.80551 -0.356059,1.2141 -0.356059,0.40859 -0.933925,0.40859 -0.367732,0 -0.601214,-0.13425 -0.233481,-0.13425 -0.367732,-0.32104 h -0.04086 l -0.105066,0.39692 h -0.367733 v -4.43614 h 0.513659 z m 0.881391,0.60121 q -0.496148,0 -0.688769,0.28602 -0.192622,0.28601 -0.192622,0.88723 v 0.0234 q 0,0.57786 0.186784,0.88722 0.192622,0.30353 0.706281,0.30353 0.420266,0 0.624562,-0.30936 0.210133,-0.30937 0.210133,-0.89307 0,-1.18492 -0.846369,-1.18492 z"
             id="path7177" />
          <path
             d="m 102.64413,125.81606 q 0,0.77633 -0.39692,1.20243 -0.39108,0.4261 -1.06234,0.4261 -0.41443,0 -0.7413,-0.18678 -0.32104,-0.19262 -0.507821,-0.55452 -0.186785,-0.36773 -0.186785,-0.88723 0,-0.77632 0.391086,-1.19659 0.39108,-0.42027 1.06233,-0.42027 0.42611,0 0.74714,0.19263 0.32688,0.18678 0.50783,0.54868 0.18678,0.35606 0.18678,0.87555 z m -2.364,0 q 0,0.55452 0.21597,0.88139 0.22181,0.32104 0.70045,0.32104 0.4728,0 0.6946,-0.32104 0.22181,-0.32687 0.22181,-0.88139 0,-0.55452 -0.22181,-0.86972 -0.2218,-0.3152 -0.70044,-0.3152 -0.47864,0 -0.69461,0.3152 -0.21597,0.3152 -0.21597,0.86972 z"
             id="path7179" />
          <path
             d="m 105.35835,125.6176 q -0.0759,-0.23932 -0.13426,-0.46696 -0.0525,-0.23348 -0.0817,-0.3619 h -0.0233 q -0.0233,0.12842 -0.0759,0.3619 -0.0525,0.22764 -0.13426,0.4728 l -0.56035,1.75695 h -0.5837 l -0.85805,-3.12865 h 0.53117 l 0.43194,1.66939 q 0.0642,0.25099 0.12258,0.50782 0.0584,0.25683 0.0817,0.4261 h 0.0233 q 0.0233,-0.0992 0.0525,-0.24515 0.035,-0.14593 0.0759,-0.30353 0.0409,-0.16343 0.0817,-0.29185 l 0.55452,-1.76278 h 0.56035 l 0.53701,1.76278 q 0.0642,0.19846 0.12258,0.43194 0.0642,0.23348 0.0876,0.40276 h 0.0233 q 0.0175,-0.14593 0.0759,-0.40276 0.0642,-0.25683 0.13425,-0.52533 l 0.43778,-1.66939 h 0.52533 l -0.86971,3.12865 h -0.60122 z"
             id="path7181" />
          <path
             d="m 77.854268,134.68251 h -0.513659 v -4.43614 h 0.513659 z"
             id="path7183" />
          <path
             d="m 81.566616,133.11235 q 0,0.77632 -0.396919,1.20243 -0.391081,0.4261 -1.062339,0.4261 -0.414429,0 -0.741303,-0.18678 -0.321036,-0.19263 -0.507821,-0.55452 -0.186785,-0.36774 -0.186785,-0.88723 0,-0.77633 0.391081,-1.19659 0.391081,-0.42027 1.062339,-0.42027 0.426103,0 0.74714,0.19262 0.326874,0.18679 0.507822,0.54868 0.186785,0.35606 0.186785,0.87556 z m -2.363998,0 q 0,0.55452 0.215971,0.88139 0.221807,0.32104 0.700443,0.32104 0.4728,0 0.694607,-0.32104 0.221807,-0.32687 0.221807,-0.88139 0,-0.55452 -0.221807,-0.86972 -0.221807,-0.3152 -0.700444,-0.3152 -0.478636,0 -0.694606,0.3152 -0.215971,0.3152 -0.215971,0.86972 z"
             id="path7185" />
          <path
             d="m 83.632921,134.74088 q -0.414429,0 -0.741302,-0.16927 -0.321037,-0.16928 -0.507822,-0.52534 -0.180948,-0.35605 -0.180948,-0.91057 0,-0.57787 0.192622,-0.93976 0.192622,-0.3619 0.519496,-0.53117 0.33271,-0.16928 0.752977,-0.16928 0.239318,0 0.461125,0.0525 0.221807,0.0467 0.361896,0.11674 l -0.1576,0.4261 q -0.140089,-0.0525 -0.326874,-0.0992 -0.186785,-0.0467 -0.350222,-0.0467 -0.92225,0 -0.92225,1.18492 0,0.56619 0.221807,0.86972 0.227644,0.29769 0.671258,0.29769 0.25683,0 0.449452,-0.0525 0.198459,-0.0525 0.361895,-0.12841 v 0.45529 q -0.157599,0.0817 -0.350221,0.12257 -0.186785,0.0467 -0.455289,0.0467 z"
             id="path7187" />
          <path
             d="m 86.364649,131.50133 q 0.572029,0 0.846369,0.25099 0.27434,0.25099 0.27434,0.79967 v 2.13052 h -0.37357 l -0.09923,-0.44361 h -0.02335 q -0.204296,0.25683 -0.43194,0.3794 -0.221808,0.12258 -0.618726,0.12258 -0.426103,0 -0.70628,-0.22181 -0.280178,-0.22764 -0.280178,-0.70628 0,-0.46696 0.367733,-0.71795 0.367733,-0.25683 1.132384,-0.28018 l 0.53117,-0.0175 v -0.18679 q 0,-0.39108 -0.169274,-0.54284 -0.169274,-0.15176 -0.478637,-0.15176 -0.245155,0 -0.466962,0.0759 -0.221807,0.07 -0.414429,0.16344 l -0.1576,-0.38525 q 0.204296,-0.1109 0.484474,-0.18678 0.280177,-0.0817 0.583703,-0.0817 z m 0.151762,1.66939 q -0.583703,0.0234 -0.811347,0.18678 -0.221807,0.16344 -0.221807,0.46113 0,0.26267 0.1576,0.38524 0.163437,0.12258 0.414429,0.12258 0.396918,0 0.659584,-0.21597 0.262667,-0.22181 0.262667,-0.67709 v -0.28018 z"
             id="path7189" />
          <path
             d="m 89.499138,134.32061 q 0.116741,0 0.239319,-0.0175 0.122577,-0.0233 0.198459,-0.0467 v 0.39108 q -0.08172,0.0409 -0.233481,0.0642 -0.151763,0.0292 -0.291852,0.0292 -0.245155,0 -0.455288,-0.0817 -0.204296,-0.0876 -0.332711,-0.29769 -0.128415,-0.21013 -0.128415,-0.58954 v -1.82115 h -0.443614 v -0.24516 l 0.449451,-0.20429 0.204296,-0.66542 h 0.303526 v 0.71795 h 0.90474 v 0.39692 h -0.90474 v 1.80948 q 0,0.28601 0.134252,0.4261 0.140088,0.13425 0.356058,0.13425 z"
             id="path7191" />
          <path
             d="m 90.824145,130.38062 q 0.11674,0 0.204296,0.0817 0.09339,0.0759 0.09339,0.24515 0,0.16344 -0.09339,0.24516 -0.08756,0.0817 -0.204296,0.0817 -0.128415,0 -0.21597,-0.0817 -0.08756,-0.0817 -0.08756,-0.24516 0,-0.16927 0.08756,-0.24515 0.08755,-0.0817 0.21597,-0.0817 z m 0.250992,1.17324 v 3.12865 h -0.513659 v -3.12865 z"
             id="path7193" />
          <path
             d="m 94.787485,133.11235 q 0,0.77632 -0.396918,1.20243 -0.391081,0.4261 -1.062339,0.4261 -0.414429,0 -0.741303,-0.18678 -0.321037,-0.19263 -0.507822,-0.55452 -0.186785,-0.36774 -0.186785,-0.88723 0,-0.77633 0.391081,-1.19659 0.391081,-0.42027 1.06234,-0.42027 0.426103,0 0.74714,0.19262 0.326873,0.18679 0.507821,0.54868 0.186785,0.35606 0.186785,0.87556 z m -2.363997,0 q 0,0.55452 0.21597,0.88139 0.221807,0.32104 0.700444,0.32104 0.472799,0 0.694606,-0.32104 0.221807,-0.32687 0.221807,-0.88139 0,-0.55452 -0.221807,-0.86972 -0.221807,-0.3152 -0.700443,-0.3152 -0.478637,0 -0.694607,0.3152 -0.21597,0.3152 -0.21597,0.86972 z"
             id="path7195" />
          <path
             d="m 97.104784,131.49549 q 0.560355,0 0.846369,0.27434 0.286014,0.26851 0.286014,0.87556 v 2.03712 h -0.507821 v -2.0021 q 0,-0.75298 -0.700444,-0.75298 -0.519495,0 -0.717954,0.29185 -0.198459,0.29186 -0.198459,0.84054 v 1.62269 H 95.59883 v -3.12865 h 0.414429 l 0.07588,0.42611 h 0.02919 q 0.151762,-0.24516 0.420266,-0.3619 0.268503,-0.12258 0.566192,-0.12258 z"
             id="path7197" />
        </g>
        <g
           aria-label="offset elbow"
           id="text5657-7"
           style="font-size:5.83703px;line-height:1.25;letter-spacing:0px;stroke-width:0.264583">
          <path
             d="m 104.12332,37.590075 q 0,0.776325 -0.39692,1.202428 -0.39108,0.426104 -1.06234,0.426104 -0.41443,0 -0.7413,-0.186785 -0.32104,-0.192622 -0.50783,-0.554518 -0.18678,-0.367733 -0.18678,-0.887229 0,-0.776325 0.39108,-1.196591 0.39108,-0.420266 1.06234,-0.420266 0.4261,0 0.74714,0.192622 0.32687,0.186785 0.50782,0.548681 0.18679,0.356059 0.18679,0.875554 z m -2.364,0 q 0,0.554518 0.21597,0.881392 0.22181,0.321036 0.70044,0.321036 0.4728,0 0.69461,-0.321036 0.22181,-0.326874 0.22181,-0.881392 0,-0.554518 -0.22181,-0.869717 -0.22181,-0.3152 -0.70044,-0.3152 -0.47864,0 -0.69461,0.3152 -0.21597,0.315199 -0.21597,0.869717 z"
             id="path7132" />
          <path
             d="m 106.37641,36.428506 h -0.788 v 2.73173 h -0.51366 v -2.73173 h -0.54868 v -0.239318 l 0.54868,-0.175111 v -0.180948 q 0,-0.607051 0.2685,-0.869717 0.26851,-0.268504 0.74714,-0.268504 0.18679,0 0.33855,0.03502 0.1576,0.02918 0.2685,0.07004 l -0.13425,0.402755 q -0.0934,-0.02919 -0.21597,-0.05837 -0.12258,-0.02918 -0.25099,-0.02918 -0.25683,0 -0.38524,0.175111 -0.12258,0.169273 -0.12258,0.537006 v 0.204296 h 0.788 z m 2.00793,0 h -0.78799 v 2.73173 h -0.51366 v -2.73173 h -0.54868 v -0.239318 l 0.54868,-0.175111 v -0.180948 q 0,-0.607051 0.2685,-0.869717 0.2685,-0.268504 0.74714,-0.268504 0.18679,0 0.33855,0.03502 0.1576,0.02918 0.2685,0.07004 l -0.13425,0.402755 q -0.0934,-0.02919 -0.21597,-0.05837 -0.12258,-0.02918 -0.25099,-0.02918 -0.25683,0 -0.38525,0.175111 -0.12257,0.169273 -0.12257,0.537006 v 0.204296 h 0.78799 z"
             id="path7134" />
          <path
             d="m 110.98766,38.296356 q 0,0.455288 -0.33855,0.688769 -0.33855,0.233482 -0.91058,0.233482 -0.32687,0 -0.56619,-0.05253 -0.23348,-0.05253 -0.41443,-0.145925 v -0.466963 q 0.18679,0.09339 0.44945,0.175111 0.26851,0.07588 0.54285,0.07588 0.39108,0 0.56619,-0.122578 0.17511,-0.128415 0.17511,-0.338548 0,-0.11674 -0.0642,-0.210133 -0.0642,-0.09339 -0.23348,-0.186785 -0.16343,-0.09339 -0.4728,-0.210133 -0.30352,-0.116741 -0.51949,-0.233481 -0.21597,-0.116741 -0.33271,-0.280178 -0.11674,-0.163436 -0.11674,-0.420266 0,-0.396918 0.32103,-0.612888 0.32688,-0.21597 0.85221,-0.21597 0.28601,0 0.53117,0.05837 0.25099,0.05253 0.46696,0.151763 l -0.17511,0.408592 q -0.19846,-0.08172 -0.41443,-0.140089 -0.21597,-0.05837 -0.44361,-0.05837 -0.3152,0 -0.48448,0.105067 -0.16343,0.09923 -0.16343,0.27434 0,0.128415 0.0759,0.221807 0.0759,0.08756 0.25099,0.175111 0.18095,0.08172 0.47864,0.198459 0.29769,0.110904 0.50782,0.227644 0.21013,0.116741 0.32104,0.286015 0.1109,0.163437 0.1109,0.414429 z"
             id="path7136" />
          <path
             d="m 112.95474,35.973218 q 0.40275,0 0.68877,0.175111 0.29185,0.175111 0.44361,0.496147 0.1576,0.3152 0.1576,0.741303 v 0.309363 h -2.14219 q 0.0117,0.53117 0.2685,0.811347 0.26267,0.27434 0.72963,0.27434 0.29769,0 0.52534,-0.05253 0.23348,-0.05837 0.47863,-0.163437 v 0.449452 q -0.23932,0.105066 -0.4728,0.151762 -0.23348,0.05253 -0.55451,0.05253 -0.44362,0 -0.788,-0.180948 -0.33855,-0.180948 -0.53117,-0.537007 -0.18679,-0.361896 -0.18679,-0.881392 0,-0.513658 0.16928,-0.881391 0.17511,-0.367733 0.48447,-0.566192 0.3152,-0.198459 0.72963,-0.198459 z m -0.006,0.420266 q -0.36773,0 -0.5837,0.239318 -0.21014,0.233482 -0.25099,0.653748 h 1.5935 q -0.006,-0.396918 -0.18678,-0.642074 -0.18095,-0.250992 -0.57203,-0.250992 z"
             id="path7138" />
          <path
             d="m 116.08338,38.798341 q 0.11674,0 0.23932,-0.01751 0.12258,-0.02335 0.19846,-0.0467 v 0.391081 q -0.0817,0.04086 -0.23348,0.06421 -0.15177,0.02918 -0.29185,0.02918 -0.24516,0 -0.45529,-0.08172 -0.2043,-0.08756 -0.33271,-0.297688 -0.12842,-0.210133 -0.12842,-0.58954 V 36.4285 h -0.44361 v -0.245155 l 0.44945,-0.204296 0.20429,-0.665421 h 0.30353 v 0.717954 h 0.90474 V 36.4285 h -0.90474 v 1.80948 q 0,0.286014 0.13425,0.426103 0.14009,0.134252 0.35606,0.134252 z"
             id="path7140" />
          <path
             d="m 119.87161,35.973218 q 0.40276,0 0.68877,0.175111 0.29186,0.175111 0.44362,0.496147 0.1576,0.3152 0.1576,0.741303 v 0.309363 h -2.14219 q 0.0117,0.53117 0.2685,0.811347 0.26267,0.27434 0.72963,0.27434 0.29769,0 0.52533,-0.05253 0.23348,-0.05837 0.47864,-0.163437 v 0.449452 q -0.23932,0.105066 -0.4728,0.151762 -0.23348,0.05253 -0.55452,0.05253 -0.44361,0 -0.788,-0.180948 -0.33854,-0.180948 -0.53117,-0.537007 -0.18678,-0.361896 -0.18678,-0.881392 0,-0.513658 0.16927,-0.881391 0.17511,-0.367733 0.48448,-0.566192 0.3152,-0.198459 0.72962,-0.198459 z m -0.006,0.420266 q -0.36774,0 -0.58371,0.239318 -0.21013,0.233482 -0.25099,0.653748 h 1.59351 q -0.006,-0.396918 -0.18678,-0.642074 -0.18095,-0.250992 -0.57203,-0.250992 z"
             id="path7142" />
          <path
             d="m 122.46909,39.160236 h -0.51366 v -4.436142 h 0.51366 z"
             id="path7144" />
          <path
             d="m 123.97504,35.803944 q 0,0.198459 -0.0117,0.37357 -0.006,0.169274 -0.0175,0.268503 h 0.0292 q 0.13425,-0.198459 0.36773,-0.33271 0.23348,-0.134252 0.60122,-0.134252 0.5837,0 0.93392,0.408592 0.35606,0.402755 0.35606,1.208265 0,0.80551 -0.35606,1.214103 -0.35606,0.408592 -0.93392,0.408592 -0.36774,0 -0.60122,-0.134252 -0.23348,-0.134252 -0.36773,-0.321037 h -0.0409 l -0.10507,0.396918 h -0.36773 v -4.436142 h 0.51366 z m 0.88139,0.601214 q -0.49615,0 -0.68877,0.286015 -0.19262,0.286014 -0.19262,0.887228 v 0.02335 q 0,0.577866 0.18678,0.887229 0.19263,0.303525 0.70628,0.303525 0.42027,0 0.62457,-0.309362 0.21013,-0.309363 0.21013,-0.893066 0,-1.184917 -0.84637,-1.184917 z"
             id="path7146" />
          <path
             d="m 129.77121,37.590075 q 0,0.776325 -0.39692,1.202428 -0.39108,0.426104 -1.06234,0.426104 -0.41443,0 -0.7413,-0.186785 -0.32104,-0.192622 -0.50782,-0.554518 -0.18679,-0.367733 -0.18679,-0.887229 0,-0.776325 0.39108,-1.196591 0.39108,-0.420266 1.06234,-0.420266 0.42611,0 0.74714,0.192622 0.32688,0.186785 0.50782,0.548681 0.18679,0.356059 0.18679,0.875554 z m -2.364,0 q 0,0.554518 0.21597,0.881392 0.22181,0.321036 0.70045,0.321036 0.4728,0 0.6946,-0.321036 0.22181,-0.326874 0.22181,-0.881392 0,-0.554518 -0.22181,-0.869717 -0.2218,-0.3152 -0.70044,-0.3152 -0.47864,0 -0.69461,0.3152 -0.21597,0.315199 -0.21597,0.869717 z"
             id="path7148" />
          <path
             d="m 132.48542,37.391616 q -0.0759,-0.239318 -0.13425,-0.466962 -0.0525,-0.233481 -0.0817,-0.361896 h -0.0233 q -0.0233,0.128415 -0.0759,0.361896 -0.0525,0.227644 -0.13425,0.472799 l -0.56035,1.756946 h -0.58371 l -0.85804,-3.128648 h 0.53117 l 0.43194,1.669391 q 0.0642,0.250992 0.12258,0.507821 0.0584,0.25683 0.0817,0.426104 h 0.0233 q 0.0234,-0.09923 0.0525,-0.245156 0.035,-0.145925 0.0759,-0.303525 0.0409,-0.163437 0.0817,-0.291852 l 0.55451,-1.762783 h 0.56036 l 0.53701,1.762783 q 0.0642,0.198459 0.12257,0.431941 0.0642,0.233481 0.0876,0.402755 h 0.0233 q 0.0175,-0.145926 0.0759,-0.402755 0.0642,-0.25683 0.13425,-0.525333 l 0.43778,-1.669391 h 0.52533 l -0.86972,3.128648 h -0.60121 z"
             id="path7150" />
        </g>
        <g
           id="g6154"
           transform="matrix(0.1203221,0,0,0.1203221,133.68519,165.81729)"
           style="stroke-width:8.31101">
          <path
             id="rect5987"
             style="stroke-linecap:round;stroke-dasharray:8.31101, 24.9331;stop-color:#000000"
             d="m 160.93665,68.750931 h 18.08873 v 18.08873 h -18.08873 z" />
          <path
             id="rect5987-0"
             style="stroke-linecap:round;stroke-dasharray:8.31101, 24.9331;stop-color:#000000"
             d="m 160.93665,86.839661 h 18.08873 v 18.088729 h -18.08873 z" />
          <path
             id="rect5987-0-6"
             style="stroke-linecap:round;stroke-dasharray:8.31101, 24.9331;stop-color:#000000"
             d="m 179.02538,104.92839 h 18.08873 v 18.08873 h -18.08873 z" />
          <path
             id="rect5987-3"
             style="stroke-linecap:round;stroke-dasharray:8.31101, 24.9331;stop-color:#000000"
             d="m 179.02538,68.750931 h 18.08873 v 18.08873 h -18.08873 z" />
          <path
             id="rect5987-3-6"
             style="stroke-linecap:round;stroke-dasharray:8.31101, 24.9331;stop-color:#000000"
             d="m 197.11411,68.750931 h 18.08873 v 18.08873 h -18.08873 z" />
        </g>
        <g
           aria-label="offset"
           id="text6238"
           style="font-size:10.5833px;line-height:1.25;letter-spacing:0px;stroke-width:0.264583">
          <path
             d="m 82.453392,55.848401 q 0,1.407579 -0.719664,2.18016 -0.709081,0.772581 -1.926161,0.772581 -0.751414,0 -1.344079,-0.338666 -0.582081,-0.349249 -0.920747,-1.005413 -0.338666,-0.666748 -0.338666,-1.608662 0,-1.407579 0.709082,-2.169576 0.709081,-0.761998 1.92616,-0.761998 0.772581,0 1.354662,0.349249 0.592665,0.338666 0.920748,0.99483 0.338665,0.645581 0.338665,1.587495 z m -4.286236,0 q 0,1.005414 0.391582,1.598078 0.402165,0.582082 1.269996,0.582082 0.857247,0 1.259412,-0.582082 0.402166,-0.592664 0.402166,-1.598078 0,-1.005413 -0.402166,-1.576912 -0.402165,-0.571498 -1.269995,-0.571498 -0.867831,0 -1.259413,0.571498 -0.391582,0.571499 -0.391582,1.576912 z"
             id="path7020" />
          <path
             d="m 86.538541,53.742324 h -1.428745 v 4.952985 h -0.931331 v -4.952985 h -0.99483 v -0.433915 l 0.99483,-0.317499 v -0.328082 q 0,-1.100663 0.486832,-1.576912 0.486832,-0.486832 1.354662,-0.486832 0.338666,0 0.613832,0.0635 0.285749,0.05292 0.486832,0.127 l -0.243416,0.730248 q -0.169333,-0.05292 -0.391582,-0.105833 -0.22225,-0.05292 -0.455082,-0.05292 -0.465665,0 -0.698498,0.317499 -0.222249,0.306916 -0.222249,0.973664 v 0.370415 h 1.428745 z m 3.640655,0 h -1.428745 v 4.952985 H 87.81912 v -4.952985 h -0.99483 v -0.433915 l 0.99483,-0.317499 v -0.328082 q 0,-1.100663 0.486832,-1.576912 0.486832,-0.486832 1.354663,-0.486832 0.338665,0 0.613831,0.0635 0.285749,0.05292 0.486832,0.127 l -0.243416,0.730248 q -0.169333,-0.05292 -0.391582,-0.105833 -0.22225,-0.05292 -0.455082,-0.05292 -0.465665,0 -0.698498,0.317499 -0.222249,0.306916 -0.222249,0.973664 v 0.370415 h 1.428745 z"
             id="path7022" />
          <path
             d="m 94.899344,57.12898 q 0,0.825498 -0.613831,1.24883 -0.613831,0.423332 -1.650995,0.423332 -0.592664,0 -1.02658,-0.09525 -0.423332,-0.09525 -0.751414,-0.264583 v -0.846663 q 0.338666,0.169332 0.814914,0.317499 0.486832,0.137582 0.984247,0.137582 0.709081,0 1.02658,-0.222249 0.317499,-0.232832 0.317499,-0.613831 0,-0.211666 -0.116416,-0.380999 -0.116417,-0.169333 -0.423332,-0.338666 -0.296333,-0.169332 -0.857248,-0.380998 -0.550331,-0.211666 -0.941913,-0.423332 -0.391582,-0.211666 -0.603248,-0.507999 -0.211666,-0.296332 -0.211666,-0.761997 0,-0.719665 0.582081,-1.111247 0.592665,-0.391582 1.545162,-0.391582 0.518582,0 0.96308,0.105833 0.455082,0.09525 0.846664,0.275166 l -0.317499,0.740831 q -0.359832,-0.148166 -0.751414,-0.253999 -0.391582,-0.105833 -0.804331,-0.105833 -0.571498,0 -0.878414,0.190499 -0.296332,0.179916 -0.296332,0.497415 0,0.232833 0.137583,0.402166 0.137583,0.158749 0.455082,0.317499 0.328082,0.148166 0.86783,0.359832 0.539748,0.201082 0.920747,0.412748 0.380999,0.211666 0.582082,0.518582 0.201082,0.296332 0.201082,0.751414 z"
             id="path7024" />
          <path
             d="m 98.465919,52.916827 q 0.730247,0 1.248829,0.317499 0.529162,0.317499 0.804332,0.899581 0.28575,0.571498 0.28575,1.344079 V 56.0389 h -3.884073 q 0.02117,0.963081 0.486832,1.471079 0.476248,0.497415 1.322912,0.497415 0.539748,0 0.952497,-0.09525 0.423332,-0.105833 0.867832,-0.296333 v 0.814914 q -0.43392,0.1905 -0.857249,0.275166 -0.423332,0.09525 -1.005413,0.09525 -0.804331,0 -1.428746,-0.328083 -0.613831,-0.328082 -0.96308,-0.973663 -0.338665,-0.656165 -0.338665,-1.598078 0,-0.931331 0.306915,-1.598079 0.317499,-0.666748 0.878414,-1.02658 0.571498,-0.359832 1.322913,-0.359831 z m -0.01058,0.761998 q -0.666748,0 -1.05833,0.433915 -0.380998,0.423332 -0.455082,1.18533 h 2.889241 q -0.01058,-0.719665 -0.338665,-1.164163 -0.328083,-0.455082 -1.037164,-0.455082 z"
             id="path7026" />
          <path
             d="m 104.13856,58.039144 q 0.21166,0 0.43391,-0.03175 0.22225,-0.04233 0.35983,-0.08467 v 0.709081 q -0.14816,0.07408 -0.42333,0.116416 -0.27516,0.05292 -0.52916,0.05292 -0.4445,0 -0.8255,-0.148167 -0.37041,-0.158749 -0.60325,-0.539748 -0.23283,-0.380999 -0.23283,-1.068913 v -3.30199 h -0.80433 v -0.444498 l 0.81491,-0.370416 0.37042,-1.206496 h 0.55033 v 1.301746 h 1.64041 v 0.719664 h -1.64041 v 3.280823 q 0,0.518582 0.24342,0.772581 0.254,0.243416 0.64558,0.243416 z"
             id="path7028" />
        </g>
        <g
           aria-label="elbow depth"
           id="text6238-3"
           style="font-size:10.5833px;line-height:1.25;letter-spacing:0px;stroke-width:0.264583">
          <path
             d="m 131.68172,53.142794 q 0.73025,0 1.24883,0.317499 0.52917,0.317499 0.80433,0.899581 0.28575,0.571498 0.28575,1.344079 v 0.560915 h -3.88407 q 0.0212,0.96308 0.48683,1.471079 0.47625,0.497415 1.32292,0.497415 0.53974,0 0.95249,-0.09525 0.42334,-0.105833 0.86783,-0.296332 v 0.814914 q -0.43391,0.190499 -0.85724,0.275165 -0.42334,0.09525 -1.00542,0.09525 -0.80433,0 -1.42874,-0.328082 -0.61383,-0.328082 -0.96308,-0.973664 -0.33867,-0.656164 -0.33867,-1.598078 0,-0.93133 0.30692,-1.598078 0.3175,-0.666748 0.87841,-1.02658 0.5715,-0.359833 1.32291,-0.359833 z m -0.0106,0.761998 q -0.66675,0 -1.05833,0.433915 -0.381,0.423332 -0.45508,1.18533 h 2.88924 q -0.0106,-0.719664 -0.33867,-1.164163 -0.32808,-0.455082 -1.03716,-0.455082 z"
             id="path6995" />
          <path
             d="m 136.39128,58.921276 h -0.93133 v -8.043308 h 0.93133 z"
             id="path6997" />
          <path
             d="m 139.12177,52.835879 q 0,0.359832 -0.0212,0.677331 -0.0106,0.306916 -0.0317,0.486832 h 0.0529 q 0.24341,-0.359832 0.66675,-0.603248 0.42333,-0.243416 1.09008,-0.243416 1.05833,0 1.69332,0.740831 0.64559,0.730247 0.64559,2.190743 0,1.460495 -0.64559,2.201326 -0.64558,0.740831 -1.69332,0.740831 -0.66675,0 -1.09008,-0.243416 -0.42334,-0.243416 -0.66675,-0.582081 h -0.0741 l -0.1905,0.719664 h -0.66675 v -8.043308 h 0.93133 z m 1.59808,1.09008 q -0.89958,0 -1.24883,0.518581 -0.34925,0.518582 -0.34925,1.608662 v 0.04233 q 0,1.047747 0.33866,1.608662 0.34925,0.550331 1.28058,0.550331 0.762,0 1.13242,-0.560915 0.38099,-0.560915 0.38099,-1.619245 0,-2.148409 -1.53457,-2.148409 z"
             id="path6999" />
          <path
             d="m 149.63098,56.074368 q 0,1.407579 -0.71966,2.18016 -0.70908,0.772581 -1.92616,0.772581 -0.75142,0 -1.34408,-0.338665 -0.58208,-0.349249 -0.92075,-1.005414 -0.33866,-0.666748 -0.33866,-1.608662 0,-1.407578 0.70908,-2.169576 0.70908,-0.761998 1.92616,-0.761998 0.77258,0 1.35466,0.349249 0.59266,0.338666 0.92075,0.994831 0.33866,0.645581 0.33866,1.587494 z m -4.28623,0 q 0,1.005414 0.39158,1.598079 0.40216,0.582081 1.26999,0.582081 0.85725,0 1.25942,-0.582081 0.40216,-0.592665 0.40216,-1.598079 0,-1.005413 -0.40216,-1.576911 -0.40217,-0.571498 -1.27,-0.571498 -0.86783,0 -1.25941,0.571498 -0.39158,0.571498 -0.39158,1.576911 z"
             id="path7001" />
          <path
             d="m 154.55221,55.714536 q -0.13759,-0.433915 -0.24342,-0.846664 -0.0952,-0.423332 -0.14817,-0.656164 h -0.0423 q -0.0423,0.232832 -0.13758,0.656164 -0.0952,0.412749 -0.24342,0.857248 l -1.01599,3.185573 H 151.663 l -1.55575,-5.672649 h 0.96308 l 0.78317,3.026824 q 0.11641,0.455082 0.22224,0.920747 0.10584,0.465665 0.14817,0.772581 h 0.0423 q 0.0423,-0.179916 0.0952,-0.444499 0.0635,-0.264582 0.13759,-0.550331 0.0741,-0.296333 0.14816,-0.529165 l 1.00542,-3.196157 h 1.01599 l 0.97367,3.196157 q 0.11641,0.359832 0.22225,0.783164 0.11641,0.423332 0.15875,0.730248 h 0.0423 q 0.0318,-0.264583 0.13758,-0.730248 0.11642,-0.465665 0.24342,-0.952497 l 0.79374,-3.026824 h 0.9525 l -1.57691,5.672649 h -1.09008 z"
             id="path7003" />
          <path
             d="m 163.97134,59.027109 q -1.05833,0 -1.69333,-0.730248 -0.635,-0.740831 -0.635,-2.201326 0,-1.460495 0.635,-2.201326 0.64558,-0.751415 1.70391,-0.751415 0.65617,0 1.06892,0.243416 0.42333,0.243416 0.68791,0.592665 h 0.0635 q -0.0106,-0.137583 -0.0423,-0.402165 -0.0212,-0.275166 -0.0212,-0.433916 v -2.264826 h 0.93133 v 8.043308 h -0.75141 l -0.13759,-0.761997 h -0.0423 q -0.254,0.359832 -0.67733,0.613831 -0.42333,0.253999 -1.09008,0.253999 z m 0.14817,-0.772581 q 0.89958,0 1.25941,-0.486832 0.37041,-0.497415 0.37041,-1.492245 v -0.169333 q 0,-1.05833 -0.34924,-1.619244 -0.34925,-0.571499 -1.29117,-0.571499 -0.75141,0 -1.13241,0.603248 -0.37042,0.592665 -0.37042,1.598079 0,1.015996 0.37042,1.576911 0.381,0.560915 1.143,0.560915 z"
             id="path7005" />
          <path
             d="m 170.65998,53.142794 q 0.73025,0 1.24883,0.317499 0.52917,0.317499 0.80433,0.899581 0.28575,0.571498 0.28575,1.344079 v 0.560915 h -3.88407 q 0.0212,0.96308 0.48683,1.471079 0.47625,0.497415 1.32292,0.497415 0.53974,0 0.95249,-0.09525 0.42334,-0.105833 0.86783,-0.296332 v 0.814914 q -0.43391,0.190499 -0.85724,0.275165 -0.42334,0.09525 -1.00542,0.09525 -0.80433,0 -1.42874,-0.328082 -0.61383,-0.328082 -0.96308,-0.973664 -0.33867,-0.656164 -0.33867,-1.598078 0,-0.93133 0.30692,-1.598078 0.3175,-0.666748 0.87841,-1.02658 0.5715,-0.359833 1.32291,-0.359833 z m -0.0106,0.761998 q -0.66675,0 -1.05833,0.433915 -0.381,0.423332 -0.45508,1.18533 h 2.88924 q -0.0106,-0.719664 -0.33867,-1.164163 -0.32808,-0.455082 -1.03716,-0.455082 z"
             id="path7007" />
          <path
             d="m 177.13695,53.142794 q 1.04775,0 1.68275,0.730248 0.64558,0.730248 0.64558,2.201326 0,1.449913 -0.64558,2.201327 -0.635,0.751414 -1.69333,0.751414 -0.65616,0 -1.09008,-0.243416 -0.42333,-0.253999 -0.66675,-0.582081 h -0.0635 q 0.0212,0.179916 0.0423,0.455082 0.0212,0.275165 0.0212,0.476248 v 2.328326 h -0.93133 v -8.212641 h 0.762 l 0.127,0.772581 h 0.0423 q 0.254,-0.370415 0.66675,-0.624414 0.41275,-0.254 1.10066,-0.254 z m -0.16933,0.783165 q -0.86783,0 -1.22766,0.486831 -0.34925,0.486832 -0.37042,1.481662 v 0.179916 q 0,1.047747 0.33867,1.619245 0.34925,0.560915 1.28058,0.560915 0.51858,0 0.84666,-0.285749 0.33867,-0.285749 0.49742,-0.772581 0.16933,-0.497415 0.16933,-1.132413 0,-0.973663 -0.381,-1.555745 -0.37042,-0.582081 -1.15358,-0.582081 z"
             id="path7009" />
          <path
             d="m 182.84135,58.265112 q 0.21167,0 0.43392,-0.03175 0.22225,-0.04233 0.35983,-0.08467 v 0.709081 q -0.14817,0.07408 -0.42333,0.116417 -0.27517,0.05292 -0.52917,0.05292 -0.4445,0 -0.8255,-0.148166 -0.37041,-0.15875 -0.60324,-0.539748 -0.23284,-0.380999 -0.23284,-1.068914 v -3.301989 h -0.80433 v -0.444499 l 0.81492,-0.370415 0.37041,-1.206496 h 0.55033 v 1.301745 h 1.64041 v 0.719665 h -1.64041 v 3.280823 q 0,0.518581 0.24342,0.772581 0.254,0.243416 0.64558,0.243415 z"
             id="path7011" />
          <path
             d="m 185.69884,53.238044 q 0,0.423332 -0.0529,0.793748 h 0.0635 q 0.27516,-0.433916 0.74083,-0.656165 0.47624,-0.222249 1.02658,-0.222249 1.03716,0 1.55574,0.497415 0.51858,0.486832 0.51858,1.576912 v 3.693571 h -0.92074 v -3.630072 q 0,-1.365245 -1.27,-1.365245 -0.9525,0 -1.31233,0.539748 -0.34925,0.529165 -0.34925,1.523995 v 2.931574 h -0.93133 v -8.043308 h 0.93133 z"
             id="path7013" />
        </g>
        <path
           style="font-variation-settings:normal;fill:none;fill-opacity:1;stroke:#000000;stroke-width:0.999999;stroke-linecap:butt;stroke-linejoin:miter;stroke-miterlimit:4;stroke-dasharray:none;stroke-dashoffset:0;stroke-opacity:1;marker-start:url(#Stop-2);marker-end:url(#Stop-2);stop-color:#000000"
           d="m 121.07349,52.809413 13.41987,14.088601"
           id="path6240-2" />
        <g
           aria-label="separation"
           id="text8454"
           style="font-size:10.5833px;line-height:1.25;letter-spacing:0px;stroke-width:0.264583">
          <path
             d="m 118.10517,75.787256 q 0,0.825497 -0.61383,1.248829 -0.61383,0.423332 -1.651,0.423332 -0.59266,0 -1.02658,-0.09525 -0.42333,-0.09525 -0.75141,-0.264583 v -0.846664 q 0.33866,0.169333 0.81491,0.317499 0.48683,0.137583 0.98425,0.137583 0.70908,0 1.02658,-0.222249 0.3175,-0.232833 0.3175,-0.613832 0,-0.211666 -0.11642,-0.380998 -0.11641,-0.169333 -0.42333,-0.338666 -0.29633,-0.169333 -0.85725,-0.380999 -0.55033,-0.211666 -0.94191,-0.423332 -0.39158,-0.211666 -0.60325,-0.507998 -0.21167,-0.296333 -0.21167,-0.761998 0,-0.719664 0.58209,-1.111246 0.59266,-0.391582 1.54516,-0.391582 0.51858,0 0.96308,0.105833 0.45508,0.09525 0.84666,0.275165 l -0.3175,0.740831 q -0.35983,-0.148166 -0.75141,-0.253999 -0.39158,-0.105833 -0.80433,-0.105833 -0.5715,0 -0.87842,0.1905 -0.29633,0.179916 -0.29633,0.497415 0,0.232832 0.13758,0.402165 0.13759,0.15875 0.45509,0.317499 0.32808,0.148166 0.86783,0.359832 0.53975,0.201083 0.92074,0.412749 0.381,0.211666 0.58209,0.518582 0.20108,0.296332 0.20108,0.751414 z"
             id="path8936" />
          <path
             d="m 121.67174,71.575103 q 0.73025,0 1.24883,0.317499 0.52917,0.317499 0.80433,0.89958 0.28575,0.571498 0.28575,1.344079 v 0.560915 h -3.88407 q 0.0212,0.96308 0.48683,1.471079 0.47625,0.497415 1.32291,0.497415 0.53975,0 0.9525,-0.09525 0.42333,-0.105833 0.86783,-0.296332 v 0.814914 q -0.43391,0.190499 -0.85725,0.275166 -0.42333,0.09525 -1.00541,0.09525 -0.80433,0 -1.42875,-0.328082 -0.61383,-0.328082 -0.96308,-0.973664 -0.33866,-0.656164 -0.33866,-1.598078 0,-0.93133 0.30691,-1.598078 0.3175,-0.666748 0.87842,-1.02658 0.5715,-0.359832 1.32291,-0.359832 z m -0.0106,0.761997 q -0.66675,0 -1.05833,0.433916 -0.381,0.423332 -0.45508,1.185329 h 2.88924 q -0.0106,-0.719664 -0.33867,-1.164163 -0.32808,-0.455082 -1.03716,-0.455082 z"
             id="path8938" />
          <path
             d="m 128.14871,71.575103 q 1.04775,0 1.68275,0.730247 0.64558,0.730248 0.64558,2.201327 0,1.449912 -0.64558,2.201326 -0.635,0.751414 -1.69333,0.751414 -0.65617,0 -1.09008,-0.243416 -0.42333,-0.253999 -0.66675,-0.582081 h -0.0635 q 0.0212,0.179916 0.0423,0.455082 0.0212,0.275166 0.0212,0.476248 v 2.328326 h -0.93133 v -8.21264 h 0.762 l 0.127,0.772581 h 0.0423 q 0.254,-0.370416 0.66675,-0.624415 0.41275,-0.253999 1.10066,-0.253999 z m -0.16933,0.783164 q -0.86783,0 -1.22766,0.486832 -0.34925,0.486831 -0.37042,1.481662 v 0.179916 q 0,1.047746 0.33867,1.619245 0.34925,0.560914 1.28058,0.560914 0.51858,0 0.84666,-0.285749 0.33867,-0.285749 0.49741,-0.772581 0.16934,-0.497415 0.16934,-1.132413 0,-0.973663 -0.381,-1.555745 -0.37042,-0.582081 -1.15358,-0.582081 z"
             id="path8940" />
          <path
             d="m 134.10711,71.585686 q 1.03716,0 1.53458,0.455082 0.49741,0.455082 0.49741,1.449912 v 3.862904 h -0.67733 l -0.17992,-0.80433 h -0.0423 q -0.37042,0.465665 -0.78316,0.687914 -0.40217,0.222249 -1.12183,0.222249 -0.77259,0 -1.28058,-0.402165 -0.508,-0.412749 -0.508,-1.280579 0,-0.846664 0.66675,-1.301746 0.66674,-0.465665 2.05316,-0.507999 l 0.96308,-0.03175 v -0.338666 q 0,-0.709081 -0.30692,-0.984247 -0.30691,-0.275166 -0.86783,-0.275166 -0.4445,0 -0.84666,0.137583 -0.40217,0.127 -0.75142,0.296333 l -0.28575,-0.698498 q 0.37042,-0.201083 0.87842,-0.338666 0.508,-0.148166 1.05833,-0.148166 z m 0.27516,3.026824 q -1.05833,0.04233 -1.47108,0.338665 -0.40216,0.296333 -0.40216,0.836081 0,0.476248 0.28575,0.698498 0.29633,0.222249 0.75141,0.222249 0.71967,0 1.19591,-0.391582 0.47625,-0.402165 0.47625,-1.227663 V 74.58076 Z"
             id="path8942" />
          <path
             d="m 140.54176,71.575103 q 0.15875,0 0.33867,0.02117 0.1905,0.01058 0.32808,0.04233 l -0.11642,0.857248 q -0.13758,-0.03175 -0.30691,-0.05292 -0.15875,-0.02117 -0.30692,-0.02117 -0.43391,0 -0.81491,0.243416 -0.381,0.232832 -0.61383,0.666747 -0.22225,0.423332 -0.22225,0.994831 v 3.026823 h -0.93133 v -5.672648 h 0.762 l 0.10583,1.037163 h 0.0423 q 0.27517,-0.465665 0.70908,-0.804331 0.43392,-0.338665 1.02658,-0.338665 z"
             id="path8944" />
          <path
             d="m 144.20358,71.585686 q 1.03716,0 1.53458,0.455082 0.49741,0.455082 0.49741,1.449912 v 3.862904 h -0.67733 l -0.17991,-0.80433 h -0.0423 q -0.37041,0.465665 -0.78316,0.687914 -0.40217,0.222249 -1.12183,0.222249 -0.77258,0 -1.28058,-0.402165 -0.508,-0.412749 -0.508,-1.280579 0,-0.846664 0.66675,-1.301746 0.66675,-0.465665 2.05316,-0.507999 l 0.96308,-0.03175 v -0.338666 q 0,-0.709081 -0.30692,-0.984247 -0.30691,-0.275166 -0.86783,-0.275166 -0.44449,0 -0.84666,0.137583 -0.40217,0.127 -0.75141,0.296333 l -0.28575,-0.698498 q 0.37041,-0.201083 0.87841,-0.338666 0.508,-0.148166 1.05833,-0.148166 z m 0.27517,3.026824 q -1.05833,0.04233 -1.47108,0.338665 -0.40217,0.296333 -0.40217,0.836081 0,0.476248 0.28575,0.698498 0.29633,0.222249 0.75142,0.222249 0.71966,0 1.19591,-0.391582 0.47625,-0.402165 0.47625,-1.227663 V 74.58076 Z"
             id="path8946" />
          <path
             d="m 149.88682,76.69742 q 0.21167,0 0.43392,-0.03175 0.22225,-0.04233 0.35983,-0.08467 v 0.709081 q -0.14817,0.07408 -0.42333,0.116417 -0.27517,0.05292 -0.52917,0.05292 -0.4445,0 -0.8255,-0.148166 -0.37041,-0.158749 -0.60324,-0.539748 -0.23284,-0.380999 -0.23284,-1.068913 V 72.4006 h -0.80433 v -0.444499 l 0.81492,-0.370415 0.37041,-1.206496 h 0.55033 v 1.301746 h 1.64042 V 72.4006 h -1.64042 v 3.280823 q 0,0.518582 0.24342,0.772581 0.254,0.243416 0.64558,0.243416 z"
             id="path8948" />
          <path
             d="m 152.28923,69.553692 q 0.21167,0 0.37042,0.148167 0.16933,0.137583 0.16933,0.444498 0,0.296333 -0.16933,0.444499 -0.15875,0.148166 -0.37042,0.148166 -0.23283,0 -0.39158,-0.148166 -0.15875,-0.148166 -0.15875,-0.444499 0,-0.306915 0.15875,-0.444498 0.15875,-0.148167 0.39158,-0.148167 z m 0.45508,2.127244 v 5.672648 h -0.93133 v -5.672648 z"
             id="path8950" />
          <path
             d="m 159.47528,74.506677 q 0,1.407579 -0.71966,2.180159 -0.70908,0.772581 -1.92616,0.772581 -0.75141,0 -1.34408,-0.338665 -0.58208,-0.349249 -0.92075,-1.005414 -0.33866,-0.666748 -0.33866,-1.608661 0,-1.407579 0.70908,-2.169577 0.70908,-0.761997 1.92616,-0.761997 0.77258,0 1.35466,0.349249 0.59267,0.338665 0.92075,0.99483 0.33866,0.645581 0.33866,1.587495 z m -4.28623,0 q 0,1.005413 0.39158,1.598078 0.40217,0.582081 1.27,0.582081 0.85724,0 1.25941,-0.582081 0.40216,-0.592665 0.40216,-1.598078 0,-1.005414 -0.40216,-1.576912 -0.40217,-0.571498 -1.27,-0.571498 -0.86783,0 -1.25941,0.571498 -0.39158,0.571498 -0.39158,1.576912 z"
             id="path8952" />
          <path
             d="m 163.67685,71.575103 q 1.016,0 1.53458,0.497415 0.51858,0.486832 0.51858,1.587495 v 3.693571 h -0.92075 v -3.630071 q 0,-1.365246 -1.26999,-1.365246 -0.94192,0 -1.30175,0.529165 -0.35983,0.529165 -0.35983,1.523995 v 2.942157 h -0.93133 v -5.672648 h 0.75141 l 0.13759,0.772581 h 0.0529 q 0.27517,-0.444499 0.762,-0.656165 0.48683,-0.222249 1.02658,-0.222249 z"
             id="path8954" />
        </g>
        <path
           style="font-variation-settings:normal;fill:none;fill-opacity:1;stroke:#000000;stroke-width:1;stroke-linecap:butt;stroke-linejoin:miter;stroke-miterlimit:4;stroke-dasharray:none;stroke-dashoffset:0;stroke-opacity:1;marker-start:url(#Stop-9);marker-end:url(#Stop-9);stop-color:#000000"
           d="M 96.347042,165.14406 66.595917,135.39293"
           id="path6401" />
        <g
           aria-label="max depth"
           id="text6558"
           style="font-size:10.5833px;line-height:1.25;letter-spacing:0px;stroke-width:0.264583"
           transform="translate(10.797754,-10.050609)">
          <path
             d="m 18.839708,161.99739 q 0.96308,0 1.439329,0.49742 0.476248,0.48683 0.476248,1.58749 v 3.69357 h -0.920747 v -3.65124 q 0,-1.34407 -1.15358,-1.34407 -0.825497,0 -1.185329,0.47624 -0.349249,0.47625 -0.349249,1.38642 v 3.13265 h -0.920747 v -3.65124 q 0,-1.34407 -1.164163,-1.34407 -0.857247,0 -1.18533,0.52916 -0.328082,0.52917 -0.328082,1.524 v 2.94215 h -0.93133 v -5.67265 h 0.751414 l 0.137583,0.77259 h 0.05292 q 0.264583,-0.4445 0.709082,-0.65617 0.455081,-0.22225 0.96308,-0.22225 1.333496,0 1.735661,0.9525 h 0.05292 q 0.28575,-0.48683 0.772581,-0.71967 0.497415,-0.23283 1.047747,-0.23283 z"
             id="path6949" />
          <path
             d="m 24.660517,162.00797 q 1.037163,0 1.534578,0.45509 0.497415,0.45508 0.497415,1.44991 v 3.8629 h -0.677331 l -0.179916,-0.80433 h -0.04233 q -0.370416,0.46567 -0.783164,0.68792 -0.402166,0.22225 -1.12183,0.22225 -0.772581,0 -1.280579,-0.40217 -0.507999,-0.41275 -0.507999,-1.28058 0,-0.84666 0.666748,-1.30174 0.666748,-0.46567 2.05316,-0.508 l 0.96308,-0.0318 v -0.33867 q 0,-0.70908 -0.306915,-0.98425 -0.306916,-0.27516 -0.867831,-0.27516 -0.444498,0 -0.846664,0.13758 -0.402165,0.127 -0.751414,0.29633 l -0.285749,-0.69849 q 0.370415,-0.20109 0.878414,-0.33867 0.507998,-0.14817 1.05833,-0.14817 z m 0.275165,3.02683 q -1.05833,0.0423 -1.471078,0.33866 -0.402166,0.29634 -0.402166,0.83608 0,0.47625 0.28575,0.6985 0.296332,0.22225 0.751414,0.22225 0.719664,0 1.195913,-0.39158 0.476248,-0.40217 0.476248,-1.22766 v -0.508 z"
             id="path6951" />
          <path
             d="m 29.793426,164.87605 -1.957911,-2.77283 h 1.05833 l 1.460495,2.13783 1.449912,-2.13783 h 1.047747 l -1.95791,2.77283 2.063743,2.89982 h -1.05833 l -1.545162,-2.26482 -1.566328,2.26482 h -1.047747 z"
             id="path6953" />
          <path
             d="m 38.810393,167.88171 q -1.05833,0 -1.693328,-0.73025 -0.634998,-0.74083 -0.634998,-2.20133 0,-1.46049 0.634998,-2.20132 0.645581,-0.75142 1.703911,-0.75142 0.656165,0 1.068914,0.24342 0.423332,0.24341 0.687914,0.59266 h 0.0635 q -0.01058,-0.13758 -0.04233,-0.40216 -0.02117,-0.27517 -0.02117,-0.43392 v -2.26482 h 0.931331 v 8.0433 H 40.75772 l -0.137583,-0.76199 h -0.04233 q -0.253999,0.35983 -0.677331,0.61383 -0.423332,0.254 -1.09008,0.254 z m 0.148166,-0.77258 q 0.899581,0 1.259413,-0.48684 0.370415,-0.49741 0.370415,-1.49224 v -0.16933 q 0,-1.05833 -0.349248,-1.61925 -0.349249,-0.5715 -1.291163,-0.5715 -0.751414,0 -1.132413,0.60325 -0.370416,0.59267 -0.370416,1.59808 0,1.016 0.370416,1.57691 0.380999,0.56092 1.142996,0.56092 z"
             id="path6955" />
          <path
             d="m 45.499035,161.99739 q 0.730248,0 1.24883,0.3175 0.529165,0.3175 0.80433,0.89958 0.28575,0.5715 0.28575,1.34408 v 0.56091 h -3.884071 q 0.02117,0.96309 0.486831,1.47108 0.476249,0.49742 1.322913,0.49742 0.539748,0 0.952497,-0.0952 0.423332,-0.10583 0.86783,-0.29633 v 0.81491 q -0.433915,0.1905 -0.857247,0.27517 -0.423332,0.0953 -1.005413,0.0953 -0.804331,0 -1.428746,-0.32809 -0.613831,-0.32808 -0.96308,-0.97366 -0.338666,-0.65616 -0.338666,-1.59808 0,-0.93133 0.306916,-1.59808 0.317499,-0.66674 0.878414,-1.02658 0.571498,-0.35983 1.322912,-0.35983 z m -0.01058,0.762 q -0.666748,0 -1.05833,0.43391 -0.380999,0.42334 -0.455082,1.18533 h 2.889241 q -0.01058,-0.71966 -0.338666,-1.16416 -0.328082,-0.45508 -1.037163,-0.45508 z"
             id="path6957" />
          <path
             d="m 51.976007,161.99739 q 1.047747,0 1.682745,0.73025 0.645581,0.73025 0.645581,2.20133 0,1.44991 -0.645581,2.20132 -0.634998,0.75142 -1.693328,0.75142 -0.656165,0 -1.09008,-0.24342 -0.423332,-0.254 -0.666748,-0.58208 h -0.0635 q 0.02117,0.17991 0.04233,0.45508 0.02117,0.27517 0.02117,0.47625 v 2.32832 h -0.931331 v -8.21264 h 0.761998 l 0.127,0.77259 h 0.04233 q 0.253999,-0.37042 0.666748,-0.62442 0.412748,-0.254 1.100663,-0.254 z m -0.169333,0.78317 q -0.86783,0 -1.227663,0.48683 -0.349249,0.48683 -0.370415,1.48166 v 0.17992 q 0,1.04774 0.338665,1.61924 0.349249,0.56092 1.28058,0.56092 0.518581,0 0.846664,-0.28575 0.338665,-0.28575 0.497415,-0.77258 0.169333,-0.49742 0.169333,-1.13242 0,-0.97366 -0.380999,-1.55574 -0.370416,-0.58208 -1.15358,-0.58208 z"
             id="path6959" />
          <path
             d="m 57.680404,167.11971 q 0.211666,0 0.433915,-0.0318 0.22225,-0.0423 0.359833,-0.0847 v 0.70908 q -0.148167,0.0741 -0.423332,0.11642 -0.275166,0.0529 -0.529165,0.0529 -0.444499,0 -0.825498,-0.14817 -0.370415,-0.15875 -0.603248,-0.53975 -0.232832,-0.381 -0.232832,-1.06891 v -3.30199 h -0.804331 v -0.4445 l 0.814914,-0.37042 0.370415,-1.20649 h 0.550332 v 1.30174 h 1.640411 v 0.71967 h -1.640411 v 3.28082 q 0,0.51858 0.243416,0.77258 0.253999,0.24342 0.645581,0.24342 z"
             id="path6961" />
          <path
             d="m 60.537896,162.09264 q 0,0.42333 -0.05292,0.79375 h 0.0635 q 0.275166,-0.43392 0.740831,-0.65617 0.476249,-0.22225 1.02658,-0.22225 1.037163,0 1.555745,0.49742 0.518582,0.48683 0.518582,1.57691 v 3.69357 h -0.920747 v -3.63007 q 0,-1.36524 -1.269996,-1.36524 -0.952497,0 -1.312329,0.53974 -0.349249,0.52917 -0.349249,1.524 v 2.93157 h -0.931331 v -8.0433 h 0.931331 z"
             id="path6963" />
        </g>
      </g>
      <g
         aria-label="elbow ash cloud"
         id="text8609"
         style="font-size:7.35109px;line-height:1.25;letter-spacing:0px;fill:#0000ff;stroke-width:0.264583">
        <path
           d="m 127.51175,96.837158 q 0.50722,0 0.86742,0.220533 0.36756,0.220532 0.55869,0.624842 0.19848,0.396959 0.19848,0.933589 v 0.389607 h -2.69785 q 0.0147,0.66895 0.33815,1.021801 0.3308,0.3455 0.91888,0.3455 0.37491,0 0.6616,-0.0662 0.29404,-0.0735 0.60279,-0.20583 v 0.56604 q -0.30139,0.13232 -0.59544,0.19112 -0.29404,0.0662 -0.69835,0.0662 -0.55868,0 -0.9924,-0.22788 -0.42636,-0.22788 -0.66895,-0.6763 -0.23523,-0.455768 -0.23523,-1.110015 0,-0.646896 0.21318,-1.110014 0.22053,-0.463119 0.61014,-0.713056 0.39696,-0.249937 0.91889,-0.249937 z m -0.007,0.529278 q -0.46311,0 -0.73511,0.301395 -0.26463,0.294044 -0.31609,0.823322 h 2.00685 q -0.007,-0.499874 -0.23524,-0.80862 -0.22788,-0.316097 -0.72041,-0.316097 z"
           id="path8909" />
        <path
           d="m 130.78297,100.85085 h -0.64689 v -5.586825 h 0.64689 z"
           id="path8911" />
        <path
           d="m 132.67955,96.623976 q 0,0.249937 -0.0147,0.47047 -0.007,0.213182 -0.0221,0.33815 h 0.0368 q 0.16908,-0.249937 0.46312,-0.419012 0.29404,-0.169075 0.75716,-0.169075 0.73511,0 1.17618,0.514576 0.44841,0.507225 0.44841,1.521676 0,1.01445 -0.44841,1.529029 -0.44842,0.51457 -1.17618,0.51457 -0.46312,0 -0.75716,-0.16907 -0.29404,-0.16908 -0.46312,-0.40431 h -0.0515 l -0.13232,0.49987 h -0.46312 v -5.586825 h 0.6469 z m 1.11002,0.757163 q -0.62485,0 -0.86743,0.360203 -0.24259,0.360203 -0.24259,1.117366 v 0.0294 q 0,0.727758 0.23524,1.117368 0.24258,0.38225 0.88948,0.38225 0.52928,0 0.78656,-0.389603 0.26464,-0.389608 0.26464,-1.124717 0,-1.492271 -1.0659,-1.492271 z"
           id="path8913" />
        <path
           d="m 139.97918,98.87341 q 0,0.977695 -0.49987,1.51432 -0.49253,0.53663 -1.3379,0.53663 -0.52193,0 -0.93359,-0.23523 -0.40431,-0.24259 -0.63954,-0.698355 -0.23524,-0.463118 -0.23524,-1.117365 0,-0.977695 0.49252,-1.506974 0.49253,-0.529278 1.3379,-0.529278 0.53663,0 0.94094,0.242586 0.41166,0.235235 0.63955,0.691002 0.23523,0.448417 0.23523,1.102664 z m -2.97719,0 q 0,0.698353 0.27199,1.110014 0.27934,0.404306 0.88213,0.404306 0.59544,0 0.87478,-0.404306 0.27934,-0.411661 0.27934,-1.110014 0,-0.698354 -0.27934,-1.095313 -0.27934,-0.396958 -0.88213,-0.396958 -0.60279,0 -0.87478,0.396958 -0.27199,0.396959 -0.27199,1.095313 z"
           id="path8915" />
        <path
           d="m 143.39743,98.623473 q -0.0956,-0.301395 -0.16907,-0.588087 -0.0662,-0.294044 -0.10292,-0.455768 h -0.0294 q -0.0294,0.161724 -0.0956,0.455768 -0.0662,0.286692 -0.16907,0.595438 l -0.70571,2.212676 h -0.73511 l -1.08061,-3.940182 h 0.66895 l 0.54398,2.102411 q 0.0809,0.316097 0.15438,0.639545 0.0735,0.323448 0.10291,0.536626 h 0.0294 q 0.0294,-0.12496 0.0662,-0.308742 0.0441,-0.183777 0.0956,-0.382257 0.0515,-0.20583 0.10292,-0.367554 l 0.69835,-2.220029 h 0.7057 l 0.6763,2.220029 q 0.0809,0.249937 0.15438,0.54398 0.0809,0.294044 0.11026,0.507223 h 0.0294 q 0.022,-0.183775 0.0956,-0.507223 0.0809,-0.323447 0.16908,-0.661598 l 0.55133,-2.102411 h 0.6616 l -1.09532,3.940182 h -0.75716 z"
           id="path8917" />
        <path
           d="m 150.03546,96.844509 q 0.72041,0 1.06591,0.316097 0.3455,0.316097 0.3455,1.007099 v 2.683145 h -0.47047 l -0.12497,-0.55868 h -0.0294 q -0.25729,0.32345 -0.54398,0.47782 -0.27934,0.15437 -0.77922,0.15437 -0.53663,0 -0.88948,-0.27934 -0.35285,-0.28669 -0.35285,-0.889479 0,-0.588088 0.46312,-0.904185 0.46312,-0.323447 1.42611,-0.352852 l 0.66895,-0.02205 v -0.235235 q 0,-0.492523 -0.21318,-0.683651 -0.21319,-0.191129 -0.60279,-0.191129 -0.30875,0 -0.58809,0.09556 -0.27934,0.08821 -0.52193,0.205831 l -0.19848,-0.485172 q 0.25729,-0.139671 0.61014,-0.235235 0.35286,-0.102915 0.73511,-0.102915 z m 0.19113,2.102412 q -0.73511,0.0294 -1.0218,0.235235 -0.27934,0.20583 -0.27934,0.580736 0,0.330798 0.19848,0.485168 0.20583,0.15438 0.52192,0.15438 0.49988,0 0.83068,-0.27199 0.3308,-0.279345 0.3308,-0.85273 v -0.352853 z"
           id="path8919" />
        <path
           d="m 155.23269,99.762892 q 0,0.573388 -0.42636,0.867428 -0.42637,0.29404 -1.14677,0.29404 -0.41166,0 -0.71306,-0.0662 -0.29404,-0.0662 -0.52193,-0.18377 v -0.58809 q 0.23524,0.11762 0.56604,0.22053 0.33815,0.0956 0.68365,0.0956 0.49252,0 0.71305,-0.15438 0.22054,-0.16172 0.22054,-0.42636 0,-0.147021 -0.0809,-0.264639 -0.0809,-0.117617 -0.29404,-0.235235 -0.20583,-0.117617 -0.59544,-0.264639 -0.38225,-0.147022 -0.65424,-0.294044 -0.27199,-0.147021 -0.41902,-0.352852 -0.14702,-0.20583 -0.14702,-0.529278 0,-0.499874 0.40431,-0.771865 0.41166,-0.27199 1.07326,-0.27199 0.3602,0 0.66895,0.07351 0.3161,0.06616 0.58809,0.191128 l -0.22054,0.514576 q -0.24993,-0.102915 -0.52192,-0.176426 -0.27199,-0.07351 -0.55869,-0.07351 -0.39695,0 -0.61014,0.13232 -0.20583,0.124968 -0.20583,0.345501 0,0.161724 0.0956,0.279342 0.0956,0.110266 0.31609,0.220532 0.22789,0.102916 0.60279,0.249937 0.37491,0.139671 0.63955,0.286693 0.26464,0.147022 0.40431,0.360203 0.13967,0.205831 0.13967,0.521928 z"
           id="path8921" />
        <path
           d="m 156.83523,96.903318 q 0,0.294043 -0.0368,0.551331 h 0.0441 q 0.19113,-0.301394 0.51457,-0.455767 0.3308,-0.154373 0.71306,-0.154373 0.72041,0 1.08061,0.345501 0.3602,0.33815 0.3602,1.095313 v 2.565527 h -0.63954 v -2.521421 q 0,-0.94829 -0.88213,-0.94829 -0.6616,0 -0.91154,0.374905 -0.24258,0.367555 -0.24258,1.058557 v 2.036249 h -0.6469 v -5.586825 h 0.6469 z"
           id="path8923" />
        <path
           d="m 164.22308,100.92436 q -0.52193,0 -0.93359,-0.21318 -0.40431,-0.21318 -0.63955,-0.6616 -0.22788,-0.448412 -0.22788,-1.146766 0,-0.727758 0.24259,-1.183525 0.24258,-0.455768 0.65424,-0.66895 0.41901,-0.213181 0.94829,-0.213181 0.3014,0 0.58074,0.06616 0.27934,0.05881 0.45577,0.147021 l -0.19848,0.53663 q -0.17643,-0.06616 -0.41166,-0.124969 -0.23524,-0.05881 -0.44107,-0.05881 -1.16147,0 -1.16147,1.492271 0,0.713056 0.27934,1.095312 0.28669,0.374905 0.84538,0.374905 0.32344,0 0.56603,-0.0662 0.24994,-0.0662 0.45577,-0.16172 v 0.57338 q -0.19848,0.10292 -0.44107,0.15438 -0.23523,0.0588 -0.57338,0.0588 z"
           id="path8925" />
        <path
           d="m 166.81801,100.85085 h -0.6469 v -5.586825 h 0.6469 z"
           id="path8927" />
        <path
           d="m 171.49329,98.87341 q 0,0.977695 -0.49987,1.51432 -0.49252,0.53663 -1.3379,0.53663 -0.52192,0 -0.93359,-0.23523 -0.40431,-0.24259 -0.63954,-0.698355 -0.23524,-0.463118 -0.23524,-1.117365 0,-0.977695 0.49253,-1.506974 0.49252,-0.529278 1.3379,-0.529278 0.53663,0 0.94094,0.242586 0.41166,0.235235 0.63954,0.691002 0.23523,0.448417 0.23523,1.102664 z m -2.97719,0 q 0,0.698353 0.27199,1.110014 0.27935,0.404306 0.88213,0.404306 0.59544,0 0.87478,-0.404306 0.27935,-0.411661 0.27935,-1.110014 0,-0.698354 -0.27935,-1.095313 -0.27934,-0.396958 -0.88213,-0.396958 -0.60279,0 -0.87478,0.396958 -0.27199,0.396959 -0.27199,1.095313 z"
           id="path8929" />
        <path
           d="m 175.80838,96.910669 v 3.940181 h -0.52928 l -0.0956,-0.52192 h -0.0294 q -0.19113,0.30874 -0.52928,0.45576 -0.33815,0.13967 -0.72041,0.13967 -0.71306,0 -1.07326,-0.33815 -0.3602,-0.3455 -0.3602,-1.095309 v -2.580232 h 0.65424 v 2.536126 q 0,0.940935 0.87478,0.940935 0.65425,0 0.90419,-0.36755 0.25729,-0.367555 0.25729,-1.058557 v -2.050954 z"
           id="path8931" />
        <path
           d="m 178.45477,100.92436 q -0.73511,0 -1.17617,-0.50722 -0.44107,-0.514578 -0.44107,-1.529028 0,-1.01445 0.44107,-1.529027 0.44842,-0.521927 1.18352,-0.521927 0.45577,0 0.74246,0.169075 0.29405,0.169075 0.47783,0.411661 h 0.0441 q -0.007,-0.09556 -0.0294,-0.279341 -0.0147,-0.191129 -0.0147,-0.301395 v -1.573133 h 0.64689 v 5.586825 h -0.52193 l -0.0956,-0.52928 h -0.0294 q -0.17643,0.24994 -0.47047,0.42637 -0.29405,0.17642 -0.75717,0.17642 z m 0.10292,-0.53663 q 0.62484,0 0.87478,-0.33815 0.25729,-0.345497 0.25729,-1.0365 v -0.117617 q 0,-0.735109 -0.24259,-1.124717 -0.24259,-0.396959 -0.89683,-0.396959 -0.52193,0 -0.78657,0.419013 -0.25729,0.411661 -0.25729,1.110014 0,0.705705 0.25729,1.095313 0.26464,0.389603 0.79392,0.389603 z"
           id="path8933" />
      </g>
    </g>
  </g>
</svg>
