<?xml version="1.0" encoding="UTF-8" standalone="no"?>
<!-- Created with Inkscape (http://www.inkscape.org/) -->

<svg
   width="220.43256mm"
   height="241.4231mm"
   viewBox="0 0 220.43256 241.4231"
   version="1.1"
   id="svg5"
   inkscape:version="1.2.2 (b0a8486541, 2022-12-01)"
   sodipodi:docname="diagram2.svg"
   xmlns:inkscape="http://www.inkscape.org/namespaces/inkscape"
   xmlns:sodipodi="http://sodipodi.sourceforge.net/DTD/sodipodi-0.dtd"
   xmlns="http://www.w3.org/2000/svg"
   xmlns:svg="http://www.w3.org/2000/svg">
  <sodipodi:namedview
     id="namedview7"
     pagecolor="#ffffff"
     bordercolor="#666666"
     borderopacity="1.0"
     inkscape:showpageshadow="2"
     inkscape:pageopacity="0.0"
     inkscape:pagecheckerboard="0"
     inkscape:deskcolor="#d1d1d1"
     inkscape:document-units="mm"
     showgrid="false"
     inkscape:zoom="0.4204826"
     inkscape:cx="858.53731"
     inkscape:cy="444.72708"
     inkscape:window-width="1086"
     inkscape:window-height="720"
     inkscape:window-x="0"
     inkscape:window-y="0"
     inkscape:window-maximized="1"
     inkscape:current-layer="g7686" />
  <defs
     id="defs2">
    <marker
       style="overflow:visible"
       id="Stop"
       refX="0"
       refY="0"
       orient="auto"
       inkscape:stockid="Stop"
       markerWidth="1"
       markerHeight="8"
       viewBox="0 0 1 8"
       inkscape:isstock="true"
       inkscape:collect="always"
       preserveAspectRatio="xMidYMid">
      <path
         style="fill:none;stroke:context-stroke;stroke-width:1"
         d="M 0,4 V -4"
         id="path171" />
    </marker>
  </defs>
  <g
     inkscape:label="Layer 1"
     inkscape:groupmode="layer"
     id="layer1"
     transform="translate(7.5721493,3.3305333)">
    <g
       aria-label="separation"
       id="text6254"
       style="font-size:10.5833px;line-height:1.25;letter-spacing:0px;stroke-width:0.264583" />
    <g
       id="g7877">
      <rect
         style="fill:#ffffff;stroke:none;stroke-width:0.999997;stroke-linecap:round;stroke-dasharray:0.999997, 0.999997;stroke-dashoffset:0;stop-color:#000000"
         id="rect7718"
         width="220.43256"
         height="241.4231"
         x="-7.5721493"
         y="-3.3305333" />
      <g
         id="g7686">
        <path
           id="rect234"
           style="fill:#ff0000;stroke-linecap:round;stroke-dasharray:1, 3;stop-color:#000000"
           d="m 84.601692,105.84213 h 11.745353 v 11.54503 H 84.601692 Z" />
        <path
           id="rect234-3"
           style="stroke-linecap:round;stop-color:#000000"
           d="m 109.32814,41.15728 h 11.74535 v 11.54503 h -11.74535 z" />
        <path
           style="font-variation-settings:normal;opacity:1;fill:none;fill-opacity:1;stroke:#000000;stroke-width:1;stroke-linecap:butt;stroke-linejoin:miter;stroke-miterlimit:4;stroke-dasharray:1, 1;stroke-dashoffset:0;stroke-opacity:1;stop-color:#000000;stop-opacity:1"
           d="M 96.347046,105.84213 160.93665,41.252525"
           id="path1333" />
        <path
           style="font-variation-settings:normal;fill:none;fill-opacity:1;stroke:#000000;stroke-width:1;stroke-linecap:butt;stroke-linejoin:miter;stroke-miterlimit:4;stroke-dasharray:1, 1;stroke-dashoffset:0;stroke-opacity:1;stop-color:#000000"
           d="M 20.012086,181.97677 84.601692,117.38716"
           id="path1333-6" />
        <path
           style="font-variation-settings:normal;fill:none;fill-opacity:1;stroke:#000000;stroke-width:1;stroke-linecap:butt;stroke-linejoin:miter;stroke-miterlimit:4;stroke-dasharray:1, 1;stroke-dashoffset:0;stroke-opacity:1;stop-color:#000000"
           d="m 96.347043,117.38716 56.702387,56.70239"
           id="path1333-6-7" />
        <path
           style="font-variation-settings:normal;fill:none;fill-opacity:1;stroke:#000000;stroke-width:1;stroke-linecap:butt;stroke-linejoin:miter;stroke-miterlimit:4;stroke-dasharray:1, 1;stroke-dashoffset:0;stroke-opacity:1;stop-color:#000000"
           d="m 40.061653,61.30209 44.540036,44.54004"
           id="path1333-6-7-5" />
        <g
           aria-label="lane axis"
           transform="rotate(-45)"
           id="text1420"
           style="font-size:10.5833px;line-height:1.25;letter-spacing:0px;stroke-width:0.264583">
          <path
             d="m 89.582444,146.991 h -0.93133 v -8.04331 h 0.93133 z"
             id="path7237" />
          <path
             d="m 93.530009,141.2231 q 1.037163,0 1.534578,0.45508 0.497416,0.45508 0.497416,1.44991 v 3.86291 h -0.677332 l -0.179916,-0.80433 h -0.04233 q -0.370415,0.46566 -0.783164,0.68791 -0.402165,0.22225 -1.12183,0.22225 -0.772581,0 -1.280579,-0.40217 -0.507999,-0.41274 -0.507999,-1.28057 0,-0.84667 0.666748,-1.30175 0.666748,-0.46567 2.05316,-0.508 l 0.963081,-0.0318 v -0.33866 q 0,-0.70909 -0.306916,-0.98425 -0.306916,-0.27517 -0.86783,-0.27517 -0.444499,0 -0.846664,0.13759 -0.402166,0.127 -0.751415,0.29633 l -0.285749,-0.6985 q 0.370416,-0.20108 0.878414,-0.33866 0.507998,-0.14817 1.05833,-0.14817 z m 0.275166,3.02682 q -1.05833,0.0423 -1.471079,0.33867 -0.402165,0.29633 -0.402165,0.83608 0,0.47625 0.285749,0.6985 0.296332,0.22225 0.751414,0.22225 0.719664,0 1.195913,-0.39159 0.476248,-0.40216 0.476248,-1.22766 v -0.508 z"
             id="path7239" />
          <path
             d="m 100.04933,141.21252 q 1.016,0 1.53458,0.49741 0.51858,0.48683 0.51858,1.5875 v 3.69357 h -0.92075 v -3.63007 q 0,-1.36525 -1.269993,-1.36525 -0.941914,0 -1.301746,0.52916 -0.359832,0.52917 -0.359832,1.524 v 2.94216 h -0.93133 v -5.67265 h 0.751414 l 0.137583,0.77258 h 0.05292 q 0.275166,-0.4445 0.761998,-0.65616 0.486832,-0.22225 1.026576,-0.22225 z"
             id="path7241" />
          <path
             d="m 106.05006,141.21252 q 0.73025,0 1.24883,0.31749 0.52917,0.3175 0.80433,0.89959 0.28575,0.57149 0.28575,1.34407 v 0.56092 h -3.88407 q 0.0212,0.96308 0.48683,1.47108 0.47625,0.49741 1.32291,0.49741 0.53975,0 0.9525,-0.0952 0.42333,-0.10583 0.86783,-0.29633 v 0.81491 q -0.43391,0.1905 -0.85725,0.27517 -0.42333,0.0953 -1.00541,0.0953 -0.80433,0 -1.42874,-0.32808 -0.61384,-0.32808 -0.96309,-0.97367 -0.33866,-0.65616 -0.33866,-1.59807 0,-0.93133 0.30691,-1.59808 0.3175,-0.66675 0.87842,-1.02658 0.5715,-0.35983 1.32291,-0.35983 z m -0.0106,0.76199 q -0.66675,0 -1.05833,0.43392 -0.381,0.42333 -0.45508,1.18533 h 2.88924 q -0.0106,-0.71967 -0.33867,-1.16416 -0.32808,-0.45509 -1.03716,-0.45509 z"
             id="path7243" />
          <path
             d="m 114.72836,141.2231 q 1.03716,0 1.53458,0.45508 0.49741,0.45508 0.49741,1.44991 v 3.86291 h -0.67733 l -0.17991,-0.80433 h -0.0423 q -0.37041,0.46566 -0.78316,0.68791 -0.40217,0.22225 -1.12183,0.22225 -0.77258,0 -1.28058,-0.40217 -0.508,-0.41274 -0.508,-1.28057 0,-0.84667 0.66675,-1.30175 0.66675,-0.46567 2.05316,-0.508 l 0.96308,-0.0318 v -0.33866 q 0,-0.70909 -0.30692,-0.98425 -0.30691,-0.27517 -0.86783,-0.27517 -0.44449,0 -0.84666,0.13759 -0.40217,0.127 -0.75141,0.29633 l -0.28575,-0.6985 q 0.37041,-0.20108 0.87841,-0.33866 0.508,-0.14817 1.05833,-0.14817 z m 0.27517,3.02682 q -1.05833,0.0423 -1.47108,0.33867 -0.40217,0.29633 -0.40217,0.83608 0,0.47625 0.28575,0.6985 0.29633,0.22225 0.75142,0.22225 0.71966,0 1.19591,-0.39159 0.47625,-0.40216 0.47625,-1.22766 v -0.508 z"
             id="path7245" />
          <path
             d="m 119.86127,144.09117 -1.95791,-2.77282 h 1.05833 l 1.4605,2.13783 1.44991,-2.13783 h 1.04774 l -1.95791,2.77282 2.06375,2.89983 h -1.05833 l -1.54516,-2.26483 -1.56633,2.26483 h -1.04775 z"
             id="path7247" />
          <path
             d="m 124.592,139.19111 q 0.21166,0 0.37041,0.14816 0.16933,0.13758 0.16933,0.4445 0,0.29633 -0.16933,0.4445 -0.15875,0.14817 -0.37041,0.14817 -0.23284,0 -0.39159,-0.14817 -0.15875,-0.14817 -0.15875,-0.4445 0,-0.30692 0.15875,-0.4445 0.15875,-0.14816 0.39159,-0.14816 z m 0.45508,2.12724 v 5.67265 h -0.93133 v -5.67265 z"
             id="path7249" />
          <path
             d="m 130.53981,145.42467 q 0,0.8255 -0.61383,1.24883 -0.61384,0.42333 -1.651,0.42333 -0.59266,0 -1.02658,-0.0953 -0.42333,-0.0952 -0.75141,-0.26458 v -0.84667 q 0.33866,0.16934 0.81491,0.3175 0.48683,0.13759 0.98425,0.13759 0.70908,0 1.02658,-0.22225 0.3175,-0.23284 0.3175,-0.61383 0,-0.21167 -0.11642,-0.381 -0.11642,-0.16934 -0.42333,-0.33867 -0.29633,-0.16933 -0.85725,-0.381 -0.55033,-0.21166 -0.94191,-0.42333 -0.39158,-0.21167 -0.60325,-0.508 -0.21167,-0.29633 -0.21167,-0.762 0,-0.71966 0.58209,-1.11124 0.59266,-0.39158 1.54516,-0.39158 0.51858,0 0.96308,0.10583 0.45508,0.0952 0.84666,0.27516 l -0.3175,0.74084 q -0.35983,-0.14817 -0.75141,-0.254 -0.39158,-0.10584 -0.80433,-0.10584 -0.5715,0 -0.87842,0.1905 -0.29633,0.17992 -0.29633,0.49742 0,0.23283 0.13758,0.40216 0.13759,0.15875 0.45509,0.3175 0.32808,0.14817 0.86783,0.35983 0.53974,0.20109 0.92074,0.41275 0.381,0.21167 0.58208,0.51858 0.20109,0.29634 0.20109,0.75142 z"
             id="path7251" />
        </g>
        <g
           aria-label="depth axis"
           transform="rotate(45)"
           id="text1420-3"
           style="font-size:10.5833px;line-height:1.25;letter-spacing:0px;stroke-width:0.264583">
          <path
             d="m 20.684667,17.961414 q -1.05833,0 -1.693328,-0.730247 -0.634998,-0.740831 -0.634998,-2.201327 0,-1.460495 0.634998,-2.201326 0.645581,-0.751414 1.703911,-0.751414 0.656165,0 1.068914,0.243416 0.423332,0.243415 0.687914,0.592664 h 0.0635 q -0.01058,-0.137583 -0.04233,-0.402165 -0.02117,-0.275166 -0.02117,-0.433915 V 9.8122736 h 0.93133 v 8.0433074 h -0.751414 l -0.137583,-0.761997 h -0.04233 q -0.253999,0.359832 -0.677331,0.613831 -0.423332,0.253999 -1.09008,0.253999 z m 0.148166,-0.772581 q 0.899581,0 1.259413,-0.486831 0.370415,-0.497415 0.370415,-1.492246 v -0.169332 q 0,-1.05833 -0.349249,-1.619245 -0.349248,-0.571498 -1.291162,-0.571498 -0.751414,0 -1.132413,0.603248 -0.370416,0.592664 -0.370416,1.598078 0,1.015997 0.370416,1.576912 0.380999,0.560914 1.142996,0.560914 z"
             id="path7214" />
          <path
             d="m 27.37331,12.0771 q 0.730248,0 1.248829,0.317499 0.529165,0.317499 0.804331,0.89958 0.285749,0.571498 0.285749,1.344079 v 0.560915 h -3.884071 q 0.02117,0.96308 0.486832,1.471079 0.476249,0.497415 1.322913,0.497415 0.539748,0 0.952497,-0.09525 0.423332,-0.105833 0.86783,-0.296332 v 0.814914 q -0.433915,0.190499 -0.857247,0.275166 -0.423332,0.09525 -1.005414,0.09525 -0.80433,0 -1.428745,-0.328082 -0.613831,-0.328082 -0.96308,-0.973664 -0.338666,-0.656164 -0.338666,-1.598078 0,-0.93133 0.306916,-1.598078 0.317499,-0.666748 0.878414,-1.02658 Q 26.621896,12.0771 27.37331,12.0771 Z m -0.01058,0.761997 q -0.666748,0 -1.05833,0.433916 -0.380999,0.423332 -0.455082,1.185329 h 2.889241 q -0.01058,-0.719664 -0.338666,-1.164163 -0.328082,-0.455082 -1.037163,-0.455082 z"
             id="path7216" />
          <path
             d="m 33.850281,12.0771 q 1.047746,0 1.682744,0.730247 0.645582,0.730248 0.645582,2.201327 0,1.449912 -0.645582,2.201326 -0.634998,0.751414 -1.693328,0.751414 -0.656164,0 -1.090079,-0.243416 -0.423332,-0.253999 -0.666748,-0.582081 h -0.0635 q 0.02117,0.179916 0.04233,0.455082 0.02117,0.275166 0.02117,0.476248 v 2.328326 h -0.931331 v -8.21264 h 0.761998 l 0.126999,0.772581 h 0.04233 q 0.253999,-0.370416 0.666748,-0.624415 0.412748,-0.253999 1.100663,-0.253999 z m -0.169333,0.783164 q -0.867831,0 -1.227663,0.486832 -0.349249,0.486831 -0.370415,1.481662 v 0.179916 q 0,1.047746 0.338665,1.619245 0.349249,0.560914 1.28058,0.560914 0.518581,0 0.846663,-0.285749 0.338666,-0.285749 0.497416,-0.772581 0.169332,-0.497415 0.169332,-1.132413 0,-0.973663 -0.380998,-1.555745 -0.370416,-0.582081 -1.15358,-0.582081 z"
             id="path7218" />
          <path
             d="m 39.554678,17.199417 q 0.211666,0 0.433915,-0.03175 0.22225,-0.04233 0.359832,-0.08467 v 0.709081 q -0.148166,0.07408 -0.423332,0.116417 -0.275165,0.05292 -0.529165,0.05292 -0.444498,0 -0.825497,-0.148166 Q 38.200016,17.654499 37.967183,17.2735 37.73435,16.892501 37.73435,16.204587 v -3.30199 h -0.80433 v -0.444499 l 0.814914,-0.370415 0.370415,-1.206496 h 0.550332 v 1.301746 h 1.640411 v 0.719664 h -1.640411 v 3.280823 q 0,0.518582 0.243416,0.772581 0.253999,0.243416 0.645581,0.243416 z"
             id="path7220" />
          <path
             d="m 42.41217,12.172349 q 0,0.423332 -0.05292,0.793748 h 0.0635 q 0.275166,-0.433915 0.740831,-0.656165 0.476248,-0.222249 1.02658,-0.222249 1.037163,0 1.555745,0.497415 0.518582,0.486832 0.518582,1.576912 v 3.693571 H 45.343744 V 14.22551 q 0,-1.365246 -1.269996,-1.365246 -0.952497,0 -1.31233,0.539748 -0.349248,0.529165 -0.349248,1.523995 v 2.931574 H 41.480839 V 9.8122736 h 0.931331 z"
             id="path7222" />
          <path
             d="m 52.921386,12.087683 q 1.037164,0 1.534579,0.455082 0.497415,0.455082 0.497415,1.449912 v 3.862904 h -0.677331 l -0.179917,-0.80433 h -0.04233 q -0.370415,0.465665 -0.783164,0.687914 -0.402165,0.222249 -1.12183,0.222249 -0.772581,0 -1.280579,-0.402165 -0.507998,-0.412749 -0.507998,-1.280579 0,-0.846664 0.666748,-1.301746 0.666747,-0.465665 2.05316,-0.507999 l 0.96308,-0.03175 V 14.09851 q 0,-0.709081 -0.306916,-0.984247 -0.306915,-0.275166 -0.86783,-0.275166 -0.444499,0 -0.846664,0.137583 -0.402166,0.127 -0.751415,0.296333 l -0.285749,-0.698498 q 0.370416,-0.201083 0.878414,-0.338666 0.507999,-0.148166 1.05833,-0.148166 z m 0.275166,3.026824 q -1.05833,0.04233 -1.471079,0.338665 -0.402165,0.296333 -0.402165,0.836081 0,0.476248 0.285749,0.698498 0.296332,0.222249 0.751414,0.222249 0.719665,0 1.195913,-0.391582 0.476249,-0.402165 0.476249,-1.227663 v -0.507998 z"
             id="path7224" />
          <path
             d="m 58.054296,14.955757 -1.95791,-2.772824 h 1.05833 l 1.460495,2.137826 1.449912,-2.137826 h 1.047747 l -1.957911,2.772824 2.063744,2.899824 h -1.05833 l -1.545162,-2.264826 -1.566328,2.264826 h -1.047747 z"
             id="path7226" />
          <path
             d="m 62.785026,10.055689 q 0.211666,0 0.370415,0.148167 0.169333,0.137583 0.169333,0.444498 0,0.296333 -0.169333,0.444499 -0.158749,0.148166 -0.370415,0.148166 -0.232833,0 -0.391582,-0.148166 -0.15875,-0.148166 -0.15875,-0.444499 0,-0.306915 0.15875,-0.444498 0.158749,-0.148167 0.391582,-0.148167 z m 0.455082,2.127244 v 5.672648 h -0.931331 v -5.672648 z"
             id="path7228" />
          <path
             d="m 68.732833,16.289253 q 0,0.825497 -0.613831,1.248829 -0.613832,0.423332 -1.650995,0.423332 -0.592665,0 -1.02658,-0.09525 -0.423332,-0.09525 -0.751415,-0.264583 v -0.846664 q 0.338666,0.169333 0.814915,0.317499 0.486831,0.137583 0.984246,0.137583 0.709081,0 1.02658,-0.222249 0.317499,-0.232833 0.317499,-0.613832 0,-0.211666 -0.116416,-0.380998 -0.116416,-0.169333 -0.423332,-0.338666 -0.296332,-0.169333 -0.857247,-0.380999 -0.550332,-0.211666 -0.941914,-0.423332 -0.391582,-0.211666 -0.603248,-0.507998 -0.211666,-0.296333 -0.211666,-0.761998 0,-0.719664 0.582082,-1.111246 0.592664,-0.391582 1.545161,-0.391582 0.518582,0 0.963081,0.105833 0.455082,0.09525 0.846664,0.275165 l -0.317499,0.740831 q -0.359833,-0.148166 -0.751415,-0.253999 -0.391582,-0.105833 -0.80433,-0.105833 -0.571499,0 -0.878414,0.1905 -0.296333,0.179916 -0.296333,0.497415 0,0.232832 0.137583,0.402165 0.137583,0.15875 0.455082,0.317499 0.328082,0.148166 0.867831,0.359832 0.539748,0.201083 0.920747,0.412749 0.380999,0.211666 0.582081,0.518582 0.201083,0.296332 0.201083,0.751414 z"
             id="path7230" />
        </g>
        <path
           style="font-variation-settings:normal;opacity:1;fill:none;fill-opacity:1;stroke:#000000;stroke-width:1;stroke-linecap:butt;stroke-linejoin:miter;stroke-miterlimit:4;stroke-dasharray:none;stroke-dashoffset:0;stroke-opacity:1;stop-color:#000000;stop-opacity:1"
           d="m 101.63001,166.0696 c -4.905981,-2.47825 -8.879743,-8.7688 -6.444922,-14.21143 1.784611,-2.76771 8.537502,-0.30853 8.574472,-4.92922 -1.66835,-3.326 -3.810361,-7.30049 -1.63003,-10.98668 1.65372,-3.77837 6.25322,-4.25864 9.52594,-4.6497 3.90363,-5.06487 0.49825,-12.70842 5.09312,-17.48952 2.39108,-2.54746 6.67848,-3.86918 9.17934,-0.70063 1.87497,1.64122 5.02965,7.18017 5.62346,1.83366 2.42358,-5.04261 9.50183,-8.80682 14.55133,-5.21793 2.34002,1.03533 2.13404,4.35303 2.82264,5.80524 2.06851,-3.57123 6.82144,-1.15687 9.24133,0.84239 2.80856,2.54808 5.57721,5.79743 6.10019,9.66376 -0.42988,4.06131 -5.2278,4.85217 -8.10692,6.6891 -3.81201,2.99069 3.62191,4.88225 4.06973,8.17494 2.6678,4.96558 3.12133,10.74508 3.12709,16.2817 -3.6527,3.30621 -8.56073,-0.1135 -12.67198,-0.45349 -4.75909,-1.01814 -4.8257,4.50684 -5.75725,7.54044 -2.13192,4.83503 -6.95317,9.10127 -12.52236,8.58362 1.41865,5.06089 -0.70301,11.06113 -5.64747,13.30606 -3.29408,1.84203 -7.36679,2.48653 -10.71477,0.37897 -3.32378,-1.80126 -7.12617,-3.48975 -10.94124,-2.23001 -4.58806,-0.002 -9.836612,-2.79352 -10.950356,-7.51432 -0.578154,-4.11657 3.905917,-5.49613 6.572856,-7.35912 0.9619,-0.81096 1.39063,-2.16689 0.9058,-3.35783 z"
           id="path5512" />
        <path
           id="rect5597"
           style="fill:none;stroke:#000000;stroke-linecap:round;stroke-dasharray:1, 3;stop-color:#000000"
           transform="rotate(-45)"
           d="m -59.656212,162.5329 h 89.256409 v 64.11749 h -89.256409 z" />
        <path
           id="rect5597-9"
           style="fill:none;stroke:#0000ff;stroke-linecap:round;stroke-dasharray:1, 3;stop-color:#000000"
           transform="rotate(-45)"
           d="M -41.983803,95.683784 H 12.676083 V 135.58176 H -41.983803 Z" />
        <path
           style="font-variation-settings:normal;fill:none;fill-opacity:1;stroke:#0000ff;stroke-width:1;stroke-linecap:butt;stroke-linejoin:miter;stroke-miterlimit:4;stroke-dasharray:none;stroke-dashoffset:0;stroke-opacity:1;stop-color:#000000"
           d="m 51.440399,96.874962 c -2.56721,-2.29539 -3.952039,-6.74681 -1.5959,-9.64585 1.528869,-1.38561 5.21692,1.19774 5.988596,-1.5927 -0.470332,-2.28344 -1.122159,-5.03614 0.795138,-6.91345 1.613537,-2.01849 4.475028,-1.56329 6.519091,-1.26924 3.183807,-2.43224 2.362376,-7.61033 5.918501,-9.75873 1.860182,-1.15398 4.669245,-1.25863 5.668943,1.06452 0.86858,1.29732 1.879584,5.16105 3.105956,2.02165 2.28447,-2.65877 7.178637,-3.78904 9.652602,-0.79822 1.248287,1.00606 0.585619,2.98052 0.766865,3.97107 1.831255,-1.8256 4.315932,0.40604 5.45624,2.0084 1.286531,1.99754 2.435198,4.41302 2.12473,6.83772 -0.918756,2.3882 -3.950701,2.08878 -5.991021,2.73361 -2.792004,1.19179 1.400257,3.54206 1.137323,5.60741 0.809318,3.43778 0.146576,7.00908 -0.747769,10.360768 -2.746754,1.40859 -5.162544,-1.45692 -7.595527,-2.329378 -2.715094,-1.38792 -3.651349,1.944988 -4.707055,3.629868 -2.074295,2.58044 -5.683939,4.38055 -8.970461,3.16415 0.03788,3.29291 -2.219162,6.58019 -5.575584,7.13702 -2.292282,0.58062 -4.861599,0.31022 -6.546025,-1.50819 -1.71945,-1.62911 -3.746844,-3.26758 -6.259998,-3.12384 -2.776429,-0.74499 -5.500102,-3.28579 -5.408601,-6.32345 0.317653,-2.585108 3.255123,-2.692868 5.171256,-3.387868 0.713643,-0.3348 1.192971,-1.08591 1.0927,-1.88527 z"
           id="path5512-1" />
        <g
           aria-label="starting elbow location"
           id="text5657"
           style="font-size:5.83703px;line-height:1.25;text-align:center;letter-spacing:0px;text-anchor:middle;fill:#ff0000;stroke-width:0.264583">
          <path
             d="m 70.657213,126.52234 q 0,0.45529 -0.338548,0.68877 -0.338547,0.23348 -0.910576,0.23348 -0.326874,0 -0.566192,-0.0525 -0.233482,-0.0525 -0.414429,-0.14593 v -0.46696 q 0.186785,0.0934 0.449451,0.17511 0.268503,0.0759 0.542844,0.0759 0.391081,0 0.566192,-0.12257 0.17511,-0.12842 0.17511,-0.33855 0,-0.11674 -0.06421,-0.21013 -0.06421,-0.0934 -0.233481,-0.18679 -0.163437,-0.0934 -0.472799,-0.21013 -0.303526,-0.11674 -0.519496,-0.23348 -0.21597,-0.11674 -0.332711,-0.28018 -0.11674,-0.16344 -0.11674,-0.42027 0,-0.39692 0.321036,-0.61289 0.326874,-0.21597 0.852207,-0.21597 0.286014,0 0.531169,0.0584 0.250993,0.0525 0.466963,0.15177 l -0.175111,0.40859 q -0.198459,-0.0817 -0.414429,-0.14009 -0.21597,-0.0584 -0.443615,-0.0584 -0.315199,0 -0.484473,0.10507 -0.163437,0.0992 -0.163437,0.27434 0,0.12841 0.07588,0.2218 0.07588,0.0876 0.250993,0.17512 0.180948,0.0817 0.478636,0.19845 0.297689,0.11091 0.507822,0.22765 0.210133,0.11674 0.321036,0.28601 0.110904,0.16344 0.110904,0.41443 z"
             id="path7157" />
          <path
             d="m 72.460856,127.02433 q 0.11674,0 0.239318,-0.0175 0.122578,-0.0234 0.198459,-0.0467 v 0.39108 q -0.08172,0.0409 -0.233481,0.0642 -0.151763,0.0292 -0.291852,0.0292 -0.245155,0 -0.455288,-0.0817 -0.204296,-0.0876 -0.332711,-0.29768 -0.128414,-0.21014 -0.128414,-0.58954 v -1.82116 h -0.443615 v -0.24515 l 0.449452,-0.2043 0.204296,-0.66542 h 0.303525 v 0.71795 h 0.90474 v 0.39692 h -0.90474 v 1.80948 q 0,0.28602 0.134252,0.42611 0.140089,0.13425 0.356059,0.13425 z"
             id="path7159" />
          <path
             d="m 74.708112,124.20504 q 0.572029,0 0.84637,0.25099 0.27434,0.251 0.27434,0.79968 v 2.13051 h -0.37357 l -0.09923,-0.44361 h -0.02335 q -0.204296,0.25683 -0.431941,0.37941 -0.221807,0.12257 -0.618725,0.12257 -0.426103,0 -0.70628,-0.2218 -0.280178,-0.22765 -0.280178,-0.70628 0,-0.46697 0.367733,-0.71796 0.367733,-0.25683 1.132384,-0.28018 l 0.53117,-0.0175 v -0.18678 q 0,-0.39108 -0.169274,-0.54285 -0.169274,-0.15176 -0.478637,-0.15176 -0.245155,0 -0.466962,0.0759 -0.221807,0.07 -0.414429,0.16344 l -0.1576,-0.38525 q 0.204296,-0.1109 0.484473,-0.18678 0.280178,-0.0817 0.583703,-0.0817 z m 0.151763,1.66939 q -0.583703,0.0233 -0.811347,0.18679 -0.221807,0.16343 -0.221807,0.46112 0,0.26267 0.1576,0.38525 0.163436,0.12257 0.414429,0.12257 0.396918,0 0.659584,-0.21597 0.262667,-0.2218 0.262667,-0.67709 v -0.28018 z"
             id="path7161" />
          <path
             d="m 78.257032,124.1992 q 0.08756,0 0.186785,0.0117 0.105066,0.006 0.180948,0.0233 l -0.06421,0.4728 q -0.07588,-0.0175 -0.169273,-0.0292 -0.08756,-0.0117 -0.169274,-0.0117 -0.239319,0 -0.449452,0.13425 -0.210133,0.12841 -0.338547,0.36773 -0.122578,0.23348 -0.122578,0.54868 v 1.66939 h -0.513659 v -3.12865 h 0.420266 l 0.05837,0.57203 h 0.02335 q 0.151763,-0.25683 0.391081,-0.44361 0.239318,-0.18679 0.566192,-0.18679 z"
             id="path7163" />
          <path
             d="m 80.253297,127.02433 q 0.11674,0 0.239318,-0.0175 0.122578,-0.0234 0.198459,-0.0467 v 0.39108 q -0.08172,0.0409 -0.233481,0.0642 -0.151763,0.0292 -0.291852,0.0292 -0.245155,0 -0.455288,-0.0817 -0.204296,-0.0876 -0.332711,-0.29768 -0.128414,-0.21014 -0.128414,-0.58954 v -1.82116 h -0.443615 v -0.24515 l 0.449452,-0.2043 0.204296,-0.66542 h 0.303525 v 0.71795 h 0.90474 v 0.39692 h -0.90474 v 1.80948 q 0,0.28602 0.134252,0.42611 0.140089,0.13425 0.356059,0.13425 z"
             id="path7165" />
          <path
             d="m 81.578303,123.08433 q 0.116741,0 0.204296,0.0817 0.09339,0.0759 0.09339,0.24516 0,0.16343 -0.09339,0.24515 -0.08756,0.0817 -0.204296,0.0817 -0.128415,0 -0.21597,-0.0817 -0.08756,-0.0817 -0.08756,-0.24515 0,-0.16928 0.08756,-0.24516 0.08755,-0.0817 0.21597,-0.0817 z m 0.250992,1.17324 v 3.12865 h -0.513658 v -3.12865 z"
             id="path7167" />
          <path
             d="m 84.32754,124.1992 q 0.560355,0 0.84637,0.27434 0.286014,0.26851 0.286014,0.87556 v 2.03712 h -0.507821 v -2.0021 q 0,-0.75298 -0.700444,-0.75298 -0.519496,0 -0.717955,0.29186 -0.198459,0.29185 -0.198459,0.84053 v 1.62269 h -0.513658 v -3.12865 h 0.414429 l 0.07588,0.42611 h 0.02918 q 0.151763,-0.24516 0.420266,-0.3619 0.268504,-0.12258 0.566192,-0.12258 z"
             id="path7169" />
          <path
             d="m 87.537908,124.1992 q 0.309362,0 0.554518,0.11675 0.250992,0.11674 0.426103,0.35605 h 0.02918 l 0.07004,-0.41443 h 0.408592 v 3.18119 q 0,0.67125 -0.344384,1.0098 -0.338548,0.33855 -1.056503,0.33855 -0.688769,0 -1.126547,-0.19846 v -0.4728 q 0.461126,0.24516 1.155732,0.24516 0.402755,0 0.6304,-0.23932 0.233481,-0.23348 0.233481,-0.64207 v -0.12258 q 0,-0.07 0.0058,-0.19846 0.0058,-0.13425 0.01167,-0.18679 h -0.02335 q -0.3152,0.4728 -0.968947,0.4728 -0.607051,0 -0.951436,-0.4261 -0.338548,-0.4261 -0.338548,-1.19075 0,-0.74714 0.338548,-1.18492 0.344385,-0.44362 0.945599,-0.44362 z m 0.07004,0.43194 q -0.391081,0 -0.607051,0.3152 -0.21597,0.30937 -0.21597,0.88723 0,0.57787 0.210133,0.88723 0.21597,0.30353 0.624562,0.30353 0.4728,0 0.68877,-0.251 0.21597,-0.25682 0.21597,-0.82302 v -0.12257 q 0,-0.64208 -0.221807,-0.91642 -0.221807,-0.28018 -0.694607,-0.28018 z"
             id="path7171" />
          <path
             d="m 92.744538,124.1992 q 0.402755,0 0.68877,0.17512 0.291851,0.17511 0.443614,0.49614 0.1576,0.3152 0.1576,0.74131 v 0.30936 h -2.14219 q 0.01167,0.53117 0.268503,0.81135 0.262667,0.27434 0.729629,0.27434 0.297688,0 0.525333,-0.0525 0.233481,-0.0584 0.478636,-0.16343 v 0.44945 q -0.239318,0.10506 -0.472799,0.15176 -0.233482,0.0525 -0.554518,0.0525 -0.443614,0 -0.787999,-0.18094 -0.338548,-0.18095 -0.53117,-0.53701 -0.186785,-0.3619 -0.186785,-0.88139 0,-0.51366 0.169274,-0.88139 0.175111,-0.36774 0.484473,-0.5662 0.3152,-0.19846 0.729629,-0.19846 z m -0.0058,0.42027 q -0.367733,0 -0.583703,0.23932 -0.210133,0.23348 -0.250992,0.65375 h 1.593509 q -0.0058,-0.39692 -0.186785,-0.64208 -0.180948,-0.25099 -0.572029,-0.25099 z"
             id="path7173" />
          <path
             d="m 95.342012,127.38622 h -0.513659 v -4.43614 h 0.513659 z"
             id="path7175" />
          <path
             d="m 96.847963,124.02993 q 0,0.19846 -0.01167,0.37357 -0.0058,0.16927 -0.01751,0.2685 h 0.02919 q 0.134251,-0.19846 0.367732,-0.33271 0.233482,-0.13425 0.601214,-0.13425 0.583703,0 0.933925,0.40859 0.356059,0.40276 0.356059,1.20827 0,0.80551 -0.356059,1.2141 -0.356059,0.40859 -0.933925,0.40859 -0.367732,0 -0.601214,-0.13425 -0.233481,-0.13425 -0.367732,-0.32104 h -0.04086 l -0.105066,0.39692 h -0.367733 v -4.43614 h 0.513659 z m 0.881391,0.60121 q -0.496148,0 -0.688769,0.28602 -0.192622,0.28601 -0.192622,0.88723 v 0.0234 q 0,0.57786 0.186784,0.88722 0.192622,0.30353 0.706281,0.30353 0.420266,0 0.624562,-0.30936 0.210133,-0.30937 0.210133,-0.89307 0,-1.18492 -0.846369,-1.18492 z"
             id="path7177" />
          <path
             d="m 102.64413,125.81606 q 0,0.77633 -0.39692,1.20243 -0.39108,0.4261 -1.06234,0.4261 -0.41443,0 -0.7413,-0.18678 -0.32104,-0.19262 -0.507821,-0.55452 -0.186785,-0.36773 -0.186785,-0.88723 0,-0.77632 0.391086,-1.19659 0.39108,-0.42027 1.06233,-0.42027 0.42611,0 0.74714,0.19263 0.32688,0.18678 0.50783,0.54868 0.18678,0.35606 0.18678,0.87555 z m -2.364,0 q 0,0.55452 0.21597,0.88139 0.22181,0.32104 0.70045,0.32104 0.4728,0 0.6946,-0.32104 0.22181,-0.32687 0.22181,-0.88139 0,-0.55452 -0.22181,-0.86972 -0.2218,-0.3152 -0.70044,-0.3152 -0.47864,0 -0.69461,0.3152 -0.21597,0.3152 -0.21597,0.86972 z"
             id="path7179" />
          <path
             d="m 105.35835,125.6176 q -0.0759,-0.23932 -0.13426,-0.46696 -0.0525,-0.23348 -0.0817,-0.3619 h -0.0233 q -0.0233,0.12842 -0.0759,0.3619 -0.0525,0.22764 -0.13426,0.4728 l -0.56035,1.75695 h -0.5837 l -0.85805,-3.12865 h 0.53117 l 0.43194,1.66939 q 0.0642,0.25099 0.12258,0.50782 0.0584,0.25683 0.0817,0.4261 h 0.0233 q 0.0233,-0.0992 0.0525,-0.24515 0.035,-0.14593 0.0759,-0.30353 0.0409,-0.16343 0.0817,-0.29185 l 0.55452,-1.76278 h 0.56035 l 0.53701,1.76278 q 0.0642,0.19846 0.12258,0.43194 0.0642,0.23348 0.0876,0.40276 h 0.0233 q 0.0175,-0.14593 0.0759,-0.40276 0.0642,-0.25683 0.13425,-0.52533 l 0.43778,-1.66939 h 0.52533 l -0.86971,3.12865 h -0.60122 z"
             id="path7181" />
          <path
             d="m 77.854268,134.68251 h -0.513659 v -4.43614 h 0.513659 z"
             id="path7183" />
          <path
             d="m 81.566616,133.11235 q 0,0.77632 -0.396919,1.20243 -0.391081,0.4261 -1.062339,0.4261 -0.414429,0 -0.741303,-0.18678 -0.321036,-0.19263 -0.507821,-0.55452 -0.186785,-0.36774 -0.186785,-0.88723 0,-0.77633 0.391081,-1.19659 0.391081,-0.42027 1.062339,-0.42027 0.426103,0 0.74714,0.19262 0.326874,0.18679 0.507822,0.54868 0.186785,0.35606 0.186785,0.87556 z m -2.363998,0 q 0,0.55452 0.215971,0.88139 0.221807,0.32104 0.700443,0.32104 0.4728,0 0.694607,-0.32104 0.221807,-0.32687 0.221807,-0.88139 0,-0.55452 -0.221807,-0.86972 -0.221807,-0.3152 -0.700444,-0.3152 -0.478636,0 -0.694606,0.3152 -0.215971,0.3152 -0.215971,0.86972 z"
             id="path7185" />
          <path
             d="m 83.632921,134.74088 q -0.414429,0 -0.741302,-0.16927 -0.321037,-0.16928 -0.507822,-0.52534 -0.180948,-0.35605 -0.180948,-0.91057 0,-0.57787 0.192622,-0.93976 0.192622,-0.3619 0.519496,-0.53117 0.33271,-0.16928 0.752977,-0.16928 0.239318,0 0.461125,0.0525 0.221807,0.0467 0.361896,0.11674 l -0.1576,0.4261 q -0.140089,-0.0525 -0.326874,-0.0992 -0.186785,-0.0467 -0.350222,-0.0467 -0.92225,0 -0.92225,1.18492 0,0.56619 0.221807,0.86972 0.227644,0.29769 0.671258,0.29769 0.25683,0 0.449452,-0.0525 0.198459,-0.0525 0.361895,-0.12841 v 0.45529 q -0.157599,0.0817 -0.350221,0.12257 -0.186785,0.0467 -0.455289,0.0467 z"
             id="path7187" />
          <path
             d="m 86.364649,131.50133 q 0.572029,0 0.846369,0.25099 0.27434,0.25099 0.27434,0.79967 v 2.13052 h -0.37357 l -0.09923,-0.44361 h -0.02335 q -0.204296,0.25683 -0.43194,0.3794 -0.221808,0.12258 -0.618726,0.12258 -0.426103,0 -0.70628,-0.22181 -0.280178,-0.22764 -0.280178,-0.70628 0,-0.46696 0.367733,-0.71795 0.367733,-0.25683 1.132384,-0.28018 l 0.53117,-0.0175 v -0.18679 q 0,-0.39108 -0.169274,-0.54284 -0.169274,-0.15176 -0.478637,-0.15176 -0.245155,0 -0.466962,0.0759 -0.221807,0.07 -0.414429,0.16344 l -0.1576,-0.38525 q 0.204296,-0.1109 0.484474,-0.18678 0.280177,-0.0817 0.583703,-0.0817 z m 0.151762,1.66939 q -0.583703,0.0234 -0.811347,0.18678 -0.221807,0.16344 -0.221807,0.46113 0,0.26267 0.1576,0.38524 0.163437,0.12258 0.414429,0.12258 0.396918,0 0.659584,-0.21597 0.262667,-0.22181 0.262667,-0.67709 v -0.28018 z"
             id="path7189" />
          <path
             d="m 89.499138,134.32061 q 0.116741,0 0.239319,-0.0175 0.122577,-0.0233 0.198459,-0.0467 v 0.39108 q -0.08172,0.0409 -0.233481,0.0642 -0.151763,0.0292 -0.291852,0.0292 -0.245155,0 -0.455288,-0.0817 -0.204296,-0.0876 -0.332711,-0.29769 -0.128415,-0.21013 -0.128415,-0.58954 v -1.82115 h -0.443614 v -0.24516 l 0.449451,-0.20429 0.204296,-0.66542 h 0.303526 v 0.71795 h 0.90474 v 0.39692 h -0.90474 v 1.80948 q 0,0.28601 0.134252,0.4261 0.140088,0.13425 0.356058,0.13425 z"
             id="path7191" />
          <path
             d="m 90.824145,130.38062 q 0.11674,0 0.204296,0.0817 0.09339,0.0759 0.09339,0.24515 0,0.16344 -0.09339,0.24516 -0.08756,0.0817 -0.204296,0.0817 -0.128415,0 -0.21597,-0.0817 -0.08756,-0.0817 -0.08756,-0.24516 0,-0.16927 0.08756,-0.24515 0.08755,-0.0817 0.21597,-0.0817 z m 0.250992,1.17324 v 3.12865 h -0.513659 v -3.12865 z"
             id="path7193" />
          <path
             d="m 94.787485,133.11235 q 0,0.77632 -0.396918,1.20243 -0.391081,0.4261 -1.062339,0.4261 -0.414429,0 -0.741303,-0.18678 -0.321037,-0.19263 -0.507822,-0.55452 -0.186785,-0.36774 -0.186785,-0.88723 0,-0.77633 0.391081,-1.19659 0.391081,-0.42027 1.06234,-0.42027 0.426103,0 0.74714,0.19262 0.326873,0.18679 0.507821,0.54868 0.186785,0.35606 0.186785,0.87556 z m -2.363997,0 q 0,0.55452 0.21597,0.88139 0.221807,0.32104 0.700444,0.32104 0.472799,0 0.694606,-0.32104 0.221807,-0.32687 0.221807,-0.88139 0,-0.55452 -0.221807,-0.86972 -0.221807,-0.3152 -0.700443,-0.3152 -0.478637,0 -0.694607,0.3152 -0.21597,0.3152 -0.21597,0.86972 z"
             id="path7195" />
          <path
             d="m 97.104784,131.49549 q 0.560355,0 0.846369,0.27434 0.286014,0.26851 0.286014,0.87556 v 2.03712 h -0.507821 v -2.0021 q 0,-0.75298 -0.700444,-0.75298 -0.519495,0 -0.717954,0.29185 -0.198459,0.29186 -0.198459,0.84054 v 1.62269 H 95.59883 v -3.12865 h 0.414429 l 0.07588,0.42611 h 0.02919 q 0.151762,-0.24516 0.420266,-0.3619 0.268503,-0.12258 0.566192,-0.12258 z"
             id="path7197" />
        </g>
        <g
           aria-label="offset elbow"
           id="text5657-7"
           style="font-size:5.83703px;line-height:1.25;letter-spacing:0px;stroke-width:0.264583">
          <path
             d="m 104.12332,37.590075 q 0,0.776325 -0.39692,1.202428 -0.39108,0.426104 -1.06234,0.426104 -0.41443,0 -0.7413,-0.186785 -0.32104,-0.192622 -0.50783,-0.554518 -0.18678,-0.367733 -0.18678,-0.887229 0,-0.776325 0.39108,-1.196591 0.39108,-0.420266 1.06234,-0.420266 0.4261,0 0.74714,0.192622 0.32687,0.186785 0.50782,0.548681 0.18679,0.356059 0.18679,0.875554 z m -2.364,0 q 0,0.554518 0.21597,0.881392 0.22181,0.321036 0.70044,0.321036 0.4728,0 0.69461,-0.321036 0.22181,-0.326874 0.22181,-0.881392 0,-0.554518 -0.22181,-0.869717 -0.22181,-0.3152 -0.70044,-0.3152 -0.47864,0 -0.69461,0.3152 -0.21597,0.315199 -0.21597,0.869717 z"
             id="path7132" />
          <path
             d="m 106.37641,36.428506 h -0.788 v 2.73173 h -0.51366 v -2.73173 h -0.54868 v -0.239318 l 0.54868,-0.175111 v -0.180948 q 0,-0.607051 0.2685,-0.869717 0.26851,-0.268504 0.74714,-0.268504 0.18679,0 0.33855,0.03502 0.1576,0.02918 0.2685,0.07004 l -0.13425,0.402755 q -0.0934,-0.02919 -0.21597,-0.05837 -0.12258,-0.02918 -0.25099,-0.02918 -0.25683,0 -0.38524,0.175111 -0.12258,0.169273 -0.12258,0.537006 v 0.204296 h 0.788 z m 2.00793,0 h -0.78799 v 2.73173 h -0.51366 v -2.73173 h -0.54868 v -0.239318 l 0.54868,-0.175111 v -0.180948 q 0,-0.607051 0.2685,-0.869717 0.2685,-0.268504 0.74714,-0.268504 0.18679,0 0.33855,0.03502 0.1576,0.02918 0.2685,0.07004 l -0.13425,0.402755 q -0.0934,-0.02919 -0.21597,-0.05837 -0.12258,-0.02918 -0.25099,-0.02918 -0.25683,0 -0.38525,0.175111 -0.12257,0.169273 -0.12257,0.537006 v 0.204296 h 0.78799 z"
             id="path7134" />
          <path
             d="m 110.98766,38.296356 q 0,0.455288 -0.33855,0.688769 -0.33855,0.233482 -0.91058,0.233482 -0.32687,0 -0.56619,-0.05253 -0.23348,-0.05253 -0.41443,-0.145925 v -0.466963 q 0.18679,0.09339 0.44945,0.175111 0.26851,0.07588 0.54285,0.07588 0.39108,0 0.56619,-0.122578 0.17511,-0.128415 0.17511,-0.338548 0,-0.11674 -0.0642,-0.210133 -0.0642,-0.09339 -0.23348,-0.186785 -0.16343,-0.09339 -0.4728,-0.210133 -0.30352,-0.116741 -0.51949,-0.233481 -0.21597,-0.116741 -0.33271,-0.280178 -0.11674,-0.163436 -0.11674,-0.420266 0,-0.396918 0.32103,-0.612888 0.32688,-0.21597 0.85221,-0.21597 0.28601,0 0.53117,0.05837 0.25099,0.05253 0.46696,0.151763 l -0.17511,0.408592 q -0.19846,-0.08172 -0.41443,-0.140089 -0.21597,-0.05837 -0.44361,-0.05837 -0.3152,0 -0.48448,0.105067 -0.16343,0.09923 -0.16343,0.27434 0,0.128415 0.0759,0.221807 0.0759,0.08756 0.25099,0.175111 0.18095,0.08172 0.47864,0.198459 0.29769,0.110904 0.50782,0.227644 0.21013,0.116741 0.32104,0.286015 0.1109,0.163437 0.1109,0.414429 z"
             id="path7136" />
          <path
             d="m 112.95474,35.973218 q 0.40275,0 0.68877,0.175111 0.29185,0.175111 0.44361,0.496147 0.1576,0.3152 0.1576,0.741303 v 0.309363 h -2.14219 q 0.0117,0.53117 0.2685,0.811347 0.26267,0.27434 0.72963,0.27434 0.29769,0 0.52534,-0.05253 0.23348,-0.05837 0.47863,-0.163437 v 0.449452 q -0.23932,0.105066 -0.4728,0.151762 -0.23348,0.05253 -0.55451,0.05253 -0.44362,0 -0.788,-0.180948 -0.33855,-0.180948 -0.53117,-0.537007 -0.18679,-0.361896 -0.18679,-0.881392 0,-0.513658 0.16928,-0.881391 0.17511,-0.367733 0.48447,-0.566192 0.3152,-0.198459 0.72963,-0.198459 z m -0.006,0.420266 q -0.36773,0 -0.5837,0.239318 -0.21014,0.233482 -0.25099,0.653748 h 1.5935 q -0.006,-0.396918 -0.18678,-0.642074 -0.18095,-0.250992 -0.57203,-0.250992 z"
             id="path7138" />
          <path
             d="m 116.08338,38.798341 q 0.11674,0 0.23932,-0.01751 0.12258,-0.02335 0.19846,-0.0467 v 0.391081 q -0.0817,0.04086 -0.23348,0.06421 -0.15177,0.02918 -0.29185,0.02918 -0.24516,0 -0.45529,-0.08172 -0.2043,-0.08756 -0.33271,-0.297688 -0.12842,-0.210133 -0.12842,-0.58954 V 36.4285 h -0.44361 v -0.245155 l 0.44945,-0.204296 0.20429,-0.665421 h 0.30353 v 0.717954 h 0.90474 V 36.4285 h -0.90474 v 1.80948 q 0,0.286014 0.13425,0.426103 0.14009,0.134252 0.35606,0.134252 z"
             id="path7140" />
          <path
             d="m 119.87161,35.973218 q 0.40276,0 0.68877,0.175111 0.29186,0.175111 0.44362,0.496147 0.1576,0.3152 0.1576,0.741303 v 0.309363 h -2.14219 q 0.0117,0.53117 0.2685,0.811347 0.26267,0.27434 0.72963,0.27434 0.29769,0 0.52533,-0.05253 0.23348,-0.05837 0.47864,-0.163437 v 0.449452 q -0.23932,0.105066 -0.4728,0.151762 -0.23348,0.05253 -0.55452,0.05253 -0.44361,0 -0.788,-0.180948 -0.33854,-0.180948 -0.53117,-0.537007 -0.18678,-0.361896 -0.18678,-0.881392 0,-0.513658 0.16927,-0.881391 0.17511,-0.367733 0.48448,-0.566192 0.3152,-0.198459 0.72962,-0.198459 z m -0.006,0.420266 q -0.36774,0 -0.58371,0.239318 -0.21013,0.233482 -0.25099,0.653748 h 1.59351 q -0.006,-0.396918 -0.18678,-0.642074 -0.18095,-0.250992 -0.57203,-0.250992 z"
             id="path7142" />
          <path
             d="m 122.46909,39.160236 h -0.51366 v -4.436142 h 0.51366 z"
             id="path7144" />
          <path
             d="m 123.97504,35.803944 q 0,0.198459 -0.0117,0.37357 -0.006,0.169274 -0.0175,0.268503 h 0.0292 q 0.13425,-0.198459 0.36773,-0.33271 0.23348,-0.134252 0.60122,-0.134252 0.5837,0 0.93392,0.408592 0.35606,0.402755 0.35606,1.208265 0,0.80551 -0.35606,1.214103 -0.35606,0.408592 -0.93392,0.408592 -0.36774,0 -0.60122,-0.134252 -0.23348,-0.134252 -0.36773,-0.321037 h -0.0409 l -0.10507,0.396918 h -0.36773 v -4.436142 h 0.51366 z m 0.88139,0.601214 q -0.49615,0 -0.68877,0.286015 -0.19262,0.286014 -0.19262,0.887228 v 0.02335 q 0,0.577866 0.18678,0.887229 0.19263,0.303525 0.70628,0.303525 0.42027,0 0.62457,-0.309362 0.21013,-0.309363 0.21013,-0.893066 0,-1.184917 -0.84637,-1.184917 z"
             id="path7146" />
          <path
             d="m 129.77121,37.590075 q 0,0.776325 -0.39692,1.202428 -0.39108,0.426104 -1.06234,0.426104 -0.41443,0 -0.7413,-0.186785 -0.32104,-0.192622 -0.50782,-0.554518 -0.18679,-0.367733 -0.18679,-0.887229 0,-0.776325 0.39108,-1.196591 0.39108,-0.420266 1.06234,-0.420266 0.42611,0 0.74714,0.192622 0.32688,0.186785 0.50782,0.548681 0.18679,0.356059 0.18679,0.875554 z m -2.364,0 q 0,0.554518 0.21597,0.881392 0.22181,0.321036 0.70045,0.321036 0.4728,0 0.6946,-0.321036 0.22181,-0.326874 0.22181,-0.881392 0,-0.554518 -0.22181,-0.869717 -0.2218,-0.3152 -0.70044,-0.3152 -0.47864,0 -0.69461,0.3152 -0.21597,0.315199 -0.21597,0.869717 z"
             id="path7148" />
          <path
             d="m 132.48542,37.391616 q -0.0759,-0.239318 -0.13425,-0.466962 -0.0525,-0.233481 -0.0817,-0.361896 h -0.0233 q -0.0233,0.128415 -0.0759,0.361896 -0.0525,0.227644 -0.13425,0.472799 l -0.56035,1.756946 h -0.58371 l -0.85804,-3.128648 h 0.53117 l 0.43194,1.669391 q 0.0642,0.250992 0.12258,0.507821 0.0584,0.25683 0.0817,0.426104 h 0.0233 q 0.0234,-0.09923 0.0525,-0.245156 0.035,-0.145925 0.0759,-0.303525 0.0409,-0.163437 0.0817,-0.291852 l 0.55451,-1.762783 h 0.56036 l 0.53701,1.762783 q 0.0642,0.198459 0.12257,0.431941 0.0642,0.233481 0.0876,0.402755 h 0.0233 q 0.0175,-0.145926 0.0759,-0.402755 0.0642,-0.25683 0.13425,-0.525333 l 0.43778,-1.669391 h 0.52533 l -0.86972,3.128648 h -0.60121 z"
             id="path7150" />
        </g>
        <g
           aria-label="zero-degree elbow ash cloud"
           id="text5764"
           style="font-size:5.31148px;line-height:1.25;letter-spacing:0px;stroke-width:0.264583">
          <path
             d="m 131.09369,196.76555 h -2.0821 v -0.30807 l 1.52971,-2.1777 h -1.43941 v -0.36118 h 1.95462 v 0.35055 l -1.50846,2.13522 h 1.54564 z"
             id="path7079" />
          <path
             d="m 132.85179,193.86548 q 0.36649,0 0.62675,0.15935 0.26558,0.15934 0.40367,0.45147 0.14341,0.28682 0.14341,0.67456 v 0.28151 h -1.94931 q 0.0106,0.48334 0.24433,0.73829 0.23902,0.24964 0.66393,0.24964 0.27089,0 0.47804,-0.0478 0.21246,-0.0531 0.43554,-0.14872 v 0.40898 q -0.21777,0.0956 -0.43023,0.1381 -0.21246,0.0478 -0.50459,0.0478 -0.40367,0 -0.71705,-0.16465 -0.30807,-0.16466 -0.48335,-0.48866 -0.16996,-0.32931 -0.16996,-0.80203 0,-0.46741 0.15403,-0.80204 0.15934,-0.33462 0.44085,-0.51521 0.28682,-0.18059 0.66394,-0.18059 z m -0.005,0.38243 q -0.33463,0 -0.53115,0.21777 -0.19122,0.21246 -0.2284,0.59488 h 1.45004 q -0.005,-0.36118 -0.16997,-0.58426 -0.16465,-0.22839 -0.52052,-0.22839 z"
             id="path7081" />
          <path
             d="m 136.07585,193.86548 q 0.0797,0 0.16997,0.0106 0.0956,0.005 0.16465,0.0212 l -0.0584,0.43023 q -0.0691,-0.0159 -0.15403,-0.0266 -0.0797,-0.0106 -0.15404,-0.0106 -0.21777,0 -0.40898,0.12216 -0.19121,0.11686 -0.30807,0.33463 -0.11154,0.21246 -0.11154,0.49928 v 1.51908 H 134.748 v -2.84695 h 0.38243 l 0.0531,0.52052 h 0.0213 q 0.1381,-0.2337 0.35587,-0.40367 0.21777,-0.16997 0.51521,-0.16997 z"
             id="path7083" />
          <path
             d="m 139.31054,195.33676 q 0,0.70643 -0.36118,1.09417 -0.35587,0.38773 -0.96669,0.38773 -0.37711,0 -0.67456,-0.16996 -0.29213,-0.17528 -0.4621,-0.50459 -0.16996,-0.33463 -0.16996,-0.80735 0,-0.70643 0.35587,-1.08885 0.35587,-0.38243 0.96669,-0.38243 0.38773,0 0.67986,0.17528 0.29745,0.16997 0.4621,0.49928 0.16997,0.324 0.16997,0.79672 z m -2.15115,0 q 0,0.50459 0.19653,0.80203 0.20183,0.29214 0.63737,0.29214 0.43023,0 0.63207,-0.29214 0.20184,-0.29744 0.20184,-0.80203 0,-0.50459 -0.20184,-0.79141 -0.20184,-0.28682 -0.63738,-0.28682 -0.43554,0 -0.63206,0.28682 -0.19653,0.28682 -0.19653,0.79141 z"
             id="path7085" />
          <path
             d="m 139.80982,195.54922 v -0.4143 h 1.28538 v 0.4143 z"
             id="path7087" />
          <path
             d="m 142.76831,196.81866 q -0.53114,0 -0.84983,-0.36649 -0.31869,-0.3718 -0.31869,-1.10479 0,-0.73298 0.31869,-1.10478 0.324,-0.37712 0.85515,-0.37712 0.32931,0 0.53646,0.12216 0.21245,0.12217 0.34524,0.29745 h 0.0319 q -0.005,-0.0691 -0.0212,-0.20184 -0.0106,-0.1381 -0.0106,-0.21777 v -1.13666 h 0.46741 v 4.03673 h -0.37711 l -0.0691,-0.38243 h -0.0213 q -0.12747,0.18059 -0.33993,0.30807 -0.21246,0.12747 -0.54709,0.12747 z m 0.0744,-0.38773 q 0.45148,0 0.63207,-0.24433 0.1859,-0.24964 0.1859,-0.74892 v -0.085 q 0,-0.53115 -0.17528,-0.81266 -0.17527,-0.28682 -0.648,-0.28682 -0.37711,0 -0.56832,0.30275 -0.18591,0.29745 -0.18591,0.80204 0,0.5099 0.18591,0.79141 0.19121,0.28151 0.57363,0.28151 z"
             id="path7089" />
          <path
             d="m 146.12517,193.86548 q 0.36649,0 0.62675,0.15935 0.26558,0.15934 0.40368,0.45147 0.14341,0.28682 0.14341,0.67456 v 0.28151 h -1.94932 q 0.0106,0.48334 0.24433,0.73829 0.23902,0.24964 0.66394,0.24964 0.27088,0 0.47803,-0.0478 0.21246,-0.0531 0.43554,-0.14872 v 0.40898 q -0.21777,0.0956 -0.43023,0.1381 -0.21246,0.0478 -0.50459,0.0478 -0.40367,0 -0.71705,-0.16465 -0.30807,-0.16466 -0.48334,-0.48866 -0.16997,-0.32931 -0.16997,-0.80203 0,-0.46741 0.15403,-0.80204 0.15935,-0.33462 0.44085,-0.51521 0.28682,-0.18059 0.66394,-0.18059 z m -0.005,0.38243 q -0.33463,0 -0.53115,0.21777 -0.19121,0.21246 -0.22839,0.59488 h 1.45003 q -0.005,-0.36118 -0.16997,-0.58426 -0.16465,-0.22839 -0.52052,-0.22839 z"
             id="path7091" />
          <path
             d="m 149.03054,193.86548 q 0.28151,0 0.50459,0.10623 0.2284,0.10623 0.38774,0.324 h 0.0266 l 0.0637,-0.37711 h 0.3718 v 2.89475 q 0,0.61082 -0.31338,0.91889 -0.30806,0.30806 -0.96137,0.30806 -0.62676,0 -1.02512,-0.18059 v -0.43023 q 0.41961,0.22309 1.05167,0.22309 0.3665,0 0.57364,-0.21777 0.21246,-0.21246 0.21246,-0.58427 v -0.11154 q 0,-0.0637 0.005,-0.18059 0.005,-0.12216 0.0106,-0.16997 h -0.0212 q -0.28682,0.43023 -0.8817,0.43023 -0.5524,0 -0.86578,-0.38773 -0.30806,-0.38774 -0.30806,-1.08355 0,-0.67987 0.30806,-1.07823 0.31338,-0.40367 0.86046,-0.40367 z m 0.0637,0.39305 q -0.35587,0 -0.55239,0.28682 -0.19653,0.28151 -0.19653,0.80735 0,0.52583 0.19122,0.80734 0.19652,0.2762 0.56832,0.2762 0.43023,0 0.62676,-0.2284 0.19652,-0.2337 0.19652,-0.74892 v -0.11154 q 0,-0.58426 -0.20183,-0.8339 -0.20184,-0.25495 -0.63207,-0.25495 z"
             id="path7093" />
          <path
             d="m 152.61579,193.86548 q 0.0797,0 0.16997,0.0106 0.0956,0.005 0.16466,0.0212 l -0.0584,0.43023 q -0.0691,-0.0159 -0.15403,-0.0266 -0.0797,-0.0106 -0.15404,-0.0106 -0.21777,0 -0.40898,0.12216 -0.19121,0.11686 -0.30807,0.33463 -0.11154,0.21246 -0.11154,0.49928 v 1.51908 h -0.46741 v -2.84695 h 0.38243 l 0.0531,0.52052 h 0.0213 q 0.1381,-0.2337 0.35587,-0.40367 0.21777,-0.16997 0.51521,-0.16997 z"
             id="path7095" />
          <path
             d="m 154.47481,193.86548 q 0.36649,0 0.62675,0.15935 0.26558,0.15934 0.40368,0.45147 0.14341,0.28682 0.14341,0.67456 v 0.28151 h -1.94932 q 0.0106,0.48334 0.24433,0.73829 0.23902,0.24964 0.66394,0.24964 0.27088,0 0.47803,-0.0478 0.21246,-0.0531 0.43554,-0.14872 v 0.40898 q -0.21777,0.0956 -0.43023,0.1381 -0.21246,0.0478 -0.50459,0.0478 -0.40367,0 -0.71705,-0.16465 -0.30807,-0.16466 -0.48334,-0.48866 -0.16997,-0.32931 -0.16997,-0.80203 0,-0.46741 0.15403,-0.80204 0.15935,-0.33462 0.44085,-0.51521 0.28682,-0.18059 0.66394,-0.18059 z m -0.005,0.38243 q -0.33463,0 -0.53115,0.21777 -0.19121,0.21246 -0.22839,0.59488 h 1.45003 q -0.005,-0.36118 -0.16997,-0.58426 -0.16465,-0.22839 -0.52052,-0.22839 z"
             id="path7097" />
          <path
             d="m 157.47048,193.86548 q 0.36649,0 0.62675,0.15935 0.26558,0.15934 0.40368,0.45147 0.14341,0.28682 0.14341,0.67456 v 0.28151 H 156.695 q 0.0106,0.48334 0.24433,0.73829 0.23902,0.24964 0.66394,0.24964 0.27088,0 0.47803,-0.0478 0.21246,-0.0531 0.43554,-0.14872 v 0.40898 q -0.21777,0.0956 -0.43023,0.1381 -0.21246,0.0478 -0.50459,0.0478 -0.40367,0 -0.71705,-0.16465 -0.30807,-0.16466 -0.48334,-0.48866 -0.16997,-0.32931 -0.16997,-0.80203 0,-0.46741 0.15403,-0.80204 0.15935,-0.33462 0.44085,-0.51521 0.28682,-0.18059 0.66394,-0.18059 z m -0.005,0.38243 q -0.33463,0 -0.53115,0.21777 -0.19121,0.21246 -0.22839,0.59488 h 1.45003 q -0.005,-0.36118 -0.16997,-0.58426 -0.16465,-0.22839 -0.52052,-0.22839 z"
             id="path7099" />
          <path
             d="m 161.84713,193.86548 q 0.3665,0 0.62676,0.15935 0.26557,0.15934 0.40367,0.45147 0.14341,0.28682 0.14341,0.67456 v 0.28151 h -1.94931 q 0.0106,0.48334 0.24433,0.73829 0.23901,0.24964 0.66393,0.24964 0.27089,0 0.47804,-0.0478 0.21245,-0.0531 0.43554,-0.14872 v 0.40898 q -0.21777,0.0956 -0.43023,0.1381 -0.21246,0.0478 -0.50459,0.0478 -0.40368,0 -0.71705,-0.16465 -0.30807,-0.16466 -0.48335,-0.48866 -0.16997,-0.32931 -0.16997,-0.80203 0,-0.46741 0.15404,-0.80204 0.15934,-0.33462 0.44085,-0.51521 0.28682,-0.18059 0.66393,-0.18059 z m -0.005,0.38243 q -0.33462,0 -0.53114,0.21777 -0.19122,0.21246 -0.2284,0.59488 h 1.45004 q -0.005,-0.36118 -0.16997,-0.58426 -0.16466,-0.22839 -0.52053,-0.22839 z"
             id="path7101" />
          <path
             d="m 164.21074,196.76555 h -0.46741 v -4.03673 h 0.46741 z"
             id="path7103" />
          <path
             d="m 165.5811,193.71145 q 0,0.18059 -0.0106,0.33993 -0.005,0.15404 -0.0159,0.24433 h 0.0266 q 0.12216,-0.18059 0.33462,-0.30275 0.21246,-0.12217 0.54708,-0.12217 0.53115,0 0.84984,0.37181 0.324,0.36649 0.324,1.09947 0,0.73299 -0.324,1.10479 -0.324,0.3718 -0.84984,0.3718 -0.33462,0 -0.54708,-0.12216 -0.21246,-0.12216 -0.33462,-0.29213 h -0.0372 l -0.0956,0.36118 h -0.33462 v -4.03673 h 0.46741 z m 0.80203,0.54708 q -0.45147,0 -0.62675,0.26026 -0.17528,0.26027 -0.17528,0.80735 v 0.0212 q 0,0.52584 0.16997,0.80735 0.17527,0.2762 0.64268,0.2762 0.38243,0 0.56833,-0.28151 0.19122,-0.28151 0.19122,-0.81266 0,-1.07823 -0.77017,-1.07823 z"
             id="path7105" />
          <path
             d="m 170.8554,195.33676 q 0,0.70643 -0.36118,1.09417 -0.35587,0.38773 -0.96669,0.38773 -0.37712,0 -0.67456,-0.16996 -0.29213,-0.17528 -0.4621,-0.50459 -0.16997,-0.33463 -0.16997,-0.80735 0,-0.70643 0.35587,-1.08885 0.35587,-0.38243 0.96669,-0.38243 0.38774,0 0.67987,0.17528 0.29744,0.16997 0.4621,0.49928 0.16997,0.324 0.16997,0.79672 z m -2.15115,0 q 0,0.50459 0.19652,0.80203 0.20184,0.29214 0.63738,0.29214 0.43023,0 0.63207,-0.29214 0.20183,-0.29744 0.20183,-0.80203 0,-0.50459 -0.20183,-0.79141 -0.20184,-0.28682 -0.63738,-0.28682 -0.43554,0 -0.63207,0.28682 -0.19652,0.28682 -0.19652,0.79141 z"
             id="path7107" />
          <path
             d="m 173.32523,195.15617 q -0.0691,-0.21777 -0.12217,-0.42492 -0.0478,-0.21246 -0.0744,-0.32931 h -0.0212 q -0.0213,0.11685 -0.0691,0.32931 -0.0478,0.20715 -0.12217,0.43023 l -0.5099,1.59876 h -0.53115 l -0.78078,-2.84696 h 0.48334 l 0.39305,1.51909 q 0.0584,0.22839 0.11154,0.4621 0.0531,0.2337 0.0744,0.38773 h 0.0213 q 0.0212,-0.0903 0.0478,-0.22308 0.0319,-0.13279 0.0691,-0.2762 0.0372,-0.14872 0.0744,-0.26557 l 0.50459,-1.60407 h 0.5099 l 0.48866,1.60407 q 0.0584,0.18059 0.11154,0.39305 0.0584,0.21246 0.0797,0.36649 h 0.0212 q 0.0159,-0.13278 0.0691,-0.36649 0.0584,-0.2337 0.12216,-0.47803 l 0.39836,-1.51909 h 0.47804 l -0.79141,2.84696 h -0.54709 z"
             id="path7109" />
          <path
             d="m 130.33415,200.51014 q 0.52052,0 0.77016,0.2284 0.24964,0.22839 0.24964,0.72767 v 1.93869 h -0.33993 l -0.0903,-0.40367 h -0.0212 q -0.1859,0.2337 -0.39305,0.34524 -0.20184,0.11154 -0.56302,0.11154 -0.38774,0 -0.64269,-0.20183 -0.25495,-0.20715 -0.25495,-0.64269 0,-0.42492 0.33462,-0.65331 0.33463,-0.23371 1.03043,-0.25495 l 0.48335,-0.0159 v -0.16997 q 0,-0.35587 -0.15404,-0.49396 -0.15403,-0.1381 -0.43554,-0.1381 -0.22308,0 -0.42492,0.0691 -0.20183,0.0637 -0.37711,0.14872 l -0.14341,-0.35056 q 0.1859,-0.10092 0.44085,-0.16997 0.25495,-0.0744 0.53115,-0.0744 z m 0.1381,1.51909 q -0.53115,0.0212 -0.7383,0.16996 -0.20183,0.14872 -0.20183,0.41961 0,0.23902 0.14341,0.35056 0.14872,0.11154 0.37711,0.11154 0.36118,0 0.6002,-0.19653 0.23902,-0.20183 0.23902,-0.61613 v -0.25495 z"
             id="path7111" />
          <path
             d="m 134.08937,202.6188 q 0,0.4143 -0.30807,0.62675 -0.30806,0.21246 -0.82859,0.21246 -0.29744,0 -0.51521,-0.0478 -0.21246,-0.0478 -0.37712,-0.13279 v -0.42492 q 0.16997,0.085 0.40899,0.15935 0.24433,0.0691 0.49397,0.0691 0.35587,0 0.51521,-0.11154 0.15934,-0.11686 0.15934,-0.30807 0,-0.10623 -0.0584,-0.19121 -0.0584,-0.085 -0.21246,-0.16997 -0.14872,-0.085 -0.43023,-0.19121 -0.2762,-0.10623 -0.47272,-0.21246 -0.19653,-0.10623 -0.30276,-0.25495 -0.10623,-0.14872 -0.10623,-0.38243 0,-0.36118 0.29213,-0.5577 0.29745,-0.19653 0.77548,-0.19653 0.26026,0 0.48335,0.0531 0.22839,0.0478 0.42491,0.13809 l -0.15934,0.37181 q -0.18059,-0.0744 -0.37712,-0.12748 -0.19652,-0.0531 -0.40367,-0.0531 -0.28682,0 -0.44085,0.0956 -0.14872,0.0903 -0.14872,0.24964 0,0.11686 0.0691,0.20184 0.0691,0.0797 0.22839,0.15934 0.16466,0.0744 0.43554,0.18059 0.27089,0.10092 0.4621,0.20715 0.19121,0.10623 0.29213,0.26026 0.10092,0.14873 0.10092,0.37712 z"
             id="path7113" />
          <path
             d="m 135.24727,200.55263 q 0,0.21246 -0.0265,0.39836 h 0.0319 q 0.1381,-0.21777 0.37181,-0.32931 0.23901,-0.11154 0.51521,-0.11154 0.52053,0 0.78079,0.24964 0.26026,0.24433 0.26026,0.79141 v 1.85371 h -0.4621 v -1.82184 q 0,-0.68518 -0.63737,-0.68518 -0.47804,0 -0.65863,0.27089 -0.17528,0.26557 -0.17528,0.76485 v 1.47128 h -0.46741 v -4.03673 h 0.46741 z"
             id="path7115" />
          <path
             d="m 140.58531,203.45801 q -0.37711,0 -0.67456,-0.15403 -0.29213,-0.15403 -0.46209,-0.47803 -0.16466,-0.324 -0.16466,-0.82859 0,-0.52584 0.17528,-0.85515 0.17528,-0.32931 0.47272,-0.48335 0.30275,-0.15403 0.68518,-0.15403 0.21777,0 0.41961,0.0478 0.20183,0.0425 0.32931,0.10623 l -0.14341,0.38774 q -0.12748,-0.0478 -0.29744,-0.0903 -0.16997,-0.0425 -0.31869,-0.0425 -0.83922,0 -0.83922,1.07824 0,0.51521 0.20184,0.79141 0.20715,0.27088 0.61082,0.27088 0.23371,0 0.40898,-0.0478 0.18059,-0.0478 0.32932,-0.11685 v 0.41429 q -0.14341,0.0744 -0.31869,0.11154 -0.16997,0.0425 -0.4143,0.0425 z"
             id="path7117" />
          <path
             d="m 142.46026,203.4049 h -0.46741 v -4.03673 h 0.46741 z"
             id="path7119" />
          <path
             d="m 145.83836,201.97611 q 0,0.70643 -0.36118,1.09417 -0.35587,0.38773 -0.96669,0.38773 -0.37711,0 -0.67456,-0.16996 -0.29213,-0.17528 -0.4621,-0.50459 -0.16996,-0.33463 -0.16996,-0.80735 0,-0.70643 0.35587,-1.08885 0.35587,-0.38243 0.96669,-0.38243 0.38773,0 0.67986,0.17528 0.29745,0.16997 0.4621,0.49928 0.16997,0.324 0.16997,0.79672 z m -2.15115,0 q 0,0.50459 0.19653,0.80203 0.20183,0.29214 0.63737,0.29214 0.43023,0 0.63207,-0.29214 0.20184,-0.29744 0.20184,-0.80203 0,-0.50459 -0.20184,-0.79141 -0.20184,-0.28682 -0.63738,-0.28682 -0.43554,0 -0.63206,0.28682 -0.19653,0.28682 -0.19653,0.79141 z"
             id="path7121" />
          <path
             d="m 148.9562,200.55795 v 2.84695 h -0.38243 l -0.0691,-0.37712 h -0.0212 q -0.13809,0.22309 -0.38242,0.32932 -0.24433,0.10091 -0.52053,0.10091 -0.51521,0 -0.77547,-0.24432 -0.26027,-0.24964 -0.26027,-0.79142 v -1.86432 h 0.47273 v 1.83246 q 0,0.67987 0.63206,0.67987 0.47272,0 0.65331,-0.26558 0.18591,-0.26557 0.18591,-0.76485 v -1.4819 z"
             id="path7123" />
          <path
             d="m 150.86833,203.45801 q -0.53115,0 -0.84984,-0.36649 -0.31869,-0.3718 -0.31869,-1.10479 0,-0.73298 0.31869,-1.10478 0.324,-0.37712 0.85515,-0.37712 0.32931,0 0.53646,0.12216 0.21246,0.12217 0.34525,0.29745 h 0.0319 q -0.005,-0.0691 -0.0212,-0.20184 -0.0106,-0.1381 -0.0106,-0.21777 v -1.13666 h 0.46741 v 4.03673 h -0.37712 l -0.0691,-0.38243 h -0.0212 q -0.12748,0.18059 -0.33994,0.30807 -0.21246,0.12747 -0.54708,0.12747 z m 0.0744,-0.38773 q 0.45148,0 0.63207,-0.24433 0.1859,-0.24964 0.1859,-0.74892 v -0.085 q 0,-0.53115 -0.17528,-0.81266 -0.17528,-0.28682 -0.648,-0.28682 -0.37712,0 -0.56833,0.30275 -0.1859,0.29745 -0.1859,0.80204 0,0.5099 0.1859,0.79141 0.19121,0.28151 0.57364,0.28151 z"
             id="path7125" />
        </g>
        <g
           aria-label="in-progress recipe"
           id="text5800"
           style="font-size:4.94228px;line-height:1.25;letter-spacing:0px;fill:#0000ff;stroke-width:0.264583">
          <path
             d="m 20.269087,78.428081 q 0.09885,0 0.17298,0.06919 0.07908,0.06425 0.07908,0.207576 0,0.138384 -0.07908,0.207576 -0.07413,0.06919 -0.17298,0.06919 -0.10873,0 -0.182864,-0.06919 -0.07413,-0.06919 -0.07413,-0.207576 0,-0.143326 0.07413,-0.207576 0.07413,-0.06919 0.182864,-0.06919 z m 0.212518,0.993398 v 2.649062 h -0.43492 v -2.649062 z"
             id="path7040" />
          <path
             d="m 22.596898,79.372057 q 0.474459,0 0.716631,0.232287 0.242171,0.227345 0.242171,0.741342 v 1.724855 h -0.429978 v -1.695202 q 0,-0.637554 -0.593074,-0.637554 -0.439862,0 -0.6079,0.247114 -0.168038,0.247114 -0.168038,0.711689 v 1.373953 h -0.43492 v -2.649062 h 0.350902 l 0.06425,0.360787 h 0.02471 q 0.128499,-0.207576 0.355844,-0.306422 0.227345,-0.103787 0.479402,-0.103787 z"
             id="path7042" />
          <path
             d="m 24.153716,80.938759 v -0.385498 h 1.196032 v 0.385498 z"
             id="path7044" />
          <path
             d="m 27.227817,79.372057 q 0.489286,0 0.785823,0.341017 0.301479,0.341017 0.301479,1.027994 0,0.677092 -0.301479,1.027994 -0.296537,0.350902 -0.790765,0.350902 -0.306422,0 -0.509055,-0.113672 -0.197691,-0.118615 -0.311364,-0.271826 h -0.02965 q 0.0099,0.08402 0.01977,0.212518 0.0099,0.1285 0.0099,0.222403 v 1.087302 h -0.43492 v -3.83521 H 26.3234 l 0.05931,0.360787 h 0.01977 q 0.118615,-0.17298 0.311364,-0.291595 0.192749,-0.118614 0.513997,-0.118614 z m -0.07908,0.365728 q -0.405267,0 -0.573305,0.227345 -0.163095,0.227345 -0.17298,0.691919 v 0.08402 q 0,0.489286 0.158153,0.756169 0.163096,0.261941 0.598016,0.261941 0.242172,0 0.395383,-0.133442 0.158153,-0.133441 0.232287,-0.360786 0.07908,-0.232287 0.07908,-0.528824 0,-0.45469 -0.177922,-0.726515 -0.17298,-0.271826 -0.538708,-0.271826 z"
             id="path7046" />
          <path
             d="m 30.242606,79.372057 q 0.07414,0 0.158153,0.0099 0.08896,0.0049 0.153211,0.01977 l -0.05437,0.400325 q -0.06425,-0.01483 -0.143326,-0.02471 -0.07413,-0.0099 -0.143326,-0.0099 -0.202634,0 -0.380556,0.113672 -0.177922,0.108731 -0.286652,0.311364 -0.103788,0.197691 -0.103788,0.464574 v 1.413492 h -0.434921 v -2.649062 h 0.355845 l 0.04942,0.484344 h 0.01977 q 0.128499,-0.21746 0.331132,-0.375613 0.202634,-0.158153 0.479401,-0.158153 z"
             id="path7048" />
          <path
             d="m 33.252453,80.741068 q 0,0.657323 -0.336075,1.01811 -0.331133,0.360786 -0.899495,0.360786 -0.350902,0 -0.627669,-0.158153 -0.271826,-0.163095 -0.429979,-0.469516 -0.158153,-0.311364 -0.158153,-0.751227 0,-0.657323 0.331133,-1.013167 0.331133,-0.355844 0.899495,-0.355844 0.360786,0 0.632612,0.163095 0.276767,0.158153 0.429978,0.464574 0.158153,0.301479 0.158153,0.741342 z m -2.001623,0 q 0,0.469517 0.182864,0.746284 0.187807,0.271826 0.593074,0.271826 0.400324,0 0.588131,-0.271826 0.187807,-0.276767 0.187807,-0.746284 0,-0.469516 -0.187807,-0.7364 -0.187807,-0.266883 -0.593074,-0.266883 -0.405267,0 -0.588131,0.266883 -0.182864,0.266884 -0.182864,0.7364 z"
             id="path7050" />
          <path
             d="m 34.878461,79.372057 q 0.261941,0 0.469516,0.09884 0.212518,0.09885 0.360787,0.301479 h 0.02471 l 0.05931,-0.350902 h 0.345959 v 2.693543 q 0,0.568362 -0.291594,0.855014 -0.286653,0.286653 -0.894553,0.286653 -0.583189,0 -0.95386,-0.168038 v -0.400325 q 0.39044,0.207576 0.978571,0.207576 0.341018,0 0.533767,-0.202633 0.197691,-0.197692 0.197691,-0.543651 V 82.04583 q 0,-0.05931 0.0049,-0.168038 0.0049,-0.113672 0.0099,-0.158152 h -0.01977 q -0.266884,0.400324 -0.820419,0.400324 -0.513997,0 -0.805592,-0.360786 -0.286652,-0.360787 -0.286652,-1.008225 0,-0.632612 0.286652,-1.003283 0.291595,-0.375613 0.80065,-0.375613 z m 0.05931,0.365728 q -0.331133,0 -0.513997,0.266883 -0.182864,0.261941 -0.182864,0.751227 0,0.489286 0.177922,0.751226 0.182864,0.256999 0.528824,0.256999 0.400324,0 0.583189,-0.212518 0.182864,-0.21746 0.182864,-0.696861 v -0.103788 q 0,-0.543651 -0.187807,-0.775938 -0.187806,-0.23723 -0.588131,-0.23723 z"
             id="path7052" />
          <path
             d="m 38.214498,79.372057 q 0.07413,0 0.158153,0.0099 0.08896,0.0049 0.15321,0.01977 l -0.05436,0.400325 q -0.06425,-0.01483 -0.143326,-0.02471 -0.07413,-0.0099 -0.143326,-0.0099 -0.202633,0 -0.380555,0.113672 -0.177922,0.108731 -0.286653,0.311364 -0.103788,0.197691 -0.103788,0.464574 v 1.413492 h -0.43492 v -2.649062 h 0.355844 l 0.04942,0.484344 h 0.01977 q 0.128499,-0.21746 0.331133,-0.375613 0.202633,-0.158153 0.479401,-0.158153 z"
             id="path7054" />
          <path
             d="m 39.944296,79.372057 q 0.341017,0 0.583189,0.148268 0.247114,0.148268 0.375613,0.420094 0.133442,0.266883 0.133442,0.627669 v 0.261941 h -1.813817 q 0.0099,0.449748 0.227345,0.686977 0.222402,0.232287 0.617785,0.232287 0.252056,0 0.444805,-0.04448 0.197691,-0.04942 0.405267,-0.138384 v 0.380555 q -0.202634,0.08896 -0.400325,0.1285 -0.197691,0.04448 -0.469516,0.04448 -0.375614,0 -0.667208,-0.15321 -0.286652,-0.153211 -0.449748,-0.45469 -0.158152,-0.306422 -0.158152,-0.746284 0,-0.434921 0.143326,-0.746285 0.148268,-0.311363 0.410209,-0.479401 0.266883,-0.168037 0.617785,-0.168037 z m -0.0049,0.355844 q -0.311364,0 -0.494228,0.202633 -0.177922,0.197691 -0.212518,0.553536 h 1.349242 q -0.0049,-0.336075 -0.158153,-0.543651 -0.153211,-0.212518 -0.484343,-0.212518 z"
             id="path7056" />
          <path
             d="m 43.433541,81.339084 q 0,0.385498 -0.286652,0.583189 -0.286653,0.197691 -0.770996,0.197691 -0.276768,0 -0.479401,-0.04448 -0.197691,-0.04448 -0.350902,-0.123557 v -0.395383 q 0.158153,0.07908 0.380555,0.148269 0.227345,0.06425 0.459633,0.06425 0.331132,0 0.479401,-0.103788 0.148268,-0.10873 0.148268,-0.286652 0,-0.09884 -0.05436,-0.177922 -0.05437,-0.07908 -0.197691,-0.158153 -0.138384,-0.07908 -0.400325,-0.177922 -0.256998,-0.09884 -0.439863,-0.197691 -0.182864,-0.09885 -0.28171,-0.23723 -0.09885,-0.138383 -0.09885,-0.355844 0,-0.336075 0.271825,-0.518939 0.276768,-0.182864 0.721573,-0.182864 0.242172,0 0.449747,0.04942 0.212518,0.04448 0.395383,0.1285 l -0.148269,0.345959 q -0.168037,-0.06919 -0.350902,-0.118614 -0.182864,-0.04942 -0.375613,-0.04942 -0.266883,0 -0.410209,0.08896 -0.138384,0.08402 -0.138384,0.232287 0,0.10873 0.06425,0.187807 0.06425,0.07413 0.212518,0.148268 0.153211,0.06919 0.405267,0.168037 0.252056,0.0939 0.429978,0.192749 0.177922,0.09885 0.271826,0.242172 0.0939,0.138384 0.0939,0.350902 z"
             id="path7058" />
          <path
             d="m 45.800892,81.339084 q 0,0.385498 -0.286652,0.583189 -0.286652,0.197691 -0.770996,0.197691 -0.276767,0 -0.479401,-0.04448 -0.197691,-0.04448 -0.350902,-0.123557 v -0.395383 q 0.158153,0.07908 0.380556,0.148269 0.227345,0.06425 0.459632,0.06425 0.331133,0 0.479401,-0.103788 0.148269,-0.10873 0.148269,-0.286652 0,-0.09884 -0.05437,-0.177922 -0.05437,-0.07908 -0.197691,-0.158153 -0.138384,-0.07908 -0.400324,-0.177922 -0.256999,-0.09884 -0.439863,-0.197691 -0.182865,-0.09885 -0.28171,-0.23723 -0.09885,-0.138383 -0.09885,-0.355844 0,-0.336075 0.271826,-0.518939 0.276767,-0.182864 0.721572,-0.182864 0.242172,0 0.449748,0.04942 0.212518,0.04448 0.395382,0.1285 l -0.148268,0.345959 q -0.168038,-0.06919 -0.350902,-0.118614 -0.182864,-0.04942 -0.375613,-0.04942 -0.266883,0 -0.410209,0.08896 -0.138384,0.08402 -0.138384,0.232287 0,0.10873 0.06425,0.187807 0.06425,0.07413 0.212518,0.148268 0.153211,0.06919 0.405267,0.168037 0.252057,0.0939 0.429979,0.192749 0.177922,0.09885 0.271825,0.242172 0.0939,0.138384 0.0939,0.350902 z"
             id="path7060" />
          <path
             d="m 21.282254,85.549906 q 0.07414,0 0.158153,0.0099 0.08896,0.0049 0.153211,0.01977 l -0.05437,0.400325 q -0.06425,-0.01483 -0.143326,-0.02471 -0.07413,-0.0099 -0.143326,-0.0099 -0.202634,0 -0.380556,0.113672 -0.177922,0.10873 -0.286652,0.311364 -0.103788,0.197691 -0.103788,0.464574 v 1.413492 h -0.43492 v -2.649062 h 0.355844 l 0.04942,0.484344 h 0.01977 q 0.128499,-0.217461 0.331132,-0.375614 0.202634,-0.158153 0.479401,-0.158153 z"
             id="path7062" />
          <path
             d="m 23.012051,85.549906 q 0.341017,0 0.583189,0.148269 0.247114,0.148268 0.375613,0.420094 0.133442,0.266883 0.133442,0.627669 v 0.261941 h -1.813817 q 0.0099,0.449747 0.227345,0.686977 0.222402,0.232287 0.617785,0.232287 0.252056,0 0.444805,-0.04448 0.197691,-0.04942 0.405267,-0.138383 v 0.380555 q -0.202634,0.08896 -0.400325,0.128499 -0.197691,0.04448 -0.469516,0.04448 -0.375614,0 -0.667208,-0.153211 -0.286652,-0.15321 -0.449748,-0.454689 -0.158153,-0.306422 -0.158153,-0.746285 0,-0.43492 0.143327,-0.746284 0.148268,-0.311364 0.410209,-0.479401 0.266883,-0.168038 0.617785,-0.168038 z m -0.0049,0.355845 q -0.311363,0 -0.494228,0.202633 -0.177922,0.197691 -0.212518,0.553535 h 1.349243 q -0.0049,-0.336075 -0.158153,-0.54365 -0.153211,-0.212518 -0.484344,-0.212518 z"
             id="path7064" />
          <path
             d="m 25.839031,88.297814 q -0.350902,0 -0.62767,-0.143326 -0.271825,-0.143326 -0.429978,-0.444805 -0.153211,-0.301479 -0.153211,-0.770996 0,-0.489286 0.163095,-0.795707 0.163095,-0.306421 0.439863,-0.449748 0.28171,-0.143326 0.637554,-0.143326 0.202634,0 0.39044,0.04448 0.187807,0.03954 0.306422,0.09884 l -0.133442,0.360787 q -0.118615,-0.04448 -0.276768,-0.08402 -0.158152,-0.03954 -0.296536,-0.03954 -0.780881,0 -0.780881,1.003283 0,0.479401 0.187807,0.736399 0.192749,0.252057 0.568362,0.252057 0.217461,0 0.380556,-0.04448 0.168037,-0.04448 0.306421,-0.10873 v 0.385498 q -0.133441,0.06919 -0.296537,0.103788 -0.158153,0.03954 -0.385497,0.03954 z"
             id="path7066" />
          <path
             d="m 27.371135,84.605931 q 0.09885,0 0.17298,0.06919 0.07908,0.06425 0.07908,0.207576 0,0.138383 -0.07908,0.207575 -0.07413,0.06919 -0.17298,0.06919 -0.10873,0 -0.182864,-0.06919 -0.07414,-0.06919 -0.07414,-0.207575 0,-0.143327 0.07414,-0.207576 0.07413,-0.06919 0.182864,-0.06919 z m 0.212518,0.993398 v 2.649062 h -0.434921 v -2.649062 z"
             id="path7068" />
          <path
             d="m 29.684119,85.549906 q 0.489286,0 0.785823,0.341018 0.301479,0.341017 0.301479,1.027994 0,0.677092 -0.301479,1.027994 -0.296537,0.350902 -0.790765,0.350902 -0.306421,0 -0.509055,-0.113672 -0.197691,-0.118615 -0.311363,-0.271826 h -0.02965 q 0.0099,0.08402 0.01977,0.212518 0.0099,0.128499 0.0099,0.222403 v 1.087301 h -0.434921 v -3.835209 h 0.355844 l 0.05931,0.360787 h 0.01977 q 0.118614,-0.17298 0.311363,-0.291595 0.192749,-0.118615 0.513997,-0.118615 z m -0.07908,0.365729 q -0.405267,0 -0.573305,0.227345 -0.163095,0.227345 -0.172979,0.691919 v 0.08402 q 0,0.489286 0.158152,0.756169 0.163096,0.261941 0.598016,0.261941 0.242172,0 0.395383,-0.133442 0.158153,-0.133442 0.232287,-0.360786 0.07908,-0.232288 0.07908,-0.528824 0,-0.45469 -0.177922,-0.726516 -0.17298,-0.271825 -0.538708,-0.271825 z"
             id="path7070" />
          <path
             d="m 32.486391,85.549906 q 0.341017,0 0.583189,0.148269 0.247114,0.148268 0.375613,0.420094 0.133442,0.266883 0.133442,0.627669 v 0.261941 h -1.813817 q 0.0099,0.449747 0.227345,0.686977 0.222403,0.232287 0.617785,0.232287 0.252056,0 0.444805,-0.04448 0.197691,-0.04942 0.405267,-0.138383 v 0.380555 q -0.202633,0.08896 -0.400325,0.128499 -0.197691,0.04448 -0.469516,0.04448 -0.375613,0 -0.667208,-0.153211 -0.286652,-0.15321 -0.449747,-0.454689 -0.158153,-0.306422 -0.158153,-0.746285 0,-0.43492 0.143326,-0.746284 0.148268,-0.311364 0.410209,-0.479401 0.266883,-0.168038 0.617785,-0.168038 z m -0.0049,0.355845 q -0.311364,0 -0.494228,0.202633 -0.177922,0.197691 -0.212518,0.553535 h 1.349242 q -0.0049,-0.336075 -0.158153,-0.54365 -0.153211,-0.212518 -0.484343,-0.212518 z"
             id="path7072" />
        </g>
        <g
           id="g6154"
           transform="matrix(0.1203221,0,0,0.1203221,133.68519,165.81729)"
           style="stroke-width:8.31101">
          <path
             id="rect5987"
             style="stroke-linecap:round;stroke-dasharray:8.31101, 24.9331;stop-color:#000000"
             d="m 160.93665,68.750931 h 18.08873 v 18.08873 h -18.08873 z" />
          <path
             id="rect5987-0"
             style="stroke-linecap:round;stroke-dasharray:8.31101, 24.9331;stop-color:#000000"
             d="m 160.93665,86.839661 h 18.08873 v 18.088729 h -18.08873 z" />
          <path
             id="rect5987-0-6"
             style="stroke-linecap:round;stroke-dasharray:8.31101, 24.9331;stop-color:#000000"
             d="m 179.02538,104.92839 h 18.08873 v 18.08873 h -18.08873 z" />
          <path
             id="rect5987-3"
             style="stroke-linecap:round;stroke-dasharray:8.31101, 24.9331;stop-color:#000000"
             d="m 179.02538,68.750931 h 18.08873 v 18.08873 h -18.08873 z" />
          <path
             id="rect5987-3-6"
             style="stroke-linecap:round;stroke-dasharray:8.31101, 24.9331;stop-color:#000000"
             d="m 197.11411,68.750931 h 18.08873 v 18.08873 h -18.08873 z" />
        </g>
        <path
           style="font-variation-settings:normal;opacity:1;fill:none;fill-opacity:1;stroke:#000000;stroke-width:1;stroke-linecap:butt;stroke-linejoin:miter;stroke-miterlimit:4;stroke-dasharray:none;stroke-dashoffset:0;stroke-opacity:1;marker-start:url(#Stop);marker-end:url(#Stop);stop-color:#000000;stop-opacity:1"
           d="m 104.83412,86.907435 19.05734,19.057335"
           id="path6240" />
        <path
           d="m 121.38144,91.691118 q 0,0.825497 -0.61383,1.248829 -0.61383,0.423332 -1.65099,0.423332 -0.59267,0 -1.02658,-0.09525 -0.42333,-0.09525 -0.75142,-0.264583 v -0.846664 q 0.33867,0.169333 0.81492,0.317499 0.48683,0.137583 0.98424,0.137583 0.70909,0 1.02658,-0.222249 0.3175,-0.232833 0.3175,-0.613832 0,-0.211666 -0.11641,-0.380998 -0.11642,-0.169333 -0.42333,-0.338666 -0.29634,-0.169333 -0.85725,-0.380999 -0.55033,-0.211666 -0.94192,-0.423332 -0.39158,-0.211666 -0.60324,-0.507998 -0.21167,-0.296333 -0.21167,-0.761998 0,-0.719664 0.58208,-1.111246 0.59267,-0.391582 1.54516,-0.391582 0.51859,0 0.96308,0.105833 0.45509,0.09525 0.84667,0.275165 l -0.3175,0.740831 q -0.35983,-0.148166 -0.75142,-0.253999 -0.39158,-0.105833 -0.80433,-0.105833 -0.57149,0 -0.87841,0.1905 -0.29633,0.179916 -0.29633,0.497415 0,0.232832 0.13758,0.402165 0.13758,0.15875 0.45508,0.317499 0.32808,0.148166 0.86783,0.359832 0.53975,0.201083 0.92075,0.412749 0.381,0.211666 0.58208,0.518582 0.20108,0.296332 0.20108,0.751414 z"
           id="path6970"
           style="font-size:10.5833px;line-height:1.25;letter-spacing:0px;stroke-width:0.264583" />
        <path
           d="m 124.94802,87.478965 q 0.73024,0 1.24883,0.317499 0.52916,0.317499 0.80433,0.89958 0.28575,0.571498 0.28575,1.344079 v 0.560915 h -3.88408 q 0.0212,0.96308 0.48684,1.471079 0.47625,0.497415 1.32291,0.497415 0.53975,0 0.9525,-0.09525 0.42333,-0.105833 0.86783,-0.296332 v 0.814914 q -0.43392,0.190499 -0.85725,0.275166 -0.42333,0.09525 -1.00541,0.09525 -0.80433,0 -1.42875,-0.328082 -0.61383,-0.328082 -0.96308,-0.973664 -0.33867,-0.656164 -0.33867,-1.598078 0,-0.93133 0.30692,-1.598078 0.3175,-0.666748 0.87841,-1.02658 0.5715,-0.359832 1.32292,-0.359833 z m -0.0106,0.761997 q -0.66674,0 -1.05833,0.433916 -0.381,0.423332 -0.45508,1.185329 h 2.88924 q -0.0106,-0.719664 -0.33866,-1.164163 -0.32809,-0.455082 -1.03717,-0.455082 z"
           id="path6972"
           style="font-size:10.5833px;line-height:1.25;letter-spacing:0px;stroke-width:0.264583" />
        <path
           d="m 131.42499,87.478965 q 1.04774,0 1.68274,0.730247 0.64558,0.730248 0.64558,2.201327 0,1.449912 -0.64558,2.201326 -0.635,0.751414 -1.69333,0.751414 -0.65616,0 -1.09008,-0.243416 -0.42333,-0.253999 -0.66674,-0.582081 h -0.0635 q 0.0212,0.179916 0.0423,0.455082 0.0212,0.275166 0.0212,0.476248 v 2.328326 h -0.93133 v -8.21264 h 0.76199 l 0.127,0.772581 h 0.0423 q 0.254,-0.370416 0.66674,-0.624415 0.41275,-0.253999 1.10067,-0.253999 z m -0.16934,0.783164 q -0.86783,0 -1.22766,0.486832 -0.34925,0.486831 -0.37041,1.481662 v 0.179916 q 0,1.047746 0.33866,1.619245 0.34925,0.560914 1.28058,0.560914 0.51858,0 0.84667,-0.285749 0.33866,-0.285749 0.49741,-0.772581 0.16933,-0.497415 0.16933,-1.132413 0,-0.973663 -0.381,-1.555745 -0.37041,-0.582081 -1.15358,-0.582081 z"
           id="path6974"
           style="font-size:10.5833px;line-height:1.25;letter-spacing:0px;stroke-width:0.264583" />
        <path
           d="m 137.38338,87.489548 q 1.03717,0 1.53458,0.455082 0.49742,0.455082 0.49742,1.449912 v 3.862904 h -0.67734 l -0.17991,-0.80433 h -0.0423 q -0.37042,0.465665 -0.78317,0.687914 -0.40216,0.222249 -1.12183,0.222249 -0.77258,0 -1.28058,-0.402165 -0.508,-0.412749 -0.508,-1.280579 0,-0.846664 0.66675,-1.301746 0.66675,-0.465665 2.05316,-0.507999 l 0.96308,-0.03175 v -0.338666 q 0,-0.709081 -0.30691,-0.984247 -0.30692,-0.275166 -0.86783,-0.275166 -0.4445,0 -0.84667,0.137583 -0.40216,0.127 -0.75141,0.296333 l -0.28575,-0.698498 q 0.37041,-0.201083 0.87841,-0.338666 0.508,-0.148166 1.05833,-0.148166 z m 0.27517,3.026824 q -1.05833,0.04233 -1.47108,0.338665 -0.40217,0.296333 -0.40217,0.836081 0,0.476248 0.28575,0.698498 0.29634,0.222249 0.75142,0.222249 0.71966,0 1.19591,-0.391582 0.47625,-0.402165 0.47625,-1.227663 v -0.507998 z"
           id="path6976"
           style="font-size:10.5833px;line-height:1.25;letter-spacing:0px;stroke-width:0.264583" />
        <path
           d="m 143.81804,87.478965 q 0.15875,0 0.33866,0.02117 0.1905,0.01058 0.32809,0.04233 l -0.11642,0.857248 q -0.13758,-0.03175 -0.30692,-0.05292 -0.15875,-0.02117 -0.30691,-0.02117 -0.43392,0 -0.81492,0.243416 -0.38099,0.232832 -0.61383,0.666747 -0.22225,0.423332 -0.22225,0.994831 v 3.026823 h -0.93133 v -5.672648 h 0.762 l 0.10583,1.037163 h 0.0423 q 0.27516,-0.465665 0.70908,-0.804331 0.43391,-0.338665 1.02658,-0.338665 z"
           id="path6978"
           style="font-size:10.5833px;line-height:1.25;letter-spacing:0px;stroke-width:0.264583" />
        <path
           d="m 147.47986,87.489548 q 1.03716,0 1.53457,0.455082 0.49742,0.455082 0.49742,1.449912 v 3.862904 h -0.67733 l -0.17992,-0.80433 h -0.0423 q -0.37042,0.465665 -0.78317,0.687914 -0.40216,0.222249 -1.12182,0.222249 -0.77259,0 -1.28058,-0.402165 -0.508,-0.412749 -0.508,-1.280579 0,-0.846664 0.66675,-1.301746 0.66674,-0.465665 2.05316,-0.507999 l 0.96308,-0.03175 v -0.338666 q 0,-0.709081 -0.30692,-0.984247 -0.30692,-0.275166 -0.86783,-0.275166 -0.4445,0 -0.84666,0.137583 -0.40217,0.127 -0.75142,0.296333 l -0.28575,-0.698498 q 0.37042,-0.201083 0.87842,-0.338666 0.50799,-0.148166 1.05833,-0.148166 z m 0.27516,3.026824 q -1.05833,0.04233 -1.47108,0.338665 -0.40216,0.296333 -0.40216,0.836081 0,0.476248 0.28575,0.698498 0.29633,0.222249 0.75141,0.222249 0.71967,0 1.19591,-0.391582 0.47625,-0.402165 0.47625,-1.227663 v -0.507998 z"
           id="path6980"
           style="font-size:10.5833px;line-height:1.25;letter-spacing:0px;stroke-width:0.264583" />
        <path
           d="m 153.1631,92.601282 q 0.21166,0 0.43391,-0.03175 0.22225,-0.04233 0.35983,-0.08467 v 0.709081 q -0.14816,0.07408 -0.42333,0.116417 -0.27516,0.05292 -0.52916,0.05292 -0.4445,0 -0.8255,-0.148166 -0.37041,-0.158749 -0.60325,-0.539748 -0.23283,-0.380999 -0.23283,-1.068913 v -3.30199 h -0.80433 v -0.444499 l 0.81491,-0.370415 0.37042,-1.206496 h 0.55033 v 1.301746 h 1.64041 v 0.719664 h -1.64041 v 3.280823 q 0,0.518582 0.24342,0.772581 0.254,0.243416 0.64558,0.243415 z"
           id="path6982"
           style="font-size:10.5833px;line-height:1.25;letter-spacing:0px;stroke-width:0.264583" />
        <path
           d="m 155.56551,85.457554 q 0.21166,0 0.37041,0.148167 0.16934,0.137583 0.16934,0.444498 0,0.296333 -0.16934,0.444499 -0.15875,0.148166 -0.37041,0.148166 -0.23284,0 -0.39158,-0.148166 -0.15875,-0.148166 -0.15875,-0.444499 0,-0.306915 0.15875,-0.444498 0.15874,-0.148167 0.39158,-0.148167 z m 0.45508,2.127244 v 5.672648 h -0.93133 v -5.672648 z"
           id="path6984"
           style="font-size:10.5833px;line-height:1.25;letter-spacing:0px;stroke-width:0.264583" />
        <path
           d="m 162.75156,90.410539 q 0,1.407579 -0.71966,2.180159 -0.70909,0.772581 -1.92616,0.772581 -0.75142,0 -1.34408,-0.338665 -0.58209,-0.349249 -0.92075,-1.005414 -0.33867,-0.666748 -0.33867,-1.608661 0,-1.407579 0.70908,-2.169577 0.70909,-0.761997 1.92617,-0.761997 0.77258,0 1.35466,0.349249 0.59266,0.338665 0.92074,0.99483 0.33867,0.645581 0.33867,1.587495 z m -4.28624,0 q 0,1.005413 0.39159,1.598078 0.40216,0.582081 1.26999,0.582081 0.85725,0 1.25941,-0.582081 0.40217,-0.592665 0.40217,-1.598078 0,-1.005414 -0.40217,-1.576912 -0.40216,-0.571498 -1.26999,-0.571498 -0.86783,0 -1.25941,0.571498 -0.39159,0.571498 -0.39159,1.576912 z"
           id="path6986"
           style="font-size:10.5833px;line-height:1.25;letter-spacing:0px;stroke-width:0.264583" />
        <path
           d="m 166.95313,87.478965 q 1.01599,0 1.53458,0.497415 0.51858,0.486832 0.51858,1.587495 v 3.693571 h -0.92075 v -3.630071 q 0,-1.365246 -1.27,-1.365246 -0.94191,0 -1.30174,0.529165 -0.35983,0.529165 -0.35983,1.523995 v 2.942157 h -0.93133 v -5.672648 h 0.75141 l 0.13758,0.772581 h 0.0529 q 0.27517,-0.444499 0.762,-0.656165 0.48683,-0.222249 1.02658,-0.222249 z"
           id="path6988"
           style="font-size:10.5833px;line-height:1.25;letter-spacing:0px;stroke-width:0.264583" />
        <path
           style="font-variation-settings:normal;opacity:1;fill:none;fill-opacity:1;stroke:#000000;stroke-width:1;stroke-linecap:butt;stroke-linejoin:miter;stroke-miterlimit:4;stroke-dasharray:none;stroke-dashoffset:0;stroke-opacity:1;marker-start:url(#Stop);marker-end:url(#Stop);stop-color:#000000;stop-opacity:1"
           d="M 111.57848,208.95357 52.306889,149.68197"
           id="path6401" />
        <g
           aria-label="max depth"
           id="text6558"
           style="font-size:10.5833px;line-height:1.25;letter-spacing:0px;stroke-width:0.264583">
          <path
             d="m 42.667906,188.25118 q 0.96308,0 1.439329,0.49742 0.476248,0.48683 0.476248,1.58749 v 3.69357 h -0.920747 v -3.65124 q 0,-1.34407 -1.15358,-1.34407 -0.825497,0 -1.185329,0.47624 -0.349249,0.47625 -0.349249,1.38642 v 3.13265 h -0.920747 v -3.65124 q 0,-1.34407 -1.164163,-1.34407 -0.857247,0 -1.18533,0.52916 -0.328082,0.52917 -0.328082,1.524 v 2.94215 h -0.93133 v -5.67265 h 0.751414 l 0.137583,0.77259 h 0.05292 q 0.264583,-0.4445 0.709082,-0.65617 0.455081,-0.22225 0.96308,-0.22225 1.333496,0 1.735661,0.9525 h 0.05292 q 0.28575,-0.48683 0.772581,-0.71967 0.497415,-0.23283 1.047747,-0.23283 z"
             id="path6949" />
          <path
             d="m 48.488715,188.26176 q 1.037163,0 1.534578,0.45509 0.497415,0.45508 0.497415,1.44991 v 3.8629 h -0.677331 l -0.179916,-0.80433 h -0.04233 q -0.370416,0.46567 -0.783164,0.68792 -0.402166,0.22225 -1.12183,0.22225 -0.772581,0 -1.280579,-0.40217 -0.507999,-0.41275 -0.507999,-1.28058 0,-0.84666 0.666748,-1.30174 0.666748,-0.46567 2.05316,-0.508 l 0.96308,-0.0318 v -0.33867 q 0,-0.70908 -0.306915,-0.98425 -0.306916,-0.27516 -0.867831,-0.27516 -0.444498,0 -0.846664,0.13758 -0.402165,0.127 -0.751414,0.29633 l -0.285749,-0.69849 q 0.370415,-0.20109 0.878414,-0.33867 0.507998,-0.14817 1.05833,-0.14817 z m 0.275165,3.02683 q -1.05833,0.0423 -1.471078,0.33866 -0.402166,0.29634 -0.402166,0.83608 0,0.47625 0.28575,0.6985 0.296332,0.22225 0.751414,0.22225 0.719664,0 1.195913,-0.39158 0.476248,-0.40217 0.476248,-1.22766 v -0.508 z"
             id="path6951" />
          <path
             d="m 53.621624,191.12984 -1.957911,-2.77283 h 1.05833 l 1.460495,2.13783 1.449912,-2.13783 h 1.047747 l -1.95791,2.77283 2.063743,2.89982 H 55.7277 l -1.545162,-2.26482 -1.566328,2.26482 h -1.047747 z"
             id="path6953" />
          <path
             d="m 62.638591,194.1355 q -1.05833,0 -1.693328,-0.73025 -0.634998,-0.74083 -0.634998,-2.20133 0,-1.46049 0.634998,-2.20132 0.645581,-0.75142 1.703911,-0.75142 0.656165,0 1.068914,0.24342 0.423332,0.24341 0.687914,0.59266 h 0.0635 q -0.01058,-0.13758 -0.04233,-0.40216 -0.02117,-0.27517 -0.02117,-0.43392 v -2.26482 h 0.931331 v 8.0433 h -0.751415 l -0.137583,-0.76199 h -0.04233 q -0.253999,0.35983 -0.677331,0.61383 -0.423332,0.254 -1.09008,0.254 z m 0.148166,-0.77258 q 0.899581,0 1.259413,-0.48684 0.370415,-0.49741 0.370415,-1.49224 v -0.16933 q 0,-1.05833 -0.349248,-1.61925 -0.349249,-0.5715 -1.291163,-0.5715 -0.751414,0 -1.132413,0.60325 -0.370416,0.59267 -0.370416,1.59808 0,1.016 0.370416,1.57691 0.380999,0.56092 1.142996,0.56092 z"
             id="path6955" />
          <path
             d="m 69.327233,188.25118 q 0.730248,0 1.24883,0.3175 0.529165,0.3175 0.80433,0.89958 0.28575,0.5715 0.28575,1.34408 v 0.56091 h -3.884071 q 0.02117,0.96309 0.486831,1.47108 0.476249,0.49742 1.322913,0.49742 0.539748,0 0.952497,-0.0952 0.423332,-0.10583 0.86783,-0.29633 v 0.81491 q -0.433915,0.1905 -0.857247,0.27517 -0.423332,0.0953 -1.005413,0.0953 -0.804331,0 -1.428746,-0.32809 -0.613831,-0.32808 -0.96308,-0.97366 -0.338666,-0.65616 -0.338666,-1.59808 0,-0.93133 0.306916,-1.59808 0.317499,-0.66674 0.878414,-1.02658 0.571498,-0.35983 1.322912,-0.35983 z m -0.01058,0.762 q -0.666748,0 -1.05833,0.43391 -0.380999,0.42334 -0.455082,1.18533 h 2.889241 q -0.01058,-0.71966 -0.338666,-1.16416 -0.328082,-0.45508 -1.037163,-0.45508 z"
             id="path6957" />
          <path
             d="m 75.804205,188.25118 q 1.047747,0 1.682745,0.73025 0.645581,0.73025 0.645581,2.20133 0,1.44991 -0.645581,2.20132 -0.634998,0.75142 -1.693328,0.75142 -0.656165,0 -1.09008,-0.24342 -0.423332,-0.254 -0.666748,-0.58208 h -0.0635 q 0.02117,0.17991 0.04233,0.45508 0.02117,0.27517 0.02117,0.47625 v 2.32832 h -0.931331 v -8.21264 h 0.761998 l 0.127,0.77259 h 0.04233 q 0.253999,-0.37042 0.666748,-0.62442 0.412748,-0.254 1.100663,-0.254 z m -0.169333,0.78317 q -0.86783,0 -1.227663,0.48683 -0.349249,0.48683 -0.370415,1.48166 v 0.17992 q 0,1.04774 0.338665,1.61924 0.349249,0.56092 1.28058,0.56092 0.518581,0 0.846664,-0.28575 0.338665,-0.28575 0.497415,-0.77258 0.169333,-0.49742 0.169333,-1.13242 0,-0.97366 -0.380999,-1.55574 -0.370416,-0.58208 -1.15358,-0.58208 z"
             id="path6959" />
          <path
             d="m 81.508602,193.3735 q 0.211666,0 0.433915,-0.0318 0.22225,-0.0423 0.359833,-0.0847 v 0.70908 q -0.148167,0.0741 -0.423332,0.11642 -0.275166,0.0529 -0.529165,0.0529 -0.444499,0 -0.825498,-0.14817 -0.370415,-0.15875 -0.603248,-0.53975 -0.232832,-0.381 -0.232832,-1.06891 v -3.30199 h -0.804331 v -0.4445 l 0.814914,-0.37042 0.370415,-1.20649 h 0.550332 v 1.30174 h 1.640411 v 0.71967 h -1.640411 v 3.28082 q 0,0.51858 0.243416,0.77258 0.253999,0.24342 0.645581,0.24342 z"
             id="path6961" />
          <path
             d="m 84.366094,188.34643 q 0,0.42333 -0.05292,0.79375 h 0.0635 q 0.275166,-0.43392 0.740831,-0.65617 0.476249,-0.22225 1.02658,-0.22225 1.037163,0 1.555745,0.49742 0.518582,0.48683 0.518582,1.57691 v 3.69357 h -0.920747 v -3.63007 q 0,-1.36524 -1.269996,-1.36524 -0.952497,0 -1.312329,0.53974 -0.349249,0.52917 -0.349249,1.524 v 2.93157 H 83.43476 v -8.0433 h 0.931331 z"
             id="path6963" />
        </g>
      </g>
    </g>
  </g>
</svg>
